<svg xmlns="http://www.w3.org/2000/svg" viewBox="0 0 249.251 305">
  <defs>
    <style>
      .cls-1 {
        fill: #fff;
      }
    </style>
  </defs>
  <g id="apple" transform="translate(-27.875)">
    <path id="XMLID_229_" class="cls-1" d="M40.738,112.119c-25.785,44.745-9.393,112.648,19.121,153.82C74.092,286.523,88.5,305,108.239,305c.372,0,.745-.007,1.127-.022,9.273-.37,15.974-3.225,22.453-5.984,7.274-3.1,14.8-6.3,26.6-6.3,11.226,0,18.39,3.1,25.318,6.1,6.828,2.954,13.861,6.01,24.253,5.815,22.232-.414,35.882-20.352,47.925-37.941a168.178,168.178,0,0,0,21-43.01l.086-.271a2.5,2.5,0,0,0-1.328-3.066c-.032-.015-.15-.064-.183-.078-3.915-1.6-38.257-16.836-38.618-58.36-.335-33.736,25.763-51.6,31-54.839l.244-.152a2.5,2.5,0,0,0,.71-3.511C250.8,77.013,223.194,73.04,212.078,72.562c-1.613-.161-3.278-.242-4.95-.242-13.056,0-25.563,4.931-35.611,8.893-6.936,2.735-12.927,5.1-17.059,5.1-4.643,0-10.668-2.391-17.645-5.159-9.33-3.7-19.9-7.9-31.1-7.9q-.4,0-.789.008C78.894,73.643,54.3,88.535,40.738,112.119Z"/>
    <path id="XMLID_230_" class="cls-1" d="M212.1,0c-15.763.642-34.672,10.345-45.974,23.583-9.6,11.127-18.988,29.679-16.516,48.379a2.5,2.5,0,0,0,2.284,2.164c1.064.083,2.15.125,3.232.126,15.413,0,32.04-8.527,43.4-22.257,11.951-14.5,17.994-33.1,16.166-49.77A2.515,2.515,0,0,0,212.1,0Z"/>
  </g>
</svg>
