<svg id="Img" xmlns="http://www.w3.org/2000/svg" xmlns:xlink="http://www.w3.org/1999/xlink" viewBox="0 0 5009.797 3695.437">
  <defs>
    <style>
      .cls-1 {
        fill: none;
      }

      .cls-2 {
        fill: #99cfa1;
      }

      .cls-3 {
        fill: #fff;
      }

      .cls-4 {
        fill: #75af7c;
      }

      .cls-5 {
        fill: #df2a61;
      }

      .cls-6 {
        fill: #782fe5;
      }

      .cls-7 {
        clip-path: url(#clip-path);
      }

      .cls-8 {
        fill: #307fa5;
      }

      .cls-9 {
        fill: #004f77;
      }

      .cls-10 {
        fill: #52b8d1;
      }

      .cls-11, .cls-12, .cls-18, .cls-21 {
        fill: #e6e6e6;
      }

      .cls-11 {
        opacity: 0.193;
      }

      .cls-12 {
        opacity: 0.241;
      }

      .cls-13 {
        fill: #04324f;
      }

      .cls-14 {
        fill: #a5ddeb;
      }

      .cls-15 {
        fill: #934b4f;
      }

      .cls-16 {
        fill: #fab657;
      }

      .cls-17 {
        fill: #542b2d;
      }

      .cls-19 {
        fill: #f7a07f;
      }

      .cls-20 {
        fill: #8e1c42;
      }

      .cls-21 {
        opacity: 0.309;
      }

      .cls-22 {
        fill: #ce7e70;
      }

      .cls-23 {
        fill: #911b3f;
      }
    </style>
    <clipPath id="clip-path">
      <path id="Clip_36" data-name="Clip 36" class="cls-1" d="M0,0H1042.458V1947.384H0Z"/>
    </clipPath>
  </defs>
  <path id="Fill_1" data-name="Fill 1" class="cls-2" d="M12.523,49.312C-30.411,204.35,43.27,615.775,139.045,638.574c126.664,30.147,119.142-196.08,111.065-348.181C242.187,141.058,55.456-105.727,12.523,49.312" transform="translate(4533.58 2952.54)"/>
  <path id="Fill_3" data-name="Fill 3" class="cls-3" d="M2.02,1.659a5.848,5.848,0,0,0-.27,8.593C3,11.516,127.029,141.006,139.515,565.552a6.276,6.276,0,0,0,6.436,5.907h.167a6.247,6.247,0,0,0,6.268-6.247C139.734,135.027,16.347,7.14,11.108,1.9A6.7,6.7,0,0,0,2.02,1.659" transform="translate(4590.727 2984.288)"/>
  <path id="Fill_5" data-name="Fill 5" class="cls-4" d="M.076,4.668C-2.5,12.362,61.466,87.914,92.069,182.29,118.637,264.2,151.2,472.991,145.39,578.7c-.913,16.64,33.564,4.394,38.488-169.563,1.419-49.955-2.912-160.085-14.66-193.291C114.219,60.3,8.664-20.965.076,4.668" transform="translate(4597.076 2971.588)"/>
  <path id="Fill_7" data-name="Fill 7" class="cls-2" d="M21.619,113.718C-4.892,189.008-29.87,329.635,94.936,336.43,189.3,341.573,275.593,138.753,239.059,49.688S62.741-3.095,21.619,113.718" transform="translate(4762.165 3276.367)"/>
  <path id="Fill_9" data-name="Fill 9" class="cls-3" d="M163.082.292C161.3.813-15.546,55.954,1.106,273.736a6.316,6.316,0,0,0,6.412,5.644c.154,0,.308-.012.475-.024a6.207,6.207,0,0,0,5.949-6.494C-1.978,64.911,160.05,13.934,166.95,11.871a6.01,6.01,0,0,0,4.189-7.61A6.479,6.479,0,0,0,163.082.292" transform="translate(4800.261 3308.115)"/>
  <path id="Fill_11" data-name="Fill 11" class="cls-4" d="M156.5.11C127.51-2.43,79.77,39.719,60.971,59.524,1.816,121.83-7.52,233.553,4.664,263.481c14.93,36.642,106.895,12.876,147.39-101.978S178.324,2.021,156.5.11" transform="translate(4825.66 3327.163)"/>
  <path id="Fill_13" data-name="Fill 13" class="cls-5" d="M3538.587,1.727C3394.7,136.377,2765.773,142.622,2099.917,149.235,1138,158.792,47.742,169.625.047,557.822a6.513,6.513,0,0,0,5.6,7.251q.4.037.8.037a6.466,6.466,0,0,0,6.38-5.693c46.3-376.909,1130.579-387.682,2087.221-397.178,697.437-6.932,1299.752-12.919,1447.3-150.98a6.551,6.551,0,0,0,.34-9.177,6.4,6.4,0,0,0-9.1-.356" transform="translate(400.022 2857.297)"/>
  <path id="Fill_15" data-name="Fill 15" class="cls-6" d="M3320.55,52.871C3008.871,186.034,1364.333,119.238,667.891,208.3,103.466,280.489-57.174,475.882,16.932,564.37c86.741,103.552,1379.653,77.919,1491.5,20.121,131.107-67.766-351.857-286.95,6.579-282.9C3676,325.961,3795.575,136.732,3797.007,85.428c3.362-120.874-327.968-96-476.457-32.557" transform="translate(565.11 2914.443)"/>
  <path id="Fill_17" data-name="Fill 17" class="cls-5" d="M742.178.044C333.5,43.431,111.967,121.87,1.416,262.339a6.694,6.694,0,0,0,.967,9.241A6.261,6.261,0,0,0,6.4,273.031a6.329,6.329,0,0,0,4.994-2.443C119.585,133.108,338.534,56.107,743.5,13.117A6.559,6.559,0,0,0,749.215,5.9,6.451,6.451,0,0,0,742.178.044" transform="translate(482.566 3073.181)"/>
  <path id="Fill_19" data-name="Fill 19" class="cls-3" d="M252.513.214C66.151,49.606-11.323,135.849,1.325,279.821a6.333,6.333,0,0,0,6.223,5.909c.189,0,.379-.012.58-.024a6.439,6.439,0,0,0,5.667-7.061C1.834,142.285,76.409,60.3,255.613,12.792a6.494,6.494,0,0,0,4.52-7.895,6.224,6.224,0,0,0-7.62-4.683" transform="translate(1257.211 3168.425)"/>
  <path id="Fill_21" data-name="Fill 21" class="cls-3" d="M571.619.608C377.49-4.228,9.517,21.368,5.827,21.617c-3.51.249-6.115,2.719-5.8,5.506.3,2.633,3.075,4.625,6.356,4.625.181,0,.374-.01.579-.019,3.679-.259,370.976-25.8,564.261-20.98,3.932.2,6.465-2.126,6.585-4.912.109-2.806-2.665-5.142-6.187-5.228" transform="translate(1650.883 3111.279)"/>
  <path id="Fill_23" data-name="Fill 23" class="cls-3" d="M659.92.015C527.356,3.749,11.8.7,6.606.67h-.05C2.95.67.025,3.064,0,6.04c-.037,3,2.875,5.442,6.507,5.462,3.222.02,203.208,1.2,386.19,1.2,111.817,0,217.3-.44,267.656-1.851,3.631-.1,6.469-2.608,6.346-5.605S663.489-.22,659.92.015" transform="translate(2520.772 3111.279)"/>
  <path id="Fill_25" data-name="Fill 25" class="cls-3" d="M500.018.161C434.4,14.125,136.27,60.777,6.216,64.793,2.667,64.9-.129,67.538,0,70.693c.122,3.079,2.978,5.5,6.43,5.5h.231c133.3-4.113,428.356-50.474,496.367-64.944,3.452-.732,5.58-3.811,4.753-6.869S503.568-.582,500.018.161" transform="translate(3466.856 3028.734)"/>
  <path id="Fill_27" data-name="Fill 27" class="cls-2" d="M352.059,0C120.1-1.248,120.27,400.269,121.076,563.869c.586,117.355-231.777,534.421-54.222,792.466s362.582,66.591,463.236-172.7S359.386,741.037,340.7,567.4,632.074,1.509,352.059,0" transform="translate(673.053 1523.892)"/>
  <path id="Fill_29" data-name="Fill 29" class="cls-4" d="M162.928,0C113.691-.1,20.3,320.8,2.164,661s83.8,678.75,83.8,678.75,154.966-92.913,189.888-254.985S75.049,557.517,70.685,499.177,281.749.233,162.928,0" transform="translate(882.588 1600.086)"/>
  <path id="Fill_31" data-name="Fill 31" class="cls-3" d="M154.593.484a6.851,6.851,0,0,0-8.785,3.488C-143.217,672.323,86.266,1360.186,88.615,1367.064A6.7,6.7,0,0,0,95,1371.5a7.083,7.083,0,0,0,2.107-.317,6.412,6.412,0,0,0,4.278-8.158c-2.323-6.829-230.3-690.131,56.838-1354.1A6.37,6.37,0,0,0,154.593.484" transform="translate(850.84 1587.387)"/>
  <path id="Fill_33" data-name="Fill 33" class="cls-3" d="M129.468,1C66.8,39.5,7.706,125.7,1.164,135.395a6.868,6.868,0,0,0,1.779,9.462,6.681,6.681,0,0,0,9.351-1.787c6.365-9.462,63.917-93.411,124.163-130.436a6.857,6.857,0,0,0,2.261-9.346A6.67,6.67,0,0,0,129.468,1" transform="translate(933.384 1727.077)"/>
  <g id="Group_37" data-name="Group 37" transform="translate(0 1131.143)">
    <path id="Clip_36-2" data-name="Clip 36" class="cls-1" d="M0,0H1042.458V1947.384H0Z" transform="translate(0 0)"/>
    <g id="Group_37-2" data-name="Group 37" class="cls-7" transform="translate(0 0)">
      <path id="Fill_35" data-name="Fill 35" class="cls-2" d="M723.929,1045.07C587.874,933.372,905.65,710.524,680.42,559.83,569.526,485.641,519.571,384.3,386.249,181.536,246.517-30.991,112.165-36.73,31.7,61.051-85.146,203.044,166.925,365.7,55.726,686.456c-97.093,280.038,301.635,412.269,224.017,630.109-136.325,382.608,180.4,613.328,371.336,630,247.108,21.557,701.859-385.094,72.851-901.494" transform="translate(-0.002 0)"/>
    </g>
  </g>
  <path id="Fill_38" data-name="Fill 38" class="cls-4" d="M549.329,1062.482C426.876,955.767,624.1,741.614,500.441,614.431S152.59,5.038,44.612.163c-179.746-8.116,236.905,285.37,309.627,1220.874,43.782,563.213,272.246,752.772,375.422,602.714,213.487-310.468,90.008-525.677-180.333-761.269" transform="translate(107.942 1174.667)"/>
  <path id="Fill_40" data-name="Fill 40" class="cls-3" d="M561.622,1759.294C403.459,1677.759,331.434,1467.891,313,1034.9,294.988,611.688,41.025,64.647,12.123,3.667A6.332,6.332,0,0,0,3.617.64,6.5,6.5,0,0,0,.633,9.269C29.426,70.005,282.367,614.813,300.271,1035.463c18.65,438.336,92.7,651.389,255.576,735.353a6.3,6.3,0,0,0,8.567-2.832,6.5,6.5,0,0,0-2.791-8.691" transform="translate(107.942 1282.609)"/>
  <path id="Fill_42" data-name="Fill 42" class="cls-3" d="M11.119,1.556a6.761,6.761,0,0,0-9.581.965,6.982,6.982,0,0,0,.95,9.716c.925.769,92.688,77.2,144.856,125.64a6.711,6.711,0,0,0,9.607-.443,6.97,6.97,0,0,0-.424-9.755C104.076,79,12.043,2.325,11.119,1.556" transform="translate(120.641 1644.533)"/>
  <path id="Fill_44" data-name="Fill 44" class="cls-3" d="M9.445.873a6.282,6.282,0,0,0-6.35,10.841C142.439,94.034,248.225,218.755,249.277,220a6.279,6.279,0,1,0,9.578-8.122C257.779,210.622,150.669,84.309,9.445.873" transform="translate(82.544 1930.263)"/>
  <path id="Fill_46" data-name="Fill 46" class="cls-3" d="M11.218,1.718a6.808,6.808,0,0,0-9.463.409A6.481,6.481,0,0,0,2.172,11.4c52.472,47.2,149.874,175.152,150.86,176.442a6.776,6.776,0,0,0,9.362,1.339A6.48,6.48,0,0,0,163.758,180C159.74,174.7,64.613,49.759,11.218,1.718" transform="translate(285.73 2539.819)"/>
  <path id="Fill_48" data-name="Fill 48" class="cls-3" d="M140.835,2.04C72.848,72.078,3.528,213.632.612,219.625A6.184,6.184,0,0,0,3.867,228a7.019,7.019,0,0,0,2.79.584,6.7,6.7,0,0,0,6.046-3.669c.7-1.453,71.343-145.736,137.923-214.333a6.069,6.069,0,0,0-.39-8.911,6.9,6.9,0,0,0-9.4.369" transform="translate(457.168 1860.418)"/>
  <path id="Fill_50" data-name="Fill 50" class="cls-3" d="M114.456,2.781C-29,197.51,2.914,480.34,3.251,483.178a6.736,6.736,0,0,0,6.829,5.737c.26,0,.506-.012.779-.037a6.567,6.567,0,0,0,6.063-7.138c-.338-2.777-31.637-280.918,108.842-471.627a6.182,6.182,0,0,0-1.74-8.965,7.166,7.166,0,0,0-9.568,1.632" transform="translate(634.955 2457.275)"/>
  <path id="Fill_52" data-name="Fill 52" class="cls-8" d="M197.671,0,0,19.777s85.369,119.809,191,125.74,95.5-40.109,93.593-72.8S270.576,23.7,197.671,0" transform="translate(2469.976 1587.387)"/>
  <path id="Fill_54" data-name="Fill 54" class="cls-9" d="M991.054,88.552,6.93.02A6.655,6.655,0,0,0,.025,5.968a6.5,6.5,0,0,0,5.8,7.08L989.95,101.568a4.148,4.148,0,0,0,.564.025,6.541,6.541,0,0,0,.54-13.041" transform="translate(1898.516 2387.43)"/>
  <path id="Fill_56" data-name="Fill 56" class="cls-8" d="M146.04,0a146.04,146.04,0,1,0,146.04,146.04A146.034,146.034,0,0,0,146.04,0" transform="translate(1765.175 2419.178)"/>
  <path id="Fill_58" data-name="Fill 58" class="cls-8" d="M159.145.962c-9.53-3.143-19.885,1.676-23.16,10.714L1,383.462c-3.275,9.027,1.792,18.848,11.3,21.955a18.977,18.977,0,0,0,5.932.954,18.207,18.207,0,0,0,17.228-11.656l134.989-371.8c3.275-9.014-1.792-18.848-11.3-21.955" transform="translate(1200.065 1962.01)"/>
  <path id="Fill_60" data-name="Fill 60" class="cls-3" d="M242.37,0,124.319,121.907S59.006,254.162,13.589,308.869,44.8,405.181,122.376,345.133,227.4,221.3,321.287,170,242.37,0,242.37,0" transform="translate(1555.64 2127.099)"/>
  <path id="Fill_62" data-name="Fill 62" class="cls-9" d="M311,.006a6.093,6.093,0,0,0-6.178,6.158c-.012.157-2.681,15.993-52.607,46.471-25.079,15.306-58.8,51.943-94.5,90.725-27.7,30.081-56.323,61.174-80.342,81.288-22.6,18.933-53.813,19.259-68.716,13.438a6.377,6.377,0,0,0-8.213,3.531,6.233,6.233,0,0,0,3.57,8.123,70.093,70.093,0,0,0,25.091,4.242c18.535,0,39.836-5.869,56.457-19.777,24.652-20.632,53.557-52.039,81.512-82.409,33.536-36.444,68.241-74.13,91.784-88.507,56.262-34.335,58.7-53.437,58.614-56.92A6.487,6.487,0,0,0,311,.006" transform="translate(1574.689 2266.789)"/>
  <path id="Fill_64" data-name="Fill 64" class="cls-9" d="M18.794,63.495c-5.886,0-10.446-1.392-13.555-4.137C-1.349,53.5-1.747,44.515,4.176,35.322c5.754-8.933,16.963-17.744,30.752-24.175a122.858,122.858,0,0,1,87.66-5.593,6.071,6.071,0,0,1,4.337,4.829,5.816,5.816,0,0,1-2.692,5.766c-9.482,6.147-28.424,18-48.747,28.321C50.631,57.094,31.556,63.495,18.794,63.495ZM86.1,11.967c-35.78,0-63.007,17.263-70.912,29.522-1.9,2.94-3.64,6.921-1.086,9.189,1.078.963,2.861,1.451,5.3,1.451,6.964,0,19.261-3.929,35.564-11.362a488.856,488.856,0,0,0,50.257-27.1A108.01,108.01,0,0,0,86.1,11.967Z" transform="translate(1549.292 2298.536)"/>
  <path id="Fill_66" data-name="Fill 66" class="cls-9" d="M39.2,38.1c-11.552,0-28.7-6.886-35.533-9.846a4.169,4.169,0,0,1-2.16-2.086A3.583,3.583,0,0,1,.041,22.754c1.338-8.631,4.13-14.916,8.3-18.682A15.6,15.6,0,0,1,19.121,0c.362,0,.731.011,1.1.032C35.159.956,50.855,19.98,50.8,29.685a7.717,7.717,0,0,1-4.286,6.949A15.569,15.569,0,0,1,39.2,38.1ZM19.09,7.7V7.7c-6.566,0-9.175,9.989-9.992,14.283,13.3,5.615,25.32,8.556,30.319,8.556a4.413,4.413,0,0,0,2.511-.5c.038-3.194-3.014-8.6-7.6-13.456-5-5.3-10.511-8.61-14.734-8.865q-.256-.02-.5-.02Z" transform="translate(1657.233 2273.14)"/>
  <path id="Fill_68" data-name="Fill 68" class="cls-9" d="M79.113.536A6.746,6.746,0,0,0,74.139.418a6.292,6.292,0,0,0-3.572,3.316c-.26.557-25.454,55.964-67.442,80.079A6.011,6.011,0,0,0,.916,92.258a6.54,6.54,0,0,0,5.545,2.985,6.677,6.677,0,0,0,3.3-.877C46.4,73.331,70.355,32.291,78.914,15.709c5.607,5.8,13.086,19.01,8.236,46.2a6.2,6.2,0,0,0,5.272,7.107,6.47,6.47,0,0,0,7.43-5.034C108.809,13.849,80.341,1.057,79.113.536" transform="translate(1581.039 2304.886)"/>
  <path id="Fill_70" data-name="Fill 70" class="cls-10" d="M0,35.855l71.728,84.786,48.914-40.006L34.451,0Z" transform="translate(1225.464 1301.657)"/>
  <path id="Fill_72" data-name="Fill 72" class="cls-11" d="M.748,30.018c-17.818,55.949,288.354,31.706,291.308,0S15.895-17.547.748,30.018" transform="translate(869.889 3231.92)"/>
  <path id="Fill_74" data-name="Fill 74" class="cls-12" d="M644.966,5.209C570.991,25.226,68.877,19.06,16.043,84.871-101.21,230.933,456.41,253.046,644.966,186.34S1281.6,144.517,1282.608,84.871,718.942-14.807,644.966,5.209" transform="translate(1841.37 3098.58)"/>
  <path id="Fill_76" data-name="Fill 76" class="cls-3" d="M230.724,35.227S102.359,109.235,34.459,129.358,4.352,228.166,101.21,221.878,256.7,177.59,361.639,187.969,395.6,0,395.6,0Z" transform="translate(1993.759 3022.385)"/>
  <path id="Fill_78" data-name="Fill 78" class="cls-13" d="M20.274,299.408c-30.788,94.3-43.544,260.274,89.95,558.316,17.885,39.931,154.474-24.908,150.648-100.7-8.6-170.636-4.35-355.738-4.35-355.738L834.859,296.108,863.539,0l-352.8,34.843S42.46,231.438,20.274,299.408" transform="translate(1561.99 1396.901)"/>
  <path id="Fill_80" data-name="Fill 80" class="cls-13" d="M202.475,66.206,43.078,2.258A31.5,31.5,0,0,0,19.758,60.785l159.409,63.948a31.327,31.327,0,0,0,40.815-17.565,31.547,31.547,0,0,0-17.508-40.962" transform="translate(1085.774 2584.266)"/>
  <path id="Fill_82" data-name="Fill 82" class="cls-14" d="M158.923,1.509a27.929,27.929,0,0,0-35.442,17.386L1.514,375.683A27.972,27.972,0,0,0,18.871,411.2a27.579,27.579,0,0,0,9.043,1.523,27.938,27.938,0,0,0,26.4-18.909L176.279,37.023A27.992,27.992,0,0,0,158.923,1.509" transform="translate(1092.123 2241.391)"/>
  <path id="Fill_84" data-name="Fill 84" class="cls-13" d="M65.826,1295.308a56,56,0,0,1-19.064-3.389c-16.351-5.893-28.57-19.793-36.319-41.314C3.356,1230.919-.156,1204.4.005,1171.8.281,1116.152,11.146,1041.75,32.3,950.66c37.135-159.911,94.785-322.729,105.964-353.744,59.778-165.83,127.77-317.775,191.45-427.846,33.781-58.392,63.077-100.2,89.564-127.821C445.9,13.493,469.743,0,492.176,0a56.1,56.1,0,0,1,19.092,3.393c49.047,17.669,59.558,92.735,34.082,243.4-21.195,125.346-65.795,285.724-125.584,451.59S291.979,1016.21,228.315,1126.242c-33.782,58.391-63.086,100.2-89.587,127.825C112.1,1281.818,88.258,1295.308,65.826,1295.308ZM489.009,65.133c-17.971,8.127-56.69,51.274-111.464,148-41.822,73.85-106.9,204.124-179.443,405.366-40.042,111.078-93.448,275.26-120.477,426.619-19.54,109.422-17.257,167.342-8.6,185.059,17.966-8.12,56.688-51.259,111.462-147.986,41.815-73.843,106.889-204.113,179.433-405.37,40.043-111.044,93.451-275.2,120.49-426.62,19.539-109.421,17.255-167.343,8.6-185.064Z" transform="translate(907.987 2031.857)"/>
  <path id="Fill_86" data-name="Fill 86" class="cls-13" d="M631.772,1263.559C283.411,1263.559,0,980.145,0,631.783S283.411,0,631.772,0,1263.56,283.417,1263.56,631.783,980.141,1263.559,631.772,1263.559ZM631.772,54C313.2,54,54.014,313.194,54.014,631.783S313.2,1209.557,631.772,1209.557s577.774-259.188,577.774-577.774S950.357,54,631.772,54Z" transform="translate(2190.596 1911.214)"/>
  <path id="Fill_88" data-name="Fill 88" class="cls-14" d="M1388.022,749.246H453.668a28.139,28.139,0,0,1-23.836-13.309L4.084,42.248a27.693,27.693,0,0,1-.52-28.064A27.972,27.972,0,0,1,27.92,0H985.383a28.017,28.017,0,0,1,24.184,13.892l402.645,693.689a27.779,27.779,0,0,1-24.19,41.665ZM77.682,55.563,469.338,693.689h870.31L969.262,55.563Z" transform="translate(1460.405 1828.67)"/>
  <path id="Fill_90" data-name="Fill 90" class="cls-14" d="M680.476,5.282a28.52,28.52,0,0,0-39.362,6.132L5.381,870.438a27.32,27.32,0,0,0,6.237,38.621,28.559,28.559,0,0,0,39.374-6.132L686.725,43.9a27.322,27.322,0,0,0-6.249-38.621" transform="translate(1892.166 1663.582)"/>
  <path id="Fill_92" data-name="Fill 92" class="cls-14" d="M158.978,1.706C144.083-3.551,127.519,3.744,122,18.081L1.794,331c-5.517,14.337,2.119,30.254,17.015,35.56a29.809,29.809,0,0,0,9.981,1.712c11.711,0,22.707-6.909,27.008-18.087l120.2-312.921C181.51,22.928,173.874,7,158.978,1.706" transform="translate(1409.601 1606.436)"/>
  <path id="Fill_94" data-name="Fill 94" class="cls-14" d="M777.593,379.1,396.527,203.133,41.576,3.593A27.977,27.977,0,0,0,3.622,14.014a27.51,27.51,0,0,0,10.5,37.653L370.036,251.748,754.1,429.182A27.935,27.935,0,0,0,791.081,415.8a27.522,27.522,0,0,0-13.488-36.7" transform="translate(1155.619 1403.25)"/>
  <path id="Fill_96" data-name="Fill 96" class="cls-13" d="M145,150.552l15.972,138.855S-14.4,1597.272.952,1672.676s168.425,63.145,187.98,19.283,82.892-639.5,103.046-731.668S476.7,413.593,476.215,242.474C475.946,145.083,405.663,0,405.663,0Z" transform="translate(2215.994 1371.502)"/>
  <path id="Fill_98" data-name="Fill 98" class="cls-10" d="M0,26.661v84.848s11.3,53.754,249.408,65.06S663.5,117.18,679.4,97.367L652,0Z" transform="translate(2019.158 1422.299)"/>
  <path id="Fill_100" data-name="Fill 100" class="cls-10" d="M1022.451,43.538c-117.287-66.283-392.983-54-512.4,17.288C293.131,190.336-55.883,666.069,7.6,771.358c19.925,33.043,81.777,108.234,116.3,94C271.7,804.4,491.377,362.89,491.377,362.89c123.949,95.019,277.2,537.991,314.567,597.942,44.69,71.682,498.107,69.277,626.543-40.6,143.3-122.59-195.825-755.637-410.035-876.693" transform="translate(1257.211 552.411)"/>
  <path id="Fill_102" data-name="Fill 102" class="cls-10" d="M29.073,63.176c-78.2,101.148,21.47,155.758,63.959,158.193,65.307,3.738,228.26-2.557,254.49-60.893,58.2-129.445-214.708-231.481-318.449-97.3" transform="translate(1854.069 419.07)"/>
  <path id="Fill_104" data-name="Fill 104" class="cls-9" d="M60.212.493a5.743,5.743,0,0,0-7.464,2.632C40.755,27.963,2.307,60.171,1.917,60.49a5.151,5.151,0,0,0-.52,7.536,5.716,5.716,0,0,0,4.236,1.82,5.776,5.776,0,0,0,3.716-1.326C11,67.141,49.985,34.5,62.985,7.577A5.236,5.236,0,0,0,60.212.493" transform="translate(2342.985 984.18)"/>
  <path id="Fill_106" data-name="Fill 106" class="cls-9" d="M54.154.707a5.972,5.972,0,0,0-7.922,2.153c-8.5,14.575-33.01,54.4-44.193,63.536a5.4,5.4,0,0,0-.639,7.85,5.922,5.922,0,0,0,4.415,1.949A5.911,5.911,0,0,0,9.6,74.856c15.049-12.3,45.515-64.372,46.8-66.578A5.434,5.434,0,0,0,54.154.707" transform="translate(2342.985 933.384)"/>
  <path id="Fill_108" data-name="Fill 108" class="cls-9" d="M277.844,29.114c-160.9,34.418-226.9,7.841-247.816-5.2C16.945,15.773,12.979,8.238,12.71,5.066,12.429,2.041,9.332-.225,5.881.018,2.381.25-.25,2.874.019,5.888.765,14.4,9.2,24.467,22.587,32.8c17.452,10.865,51.781,24.343,114.7,24.343,37.119,0,84.213-4.7,143.618-17.4,3.4-.738,5.483-3.7,4.638-6.639-.832-2.919-4.247-4.69-7.7-3.994" transform="translate(1854.069 603.207)"/>
  <path id="Fill_110" data-name="Fill 110" class="cls-15" d="M368.067,203.174c-1.806-24.653,6.29-50.484,1.866-79.677C336.761-95.124,35.087,43.1,35.087,43.1L0,165.445C74.816,324.688,96.292,409.786,197.892,447.727c58.127,21.7,178.392,8.424,181.931-65.384,1.9-39.652,12.629-69.665,4.484-133.635-3.818-30.025-15.513-35.67-16.241-45.533" transform="translate(1765.175 63.495)"/>
  <path id="Fill_112" data-name="Fill 112" class="cls-16" d="M0,4.412H0L.038,12.7C1.854-9.761,0,4.412,0,4.412" transform="translate(2139.799 203.186)"/>
  <path id="Fill_114" data-name="Fill 114" class="cls-16" d="M438.119,60.952l-84.431-7.666,43.878-42.3L277.372,30.662,290.1,0S240.337,4.379,163.469,30.662,31.138,71.917,31.138,155.208c0,0-122.487,124.149,118.405,321.008,0,0-26.195-35.338-45.271-95.533-5.114-16.125-9.34-100.991,20.492-106.2C220.949,257.675,361.347,97.1,388.671,214.808l-.36-95.819Z" transform="translate(1752.476)"/>
  <path id="Fill_116" data-name="Fill 116" class="cls-15" d="M299.064,140.293,62.362,41.122C56.174,36.6,43.252,5.231,43.252,5.231S18.513,0,10.648,0s-13.81,22.453-8.8,34.314S33.539,78.188,46.413,84.463s23.171,3.9,23.171,3.9L81.545,127.6,117.1,210.819s76.708,34.207,156.833,7.686,25.128-78.212,25.128-78.212" transform="translate(1796.923 317.477)"/>
  <path id="Fill_118" data-name="Fill 118" class="cls-9" d="M414.765,1.759c-.835.817-87.411,80.814-404.311,80.814-1.379,0-2.771-.012-4.162-.012H6.28a6.335,6.335,0,0,0-.012,12.67c1.428.012,2.856.012,4.283.012C333.78,95.243,420,14.319,423.526,10.856a6.35,6.35,0,0,0,.121-8.927,6.272,6.272,0,0,0-8.881-.171" transform="translate(2254.091 1473.095)"/>
  <path id="Fill_120" data-name="Fill 120" class="cls-17" d="M51.471.055C43.228-.171,15.853-.121,7.432,8.827c-10.465,11.1-9.2,43.7-.424,58.276,2.345,3.9,4.847,7.478,7.271,10.921,4.468,6.359,8.332,11.851,10.063,17.984,2.882,10.18-9.192,29.295-17.479,38.959a7.136,7.136,0,0,0,.145,9.237,5.487,5.487,0,0,0,4.032,1.835,5.461,5.461,0,0,0,4.166-2c2.692-3.117,26.1-31.142,20.2-52-2.379-8.408-7.07-15.068-12.029-22.119-2.245-3.2-4.579-6.51-6.757-10.142C9.99,48.767,10.157,23.9,15.4,18.328c3.339-3.569,21.333-5.605,35.819-5.216a6.424,6.424,0,0,0,5.931-6.384c.067-3.607-2.479-6.6-5.674-6.673" transform="translate(2069.954 228.584)"/>
  <path id="Fill_122" data-name="Fill 122" class="cls-17" d="M120.78.186C77.929-1.9,50.887,14.022,27.014,27.993c-8.139,4.754-15.835,9.248-23.53,12.64-3.207,1.4-4.425,4.681-2.7,7.313A6.923,6.923,0,0,0,6.59,50.8,7.683,7.683,0,0,0,9.7,50.162c8.443-3.714,16.469-8.406,24.95-13.368C57.847,23.229,82,9.237,120.032,10.974c3.626.416,6.745-2.112,6.947-5.087s-2.574-5.534-6.2-5.7" transform="translate(1923.914 241.283)"/>
  <path id="Fill_124" data-name="Fill 124" class="cls-17" d="M62.979,12.372c-.3.1-30.468,9.93-54.34-11.07a5.143,5.143,0,0,0-7.358.53A5.343,5.343,0,0,0,1.793,9.3C16.48,22.211,32.883,25.4,45.472,25.4a69.935,69.935,0,0,0,20.8-2.984,5.294,5.294,0,0,0,3.3-6.691,5.169,5.169,0,0,0-6.6-3.351" transform="translate(2006.459 406.371)"/>
  <path id="Fill_126" data-name="Fill 126" class="cls-13" d="M281.709,135.222,48.234,4.126A32.294,32.294,0,0,0,4.08,16.933,33.062,33.062,0,0,0,16.734,61.608L250.2,192.7a31.98,31.98,0,0,0,15.732,4.132,32.4,32.4,0,0,0,28.423-16.927,33.1,33.1,0,0,0-12.642-44.687" transform="translate(990.53 1295.308)"/>
  <path id="Fill_128" data-name="Fill 128" class="cls-13" d="M267.005,108.186,45.841,3.075C29.632-4.624,10.474,2.637,2.99,19.248S2.552,55.561,18.724,63.26L239.889,168.371a31.621,31.621,0,0,0,13.54,3.067,32.221,32.221,0,0,0,29.311-19.24c7.483-16.611.439-36.326-15.734-44.012" transform="translate(1860.419 1765.174)"/>
  <path id="Fill_130" data-name="Fill 130" class="cls-9" d="M388.655,2.555c-.11.1-11.443,11.1-70.036,8.073-29.479-1.484-78.226,9.028-129.909,20.195C148.6,39.483,107.12,48.442,75.776,51.259,46.419,53.9,20.5,37.39,11.614,24.8a6.569,6.569,0,0,0-8.787-1.668,5.779,5.779,0,0,0-1.767,8.292C12.54,47.66,39.7,63.5,69.537,63.5q3.711,0,7.458-.333c32.148-2.9,74.033-11.949,114.529-20.689C240.088,32,290.345,21.059,317.924,22.566c66.063,3.324,79.054-10.27,81-13.041a5.965,5.965,0,0,0-1.645-8.476,6.344,6.344,0,0,0-8.628,1.507" transform="translate(2006.459 3168.424)"/>
  <path id="Fill_132" data-name="Fill 132" class="cls-9" d="M120.754,50.8C93.907,50.8,5.882,48.858.354,23.9c-1.78-8.035,3.234-15.361,13.412-19.6C20.52,1.49,29.218,0,38.92,0,64.733,0,101.1,10.915,125.743,41.551a5.408,5.408,0,0,1,.589,6.052A6.3,6.3,0,0,1,120.754,50.8ZM38.8,11.606c-7.824,0-14.9,1.151-19.938,3.24-3.258,1.369-7,3.647-6.309,6.732,2.2,9.9,50.353,16.394,94.542,17.481C80.284,13.587,48.044,11.606,38.8,11.606Z" transform="translate(2069.955 3047.783)"/>
  <path id="Fill_134" data-name="Fill 134" class="cls-9" d="M51.7,50.8c-18.83,0-45.009-24.2-50.066-29.053A5.174,5.174,0,0,1,.1,17.019a5.273,5.273,0,0,1,2.646-5.56C15.957,3.855,27.945,0,38.374,0,53.5,0,61.239,8.121,63.865,11.613a30.23,30.23,0,0,1,5.7,22.01c-.852,5.965-3.58,10.937-7.681,14A16.51,16.51,0,0,1,51.7,50.8ZM38.576,10.675c-7.023,0-15.355,2.427-24.765,7.212,12.049,10.746,28.9,22.323,37.42,22.324a5.739,5.739,0,0,0,3.479-.975c1.748-1.31,3-3.852,3.447-6.974A19.886,19.886,0,0,0,54.464,17.8C50.9,13.071,45.55,10.675,38.576,10.675Z" transform="translate(2184.248 3092.229)"/>
  <path id="Fill_136" data-name="Fill 136" class="cls-9" d="M41.476,1.615c-5.6,5.69-22.686,20.2-35.293,20.2-.2,0-.4-.01-.6-.01A4.926,4.926,0,0,0,0,26.565a5.153,5.153,0,0,0,5.148,5.164c.34.01.671.019,1.011.019,19.56,0,40.833-21,43.236-23.429A4.721,4.721,0,0,0,49.048,1.3a5.665,5.665,0,0,0-7.572.316" transform="translate(2133.45 3098.58)"/>
  <path id="Fill_138" data-name="Fill 138" class="cls-15" d="M151.92,20.574S43.237-22.136,19.27,15.518C4.8,38.239-13.518,99.2,15.014,95.518c0,0,2.806,28.814,27.117,26.455,0,0,8.405,25.356,30.042,15.431,0,0,3.626,22.16,27.545,12.584,14.23-5.705,8.869-52.81,31.98-61.811L177.931,112.9s17.535,5.918,40.527-18.115S151.92,20.574,151.92,20.574" transform="translate(1066.725 1327.056)"/>
  <path id="Fill_140" data-name="Fill 140" class="cls-15" d="M78.633,0S2.115,11.154.033,54.361c-1.267,26.076,34.195,96.494,55.318,81.772,0,0,15.291,24.579,33.643,12.714,0,0,18.189,19.239,30.971,1.709,0,0,12.945,18.3,27.7.162,8.793-10.792-16.846-44.192-2.471-61.5,0,0,27.76-12.252,32.451-44.5C182.2,13.5,78.633,0,78.633,0" transform="translate(1911.215 1758.825)"/>
  <path id="Fill_142" data-name="Fill 142" class="cls-10" d="M185.576,102.556C110.367,370.072-5.127,819.256.176,1028.73c1.1,43.464,144.373,92.2,171.378,58.5C260.82,975.876,362.842,357.4,386.741,117.559c11.585-116.314-153.056-186.114-201.165-15" transform="translate(1955.662 666.703)"/>
  <path id="Fill_144" data-name="Fill 144" class="cls-3" d="M160.5.3a6.587,6.587,0,0,0-8.248,4.065C151.116,7.785,38.479,347.363.086,570.557a6.291,6.291,0,0,0,5.427,7.168,6.474,6.474,0,0,0,1.075.084,6.489,6.489,0,0,0,6.477-5.232C51.307,350.273,163.652,11.537,164.778,8.145A6.185,6.185,0,0,0,160.5.3" transform="translate(1981.061 812.742)"/>
  <path id="Fill_146" data-name="Fill 146" class="cls-10" d="M0,36.024S42.11,67.775,110.083,69.845L139.69,21.626,18.3,0Z" transform="translate(1981.061 1727.077)"/>
  <path id="Fill_148" data-name="Fill 148" class="cls-15" d="M8.829,42.1c-12.8,15.089-11.892,30.638,4.113,33.937S74.215,31.257,82.544,0L42.921,7.689S21.633,27.007,8.829,42.1" transform="translate(1212.765 1403.25)"/>
  <path id="Fill_150" data-name="Fill 150" class="cls-8" d="M10.155,2.45a5.466,5.466,0,0,0-7.8-1.385,5.98,5.98,0,0,0-1.33,8.11L40.642,67.384A5.514,5.514,0,0,0,45.2,69.845a5.446,5.446,0,0,0,3.24-1.077,5.978,5.978,0,0,0,1.33-8.11Z" transform="translate(1498.494 1009.578)"/>
  <path id="Fill_152" data-name="Fill 152" class="cls-8" d="M9.048,1.26a5.519,5.519,0,1,0-7.038,8.5L73.5,68.586a5.523,5.523,0,0,0,7.038-8.515Z" transform="translate(1504.844 977.83)"/>
  <path id="Fill_154" data-name="Fill 154" class="cls-8" d="M159.145.96c-9.517-3.143-19.872,1.688-23.16,10.714L1,383.462c-3.275,9.027,1.792,18.848,11.3,21.955a18.977,18.977,0,0,0,5.932.954,18.207,18.207,0,0,0,17.228-11.656L170.442,22.927c3.275-9.027-1.792-18.86-11.3-21.967" transform="translate(1352.455 2031.855)"/>
  <path id="Fill_156" data-name="Fill 156" class="cls-14" d="M205.187,63.493,59.894,2.056a25.723,25.723,0,0,0-21.073.412A28.089,28.089,0,0,0,24.4,18.718L1.694,83.527c-5.2,14.85,1.961,31.349,16.018,36.845,14.045,5.533,29.649-2.073,34.835-16.924L65.6,66.216l95.563,40.417-10.69,33.26c-4.819,14.988,2.764,31.274,16.939,36.37a25.817,25.817,0,0,0,8.729,1.524c11.293,0,21.841-7.506,25.668-19.447l18.971-59c4.654-14.426-2.209-30.175-15.592-35.846" transform="translate(1308.008 1904.864)"/>
  <path id="Fill_158" data-name="Fill 158" class="cls-14" d="M158.737,1.485a27.971,27.971,0,0,0-35.491,17.674L1.476,381.881a28.224,28.224,0,0,0,17.581,35.7A27.911,27.911,0,0,0,54.547,399.9L176.306,37.189a28.207,28.207,0,0,0-17.568-35.7" transform="translate(1250.862 2304.886)"/>
  <path id="Fill_160" data-name="Fill 160" class="cls-9" d="M122.394.272a6.467,6.467,0,0,0-8.034,4.185L.27,372.927A6.24,6.24,0,0,0,4.6,380.708a6.662,6.662,0,0,0,1.847.265,6.429,6.429,0,0,0,6.174-4.45l114.1-368.47A6.24,6.24,0,0,0,122.394.272" transform="translate(1219.114 2209.643)"/>
  <path id="Fill_162" data-name="Fill 162" class="cls-9" d="M140.129,2.752,1.186,193.294a6.076,6.076,0,0,0,1.732,8.784,6.978,6.978,0,0,0,3.8,1.107,6.8,6.8,0,0,0,5.532-2.738L151.207,9.906a6.086,6.086,0,0,0-1.732-8.784,6.965,6.965,0,0,0-9.346,1.63" transform="translate(1047.676 2685.859)"/>
  <path id="Fill_164" data-name="Fill 164" class="cls-9" d="M7.088,0H7.011A5.95,5.95,0,0,0,1.335,6.141L0,120.694a5.968,5.968,0,0,0,5.6,6.3h.077a5.963,5.963,0,0,0,5.687-6.129L12.7,6.3A5.977,5.977,0,0,0,7.088,0" transform="translate(1200.065 2704.907)"/>
  <path id="Fill_166" data-name="Fill 166" class="cls-9" d="M12.852,3.935A6.794,6.794,0,0,0,4.194.456a6.11,6.11,0,0,0-3.72,8.1L152.23,364.339a6.686,6.686,0,0,0,6.2,3.935,6.823,6.823,0,0,0,2.463-.456,6.082,6.082,0,0,0,3.72-8.085Z" transform="translate(2673.162 2031.855)"/>
  <path id="Fill_168" data-name="Fill 168" class="cls-9" d="M11.142,5.075C10.492,1.627,7.536-.57,4.482.13,1.439.854-.51,4.229.118,7.677L71.4,394.953a5.856,5.856,0,0,0,5.5,5.068,4.816,4.816,0,0,0,1.17-.135c3.032-.712,4.992-4.1,4.354-7.535Z" transform="translate(2781.104 2000.108)"/>
  <path id="Fill_170" data-name="Fill 170" class="cls-8" d="M82.544,0a82.544,82.544,0,1,0,82.544,82.544A82.545,82.545,0,0,0,82.544,0" transform="translate(2781.104 2476.324)"/>
  <path id="Fill_172" data-name="Fill 172" class="cls-9" d="M139.335,114.449c-28.687,0-65.355-23.345-65.729-23.587a7.132,7.132,0,0,0-5.428-.905,6.65,6.65,0,0,0-4.319,3.211L53.97,111.142l-13.718-9.959,16.194-12.24a6.022,6.022,0,0,0-.271-9.959C18.463,53.382,13.422,6.172,13.37,5.7,13.035,2.249,9.515-.3,6.1.028A6.418,6.418,0,0,0,.026,6.836C.232,8.864,5,54.6,41.529,84.1L25.258,96.4a6.033,6.033,0,0,0,.1,9.838l26.766,19.434a7.025,7.025,0,0,0,4.113,1.316,7.323,7.323,0,0,0,1.444-.145,6.664,6.664,0,0,0,4.513-3.259l10.211-18.553c12.6,7.194,41.541,21.957,66.928,21.957a6.285,6.285,0,1,0,0-12.542" transform="translate(1752.477 2603.315)"/>
  <path id="Fill_174" data-name="Fill 174" class="cls-9" d="M101.255,5.589A6.459,6.459,0,0,0,88.426,7.076C90.8,26.823,75.808,56.638,75.659,56.942a6.269,6.269,0,0,0,2.825,8.447l6.471,3.267L79.466,75.6l-5.4-5.851a6.644,6.644,0,0,0-5.139-2.1,6.558,6.558,0,0,0-4.89,2.609c-19.026,25.695-56.9,25-57.4,25A6.27,6.27,0,0,0,0,101.421a6.37,6.37,0,0,0,6.259,6.509c.137,0,.5.012,1.083.012,6.595,0,40.229-1.17,62.142-24.257l5.55,6.021a6,6,0,0,0,5.027,2.1,6.466,6.466,0,0,0,4.865-2.45L99.948,70.4a6.21,6.21,0,0,0,1.195-5.241,6.371,6.371,0,0,0-3.335-4.266l-7.9-3.986C94.56,46.4,103.432,23.5,101.255,5.589" transform="translate(2850.949 2565.217)"/>
  <path id="Fill_176" data-name="Fill 176" class="cls-15" d="M2.1,4.138c-3.986,5.425-1.065,12.9-1.065,12.9C12.484,31.748,64.354,31.748,64.354,31.748l43.588-26.6S9.351-5.731,2.1,4.138" transform="translate(1866.768 1758.825)"/>
  <path id="Fill_178" data-name="Fill 178" class="cls-18" d="M447.555,68.815C460.118,1.939,371.067-3.262,307.7,1.177S0,46.16,0,109.19c0,49.894,76.055,71.557,156.912,77.967s249.119,46.979,290.643,0-12.562-51.466,0-118.342" transform="translate(3981.169 3397.008)"/>
  <path id="Fill_180" data-name="Fill 180" class="cls-19" d="M43.514,11.947C37.232,10.3,23.168,13.6,23.168,13.6S31.714,2.485,25.683.281.25,9.434,0,9.763L6.6,13.6,50.8,31.748s-1-18.146-7.283-19.8" transform="translate(2800.152 1161.967)"/>
  <path id="Fill_182" data-name="Fill 182" class="cls-19" d="M41.92,0,11.835.571S-5.553,29.509,1.823,47.253s123.85,92.437,123.85,92.437l45.764-45.273-37-47.684Z" transform="translate(2749.356 1187.365)"/>
  <path id="Fill_184" data-name="Fill 184" class="cls-13" d="M232.943,83.532,63.48.48a4.64,4.64,0,0,0-4.3.1L2.8,31.433A5.118,5.118,0,0,0,.206,35.425L.029,37.047a5.178,5.178,0,0,0,2.784,5.215l171.9,84.249a4.64,4.64,0,0,0,4.3-.1l53.664-29.493a4.414,4.414,0,0,0,2.251-3.9V86.825a3.633,3.633,0,0,0-1.991-3.294" transform="translate(2698.56 1161.967)"/>
  <path id="Fill_186" data-name="Fill 186" class="cls-9" d="M187.977,64.213,53.51.441a4.453,4.453,0,0,0-4.032.087L1.08,26.336a2.078,2.078,0,0,0,.085,3.689L137.241,94.812a4.53,4.53,0,0,0,4.032-.087l47.151-25.153c2.422-1.461,3.221-3.59-.448-5.36" transform="translate(2711.259 1168.317)"/>
  <path id="Fill_188" data-name="Fill 188" class="cls-19" d="M47.18,70.752C19.711,53.247,23.819,26.891,27.6,18.993,29.838,14.294,31.215-.431,22.339.01S-3.776,32.754.741,49.786c6.68,25.2,64.953,32.765,46.439,20.966" transform="translate(2806.502 1206.414)"/>
  <path id="Fill_190" data-name="Fill 190" class="cls-13" d="M393.908,118.554c-18.79-5.908-23.668-39.29-43.009-50.617s-77.378-4.37-88.175-12.694-25-25.193-41.955-44.343S198.8-1.233,198.779,24.644s11.624,84.976-6.747,119.47L167.394,171.8C-95.143,382.711,47.306,611.812,41.506,615.45S-3.372,643.486.235,660.11s46.5-2.893,76.827-16.649S157.771,654.2,193.77,654.85,296.613,702.159,318.495,704.6,347,686.78,340.269,671.877s-84.113-19.273-85.707-39.717,14.812-40.279,17.951-82.169c2.289-30.526-15.375-57.147-25.154-69.377-3.883-4.479-6.208-7.177-6.208-7.177s2.576,2.624,6.208,7.177c16.082,18.516,59.666,68.315,83.418,91.811,15.806,15.611,36.79,10.314,45.358,1.1s-.575-21.909-17.939-25.022-49.54-99.977-82.327-166.645-32.763-92.532-32.763-92.532,14.308-49.213,27.047-58.221,34.716-8.129,98.565,5.224,67.635-92.654,60.4-106.69c-4.482-8.69-16.418-5.175-35.208-11.083" transform="translate(3993.868 2857.297)"/>
  <path id="Fill_192" data-name="Fill 192" class="cls-13" d="M6.35,6.35C2.643,2.322,0,0,0,0L6.35,6.35" transform="translate(4241.501 3333.513)"/>
  <path id="Fill_194" data-name="Fill 194" class="cls-13" d="M28.572,57.148A28.567,28.567,0,0,1,7.84,8.922,28.337,28.337,0,0,1,27.806.025c.4-.016.809-.025,1.209-.025A27.268,27.268,0,0,1,48.236,7.842a28.575,28.575,0,0,1-18.9,49.294C29.087,57.148,28.824,57.148,28.572,57.148Zm.011-45.071c-.074,0-.149,0-.223.006s-.149.006-.223.006a16.5,16.5,0,0,0,.434,32.985h.446a16.5,16.5,0,0,0-.434-33Z" transform="translate(2869.999 1758.823)"/>
  <path id="Fill_196" data-name="Fill 196" class="cls-20" d="M0,0,28.512,36.051l193.723,84.59S95.7,45.123,69.386,29.506,0,0,0,0" transform="translate(2857.299 1771.524)"/>
  <path id="Fill_198" data-name="Fill 198" class="cls-19" d="M34.948,0,0,38.181c10.028,55.586,10.174,97.684,32.977,125,18.521,22.186,21.182,8.526,8.238-16.056-5.4-10.254,15.932-15.022,19.742-4.075,1.923,5.5,2.855,13.7,1.9,25.835-3.726,47.364,8.456,40.321,12.012,40.224s37.44-72.262,32.6-93.609S54.521,53.19,34.948,0" transform="translate(3879.577 1962.01)"/>
  <path id="Fill_200" data-name="Fill 200" class="cls-21" d="M2.255,150.955c49.458,208.888,420.227,95.438,545.44,53.468,158.359-53.076,394.987,25.007,392.012-91.213S-53.313-83.737,2.255,150.955" transform="translate(2781.104 3422.406)"/>
  <path id="Fill_202" data-name="Fill 202" class="cls-19" d="M32.487,0C1.161,80.645-5.278,105,3.737,140.94s15.491,23.385,28.653,40.637c10.769,14.105,2.048,26.31,5.63,39.205s20.251,69.6,69.08,89.382-7.58-271-7.58-271Z" transform="translate(3270.02 692.101)"/>
  <path id="Fill_204" data-name="Fill 204" class="cls-13" d="M211.891,1.263c-1.347,1-134.982,99.523-209.707,165.281a6.384,6.384,0,0,0-.551,9.07,6.506,6.506,0,0,0,9.157.546C85.1,110.779,218.281,12.579,219.615,11.6a6.4,6.4,0,0,0,1.334-9.009,6.522,6.522,0,0,0-9.059-1.323" transform="translate(2901.745 1600.086)"/>
  <path id="Fill_206" data-name="Fill 206" class="cls-9" d="M0,76.195s34.48-7.959,43.022-14.112S76.195,0,76.195,0L43.676.867Z" transform="translate(3504.953 3485.902)"/>
  <path id="Fill_208" data-name="Fill 208" class="cls-13" d="M.919,122.483s41.49,11.455,49.151-2.155L57.146,0,0,5.773Z" transform="translate(3568.448 3460.503)"/>
  <path id="Fill_210" data-name="Fill 210" class="cls-5" d="M205.045,0,131.591,1.488S82.44,124.857,55.932,135.249C-11.624,161.726-.7,179.028,2.916,189.555s76.1,21.349,91.467,5.989,51.649-75.975,62.41-77.524,53.25-7.649,59.862-15.175,6.193-25.579,4.568-44.53S205.045,0,205.045,0" transform="translate(3416.059 3377.959)"/>
  <path id="Fill_212" data-name="Fill 212" class="cls-13" d="M1.137,126.05s43.566,4.223,49.127-5.219L57.146,0,0,5.927Z" transform="translate(3098.582 3498.601)"/>
  <path id="Fill_214" data-name="Fill 214" class="cls-5" d="M243.493,0l-95.07,1.945s-57.452,124.2-83.8,133.483C-4.895,159.93-1.1,185.7.748,196.616c3.87,22.79,140.959,11.5,155.994-3.78s36.485-68.026,48.928-73.127c9.863-4.049,42.718-9.921,49.193-17.407s6.077-25.444,4.473-44.295S243.493,0,243.493,0" transform="translate(2901.745 3422.406)"/>
  <path id="Fill_216" data-name="Fill 216" class="cls-8" d="M131.878,26.766S1.989-28.151.022,19.34s126.148,332.51,131.3,345.975c4.9,12.827,106.483-18.928,96.578-40.151s-96.026-298.4-96.026-298.4" transform="translate(3727.187 1644.533)"/>
  <path id="Fill_218" data-name="Fill 218" class="cls-16" d="M32.752,483.185c41.8,32.2,170.434-81.837,170.434-81.837C112.273,269.144,0,0,0,0S.978,458.71,32.752,483.185" transform="translate(3701.789 1269.909)"/>
  <path id="Fill_220" data-name="Fill 220" class="cls-13" d="M42.133.723c-.2.11-20.815,10.888-38.013,15.113-3.017.746-4.766,3.442-3.9,6.029A5.617,5.617,0,0,0,5.677,25.4a7.081,7.081,0,0,0,1.567-.184C25.966,20.612,47.189,9.5,48.091,9.034c2.673-1.408,3.51-4.409,1.857-6.7A6.235,6.235,0,0,0,42.133.723" transform="translate(3771.634 1752.475)"/>
  <path id="Fill_222" data-name="Fill 222" class="cls-8" d="M69.793,613.806c66.391,351.024,78.14,629.755,93.725,740.319.968,6.839,28.3,11.027,28.3,11.027L215.885,0,0,16.425S-1.185,238.542,69.793,613.806" transform="translate(3352.563 2076.302)"/>
  <path id="Fill_224" data-name="Fill 224" class="cls-9" d="M.881,562.946c7.488,102.313,70.29,808.5,70.29,808.5s88.3,2.139,86.185-20.538C140.411,1169.314,163.44,690,163.9,525.127S260.332,0,260.332,0L36.114,17.427S-6.607,460.633.881,562.946" transform="translate(3460.506 2063.603)"/>
  <path id="Fill_226" data-name="Fill 226" class="cls-8" d="M.319,610.2C8.3,779.951-1.3,1293.388,19.677,1513.319c.9,9.458,49.831,16.922,49.831,16.922L71.465,608.3,292.079,11.159,164.035,0S-8.388,424.946.319,610.2" transform="translate(3009.688 1955.661)"/>
  <path id="Fill_228" data-name="Fill 228" class="cls-9" d="M186.312,0S12.964,300.317.679,521.265c-5.54,99.721,24.658,907.362,24.658,907.362s95.326,1.554,93.81-21.979c-5.453-84.518,33.651-752.11,55.228-871.612S469.867,168.392,469.867,168.392l-28.446-93.1Z" transform="translate(3054.135 2050.904)"/>
  <path id="Fill_230" data-name="Fill 230" class="cls-13" d="M119.835,4.274C119.126,4.345,49.675,11.283,8.2.22A6.514,6.514,0,0,0,.236,4.581a6.241,6.241,0,0,0,4.526,7.707c19.815,5.284,44.939,6.761,66.772,6.761,26.432,0,48.045-2.163,49.66-2.317a6.322,6.322,0,0,0,5.761-6.891,6.492,6.492,0,0,0-7.119-5.567" transform="translate(3092.232 2533.469)"/>
  <path id="Fill_232" data-name="Fill 232" class="cls-13" d="M114.139,20.206C43.718,17.285,10.689.992,10.366.829A7.6,7.6,0,0,0,.98,2.79C-.957,5.515.063,9.057,3.291,10.7c1.42.73,35.869,17.961,110.164,21.045h.349c3.628,0,6.65-2.409,6.83-5.493.181-3.182-2.724-5.885-6.495-6.049" transform="translate(3073.183 2571.567)"/>
  <path id="Fill_234" data-name="Fill 234" class="cls-13" d="M118.967.231C69.479,13.155,8.061,3.132,7.449,3.018A6.375,6.375,0,0,0,.1,7.96a6.092,6.092,0,0,0,5.156,7.029,358.777,358.777,0,0,0,54.308,4.059c19.558,0,41.945-1.663,62.75-7.11a6.034,6.034,0,0,0,4.449-7.454A6.344,6.344,0,0,0,118.967.231" transform="translate(3479.554 2584.266)"/>
  <path id="Fill_236" data-name="Fill 236" class="cls-13" d="M131.81,8.467C52.933,21.435,10.3.944,9.879.742A6.948,6.948,0,0,0,.8,3.329a6.072,6.072,0,0,0,2.753,8.5c1.408.712,27.768,13.574,77.3,13.574a327.451,327.451,0,0,0,53.291-4.556,6.317,6.317,0,0,0,5.442-7.273,6.675,6.675,0,0,0-7.776-5.1" transform="translate(3473.206 2603.315)"/>
  <path id="Fill_238" data-name="Fill 238" class="cls-16" d="M311.523.124c-22.276-5.08-46.285,147.1-46.564,172.11C261.118,513.038,0,1149.743,0,1149.743s634.681,115.429,765.622,177.313c0,0,22.7-877.835-64.174-1179.024,0,0-175.977-99.172-389.925-147.907" transform="translate(3003.338 1022.277)"/>
  <path id="Fill_240" data-name="Fill 240" class="cls-13" d="M441.274,440.12c-11.2-49.691,56.284-88.042,35.7-151.073-7.353-22.535-17.517-22.327-31.782-56.191-20.427-48.52-21.593-50.179-40.89-101.87C392.233,98.673,292.9-56.241,136.937,21.643c-295.916,147.781-20.77,249.931-16.277,300.073,17.665,197.215,97.751,86.956,113.206,152.768,8.421,35.814-24.969,45.033-13.921,99.967,7.525,37.473,38.8,50.215,46.009,93.59,6.322,38.168-29.6,55.105-25.386,80.006,12.092,71.494,345.559,151.4,426.013,18.852,32.383-53.361,22.133-138.7-18.659-193.862C586.4,489.811,456.128,506.042,441.274,440.12" transform="translate(3238.271 577.809)"/>
  <path id="Fill_242" data-name="Fill 242" class="cls-22" d="M231.163.521a6.37,6.37,0,0,0-8.326,3.186C187.361,82.958,79.6,168.193,27.8,209.152c-15.567,12.3-23.178,18.364-26.232,21.8a6.156,6.156,0,0,0,.585,8.782,6.375,6.375,0,0,0,8.923-.576c2.457-2.763,12.239-10.5,24.621-20.292C88.28,177.292,197.679,90.776,234.4,8.739A6.206,6.206,0,0,0,231.163.521" transform="translate(3174.776 1466.745)"/>
  <path id="Fill_244" data-name="Fill 244" class="cls-13" d="M208.683.134a6.446,6.446,0,0,0-4.937,7.624C239.653,181.074,100.455,506.571,8.339,721.96l-7.815,18.3a6.468,6.468,0,0,0,3.323,8.463,6.245,6.245,0,0,0,2.529.523,6.344,6.344,0,0,0,5.852-3.879l7.827-18.3C112.8,510.195,252.971,182.436,216.233,5.12a6.443,6.443,0,0,0-7.55-4.986" transform="translate(3244.621 1155.618)"/>
  <path id="Fill_246" data-name="Fill 246" class="cls-19" d="M5.266,1.939C.922,5.241-.873,11.931.4,18.018L15.847,91.763c-7.276,11.077,28.517-1.8,11.032-75.179-1.667-7-12.052-21.89-21.613-14.645" transform="translate(3339.865 831.791)"/>
  <path id="Fill_248" data-name="Fill 248" class="cls-13" d="M268.774,928.16c-.488.316-12.086,7.787-30.765,2.506C216.1,924.485,182.12,900.078,144.7,818.884c-30.044-65.181-36.686-207.759-43.718-358.7C91.486,256.286,81.67,45.449,10.4,1.026a6.784,6.784,0,1,0-7.2,11.5c65.216,40.639,75.313,257.22,84.2,448.3,7.105,152.288,13.8,296.143,44.951,363.721,31.986,69.391,66.5,109.543,102.61,119.338a60.8,60.8,0,0,0,16.017,2.2c15.529,0,25-6.412,25.515-6.765a6.752,6.752,0,0,0,1.709-9.357,6.841,6.841,0,0,0-9.425-1.8" transform="translate(3917.674 2108.05)"/>
  <path id="Fill_250" data-name="Fill 250" class="cls-23" d="M41.46,0S-20.747,237.507,7.235,228.324s138.8-203.1,138.8-203.1S122.584,13.037,100.181,8.079,41.46,0,41.46,0" transform="translate(3155.727 1904.864)"/>
  <path id="Fill_252" data-name="Fill 252" class="cls-5" d="M36.493,0S-17.135,180.7,5.63,235.8c36.942,89.427,255.388,166.5,325.885,116.931,47.55-33.438,35.358-228.682,35.358-228.682C278.252,102.427,66.6,26.156,36.493,0" transform="translate(2831.9 1771.524)"/>
  <path id="Fill_254" data-name="Fill 254" class="cls-3" d="M28.4,12.141C15.519,5.081,8.15.7,8.1.675,5.339-.946,1.921.44.569,3.891s-.192,7.583,2.619,9.243c0,0,7.486,4.458,20.615,11.662a4.842,4.842,0,0,0,2.3.6,5.718,5.718,0,0,0,5.154-4.105c1.267-3.491,0-7.583-2.854-9.152" transform="translate(2863.648 1815.971)"/>
  <path id="Fill_256" data-name="Fill 256" class="cls-3" d="M53.188,15.353C36.926,10.174,21.844,5.093,8.367.384,5.284-.693,1.732.57.448,3.223-.813,5.877.677,8.9,3.783,9.988c13.58,4.738,28.777,9.859,45.176,15.077a6.817,6.817,0,0,0,2.109.333,6.139,6.139,0,0,0,5.7-3.378c1.169-2.683-.435-5.669-3.576-6.667" transform="translate(2927.144 1835.02)"/>
  <path id="Fill_258" data-name="Fill 258" class="cls-3" d="M52.851,14.013C38.276,9.893,23.128,5.28,7.845.294A6.006,6.006,0,0,0,.31,3.954a5.778,5.778,0,0,0,3.756,7.353c15.441,5.03,30.746,9.687,45.467,13.862a6.22,6.22,0,0,0,1.664.23,5.946,5.946,0,0,0,5.713-4.186,5.793,5.793,0,0,0-4.06-7.2" transform="translate(3028.736 1885.816)"/>
  <path id="Fill_260" data-name="Fill 260" class="cls-3" d="M27.435,5.867Q17.031,3.247,6.617.187C3.692-.68.828,1.556.148,5.138s1.107,7.163,3.991,8q10.572,3.091,21.154,5.768a4.534,4.534,0,0,0,1.087.138c2.5,0,4.732-2.174,5.261-5.341.589-3.594-1.29-7.112-4.2-7.841" transform="translate(3123.98 1917.563)"/>
  <path id="Fill_262" data-name="Fill 262" class="cls-13" d="M28.571,57.145A28.569,28.569,0,0,1,27.817.016c.319-.011.639-.016.956-.016A28.1,28.1,0,0,1,48.566,8.118,28.586,28.586,0,0,1,29.343,57.133C29.086,57.145,28.834,57.145,28.571,57.145Zm-.434-45.077a16.507,16.507,0,0,0,.434,33.007h.446a16.507,16.507,0,0,0-.434-33.007Z" transform="translate(3219.225 1879.468)"/>
  <path id="Fill_264" data-name="Fill 264" class="cls-8" d="M61.993,0S-9.39,33.691,1.041,60.138L255.835,368.274l48.944-123.247S94.938,31.221,61.993,0" transform="translate(2850.949 1269.909)"/>
  <path id="Fill_266" data-name="Fill 266" class="cls-16" d="M260.28,10.644C155.856,129.837,66.416,296.293,14.893,280.288c-25.7-7.984-13.838,247.894,3.353,246.72,86.355-5.855,306.151-233.9,340.776-415.1C379.737,3.543,283.567-15.946,260.28,10.644" transform="translate(3098.582 1174.667)"/>
  <path id="Fill_268" data-name="Fill 268" class="cls-5" d="M579.484,6.855C538.446,29.22,332.391,66.724,276.711,78.323S63.316,120.1,31.788,138.254-.143,169.279.016,180.609c.3,21.079,26.359,36.255,42.33,62.025,24.6,39.721,47.609,90.895,66.421,79.6C129.7,309.657,242.122,181.65,351.984,155.623s291.63-5.536,327.547-24.95C704.183,117.347,647.686,68.6,646.552,57.8,642.7,20.9,620.522-15.511,579.484,6.855" transform="translate(3155.728 958.782)"/>
  <path id="Fill_270" data-name="Fill 270" class="cls-5" d="M25.442,0,0,28.917C2.8,59.3,54.769,101.228,89.764,120.641l18.178-29.784S39.462,49.185,25.442,0" transform="translate(4171.656 3003.336)"/>
  <path id="Fill_272" data-name="Fill 272" class="cls-3" d="M97.275,3.507C62.4-6.87,28.378,8.219,8.078,17.243L3.593,19.219C.321,20.656-.942,24.027.751,26.774s5.76,3.783,9.032,2.377l4.573-2.018C33.9,18.448,63.471,5.335,92.8,14.063c23.206,6.879,43.19,26.639,59.448,58.719a6.81,6.81,0,0,0,6.152,3.413,8.035,8.035,0,0,0,2.615-.444c3.4-1.2,4.977-4.491,3.537-7.333C146.807,33.326,124.17,11.495,97.275,3.507" transform="translate(4133.559 3314.464)"/>
  <path id="Fill_274" data-name="Fill 274" class="cls-5" d="M3.217.3C-8.166,5.747,13.423,22.7,25.063,25.4c0,0,1.392-17.119-1.5-20.157S5.975-1.014,3.217.3" transform="translate(4419.289 2984.288)"/>
  <path id="Fill_276" data-name="Fill 276" class="cls-22" d="M11.461,5.018C10.545,1.3,7.3-.815,4.195.3S-.675,5.3.241,9L26.635,115.628c.751,3.042,3.081,5.013,5.61,5.013a4.815,4.815,0,0,0,1.657-.291c3.1-1.1,4.87-5,3.954-8.7Z" transform="translate(3111.281 1473.095)"/>
  <path id="Fill_278" data-name="Fill 278" class="cls-22" d="M10.771,2.6a5.857,5.857,0,0,0-8.187-1.57A5.961,5.961,0,0,0,1.025,9.288l26.3,38.907a5.867,5.867,0,0,0,8.2,1.57,5.96,5.96,0,0,0,1.548-8.255Z" transform="translate(3149.378 1473.095)"/>
  <path id="Fill_280" data-name="Fill 280" class="cls-22" d="M6.923,0C2.913.17-.181,3.022.008,6.37,6.356,111.483,4.075,177.224,4.046,177.889c-.116,3.335,3.05,6.139,7.06,6.236a1.592,1.592,0,0,0,.232.012c3.922,0,7.161-2.6,7.292-5.885.015-.653,2.324-66.829-4.067-172.5C14.374,2.418,11.266-.059,6.923,0" transform="translate(3765.284 1530.241)"/>
  <path id="Fill_282" data-name="Fill 282" class="cls-9" d="M6.35,0C2.848,0,0,1.424,0,3.175S2.848,6.35,6.35,6.35,12.7,4.937,12.7,3.175,9.851,0,6.35,0" transform="translate(2895.396 1250.861)"/>
  <path id="Fill_284" data-name="Fill 284" class="cls-23" d="M498.894.589c-32.361,15.027-80.493,19.5-141.4,25.144-24.848,2.3-53.006,4.923-83.2,8.541C197.715,43.46,119.2,85.582,61.87,116.333c-22.6,12.12-42.122,22.585-57.8,29.2a7.007,7.007,0,0,0-3.616,8.9,6.49,6.49,0,0,0,6.01,4.3,6.345,6.345,0,0,0,2.407-.478C25.1,151.4,44.853,140.8,67.721,128.543,124.173,98.257,201.477,56.781,275.74,47.879c30.04-3.6,58.113-6.215,82.875-8.515,62.107-5.75,111.156-10.3,145.483-26.242A7.026,7.026,0,0,0,507.421,4.1,6.323,6.323,0,0,0,498.894.589" transform="translate(3244.621 1041.326)"/>
  <path id="Fill_286" data-name="Fill 286" class="cls-23" d="M199.892.8C150.148,27.46,6.715,51.573,5.274,51.806A5.959,5.959,0,0,0,.1,58.657,6.3,6.3,0,0,0,6.4,63.5a6.838,6.838,0,0,0,1.162-.1c5.982-.99,147.1-24.713,198.784-52.418a5.645,5.645,0,0,0,2.325-8.052A6.754,6.754,0,0,0,199.892.8" transform="translate(3568.448 996.879)"/>
</svg>
