<?xml version="1.0"?>
<svg width="159.5" height="49.2" xmlns="http://www.w3.org/2000/svg" xmlns:svg="http://www.w3.org/2000/svg" style="vector-effect: non-scaling-stroke;">
 <style style="vector-effect: non-scaling-stroke;" type="text/css">.st0{fill:#104B84;}
	.st1{fill:#5191CD;}
	.st2{fill:#2364B0;}
	.st3{fill:#4D4D4F;}</style>
 <title style="vector-effect: non-scaling-stroke;">logo</title>
 <g class="layer">
  <title>Layer 1</title>
  <path class="st0" d="m41.7,24.75c-0.3,-0.9 -0.2,-1.8 0.3,-2.6c1.8,-3.2 2.3,-7 1.2,-10.5l-0.2,-0.3l-0.2,-0.3c-3.5,-5.9 -8.2,-9.3 -13.9,-10.1c-9.5,-1.4 -18.9,5.3 -22.5,8.2c-0.5,0.4 -2.3,2 -2.4,3.7l0,29c0,1.6 1.3,2.9 2.8,2.9c0,0 0,0 0,0l0.2,0c1.6,0 2.9,-1.3 2.9,-2.8c0,0 0,0 0,0l0,-26.6c0,-0.9 0.4,-1.7 1.1,-2.3c3.8,-3 10.9,-7.1 17,-6.3c3.6,0.5 6.6,2.7 9.2,6.6c0.2,0.3 0.4,0.7 0.4,1.1c0.4,2.2 -0.4,4.5 -2.2,6l-0.1,0.1c-1,0.9 -1.3,2.4 -0.7,3.5l0,0.1c1.5,2.8 4.9,11.1 2.4,15.8c-1.2,2.2 -3.7,3.5 -7.5,4c-0.3,0 -0.5,0 -0.8,0c-2.1,-0.3 -6.2,-1.5 -7.7,-4.3c-1.2,-2.2 -0.7,-5.3 1.3,-9.2l0,-0.1c0.5,-0.9 0.4,-1.9 -0.1,-2.8l0,-0.1c-0.6,-1.1 -2.1,-4.7 -1.2,-7.4c0.4,-1 1,-1.8 1.9,-2.4c1.1,-0.7 1.6,-2.1 1.1,-3.4l-0.1,-0.3c-0.6,-1.5 -2.2,-2.2 -3.7,-1.7c-0.2,0.1 -0.4,0.2 -0.6,0.3c-2,1.3 -3.4,3.2 -4.2,5.4c-1,3.2 -0.8,6.7 0.5,9.8c0.2,0.7 0.2,1.4 0,2.1c-1.9,4.7 -2,8.9 -0.1,12.3c3.6,6.5 12.7,7.4 13.1,7.5l0.3,0l0.3,0c6.4,-0.6 10.7,-3 13,-7.2c3.2,-5.6 1,-13.3 -0.8,-17.7z" fill="black" id="svg_1"/>
  <path class="st2" d="m118.35,20.85c1.6,3.1 0.3,6.9 -2.9,8.5c-2.1,1.1 -4.7,0.8 -6.6,-0.6l0,7.6l-2.5,0l0,-12.7c0,-3.5 2.9,-6.3 6.4,-6.3c2.3,0 4.5,1.3 5.6,3.5zm-1.9,2.8c0,-2.1 -1.7,-3.8 -3.8,-3.8c-2.1,0 -3.8,1.7 -3.8,3.8s1.7,3.8 3.8,3.8c0,0 0,0 0,0c2.1,0 3.8,-1.7 3.8,-3.8z" fill="black" id="svg_6"/>
  <path class="st2" d="m120.25,30.1l0,-20.000001l2.5,0l0,20.000001l-2.5,0z" fill="black" id="svg_7"/>
  <path class="st2" d="m138.25,17.35l0,6.3c0,3.5 -2.8,6.4 -6.3,6.4c-3.5,0 -6.4,-2.8 -6.4,-6.3s2.8,-6.4 6.3,-6.4c1.4,0 2.7,0.4 3.8,1.3l0,-1.3l2.6,0zm-6.3,10.1c2.1,0 3.8,-1.7 3.8,-3.8c0,-2.1 -1.7,-3.8 -3.8,-3.8c-2.1,0 -3.8,1.7 -3.8,3.8s1.7,3.8 3.8,3.8c0,0 0,0 0,0z" fill="black" id="svg_8"/>
  <path class="st2" d="m141.55,30l0,-7c0,-3.1 2.6,-5.7 5.7,-5.7c3.1,0 5.7,2.6 5.7,5.7l0,7l-2.5,0l0,-7c0.1,-1.7 -1.2,-3.2 -3,-3.3c-1.7,-0.1 -3.2,1.2 -3.3,3c0,0.1 0,0.2 0,0.4l0,7l-2.6,0l0,-0.1z" fill="black" id="svg_9"/>
  <path d="m67.254814,26.405357c-1.513385,3.241512 -5.107891,4.600794 -8.039998,2.92758c-1.986457,-1.150267 -3.310761,-3.450527 -3.310761,-5.855432l0,-13.279162l2.364618,0l0,7.946677c2.648609,-2.195889 6.432195,-1.56857 8.418405,1.359282c1.324304,1.88223 1.513632,4.600794 0.567735,6.901055zm-1.79713,-3.032224c0,-2.195889 -1.608049,-3.973475 -3.594506,-3.973475c-1.986457,0 -3.594259,1.777586 -3.594259,3.973475s1.607802,3.973475 3.594259,3.973475l0,0c1.986457,-0.000273 3.594506,-1.777586 3.594506,-3.973475z" fill="#2364B0" id="svg_36" stroke-width="0"/>
  <path d="m72.207482,24.342721c0.274718,2.114141 2.106331,3.523568 4.029595,3.120837c0.824154,-0.100748 1.556895,-0.603965 2.106331,-1.308679l2.289396,0.90621c-1.648547,3.020088 -5.311533,3.926036 -7.967539,2.013392c-1.556895,-1.006696 -2.564353,-2.818854 -2.655767,-4.731498c0,-0.201497 0,-0.402731 0,-0.603965c0,-0.301983 0,-0.704714 0.091652,-1.006696c0,-0.301983 0.091652,-0.603965 0.183304,-0.905948c0.183066,-0.503217 0.36637,-1.006696 0.641088,-1.509913c1.648547,-3.020088 5.22012,-3.926036 7.967539,-2.114141c1.740199,1.20793 2.747419,3.221323 2.747419,5.436212c0,0.201497 0,0.402731 0,0.603965l-9.43302,0.100224zm0.366132,-2.617357l6.044274,0c-1.007459,-1.812158 -3.113789,-2.416123 -4.762097,-1.409427c-0.36637,0.201497 -0.641088,0.503217 -0.915806,0.805462c-0.091414,0.30172 -0.274718,0.402469 -0.36637,0.603965z" fill="#2364B0" id="svg_37"/>
  <path d="m86.247284,21.489479c0,0.671404 0.586454,1.246821 1.172398,1.246821l0,0l2.735935,0c0.195315,0 0.488414,0 0.683984,0.095736c2.05246,0.383695 3.322643,2.30192 2.833974,4.316131c-0.39063,1.630266 -1.856382,2.877337 -3.614978,2.877337l-5.569909,0l0,-2.397906l5.569399,0c0.683984,-0.095986 1.172398,-0.671404 1.172398,-1.342807c-0.097785,-0.575417 -0.488669,-1.055099 -1.172398,-1.150835l-2.735935,0c-0.195315,0 -0.488414,0 -0.683984,-0.095986c-2.05246,-0.383695 -3.322643,-2.30167 -2.833974,-4.316131c0.39063,-1.630266 1.856382,-2.877337 3.614978,-2.877337l5.569399,0l0,2.397656l-5.569145,0c-0.683474,0.0005 -1.172143,0.575917 -1.172143,1.247321l0,0z" fill="#2364B0" id="svg_39"/>
  <path d="m99.495112,17.013901l4.055273,0l0,2.575141l-4.055273,0l0,3.914525c0,2.163311 1.814179,3.914525 4.055273,3.914525l0,0l0,2.575409c-3.735156,0 -6.723003,-2.884415 -6.723003,-6.489666l0,0l0,-12.979331l2.66773,0l0,6.489397z" fill="#2364B0" id="svg_38"/>
  <g id="svg_40">
   <path d="m60.573315,40.199416c0,0.796144 0,2.304974 0,3.101118c-0.27801,0 -0.555499,0 -0.833508,0c0,-0.796144 0,-2.304974 0,-3.101118c0,-0.395837 -0.27983,-0.715964 -0.625196,-0.715964s-0.624936,0.320127 -0.624936,0.715964c0,0.796144 0,2.304974 0,3.101118c-0.138875,0 -0.27801,0 -0.416884,0s-0.27801,0 -0.416884,0c0,-0.796144 0,-2.304974 0,-3.101118c0,-0.395837 -0.27983,-0.715964 -0.625196,-0.715964c-0.345366,0 -0.625196,0.320127 -0.625196,0.715964c0,0.796144 0,2.304974 0,3.101118c-0.27801,0 -0.555499,0 -0.833508,0c0,-0.796144 0,-2.304974 0,-3.101118c0,-1.496906 1.585877,-2.239398 2.500525,-1.169924c0.914909,-1.069474 2.500786,-0.327579 2.500786,1.169924z" fill="#4D4D4F" id="svg_41"/>
   <path d="m65.262548,38.8122l0,2.389327c0,1.319555 -0.933113,2.389029 -2.084421,2.389029c-1.151308,0 -2.084681,-1.069474 -2.084681,-2.389029s0.933113,-2.389327 2.084681,-2.389327c0.469938,0 0.902426,0.180332 1.250913,0.481085l0,-0.481085l0.833508,0zm-2.084421,3.823341c0.689693,0 1.250913,-0.642937 1.250913,-1.434014s-0.56122,-1.434312 -1.250913,-1.434312c-0.689953,0 -1.251173,0.642937 -1.251173,1.434312c0,0.790481 0.56122,1.434014 1.251173,1.434014z" fill="#4D4D4F" id="svg_42"/>
   <path d="m67.565684,41.205402l2.089623,2.385154l-1.181215,0l-1.482371,-1.692142l0,1.692142l-0.833508,0l0,-7.151886l0.833508,0l0,4.073422l1.482371,-1.69244l1.181215,0l-2.089623,2.38575z" fill="#4D4D4F" id="svg_43"/>
   <path d="m70.54915,43.591152l0,-4.775972l0.833508,0l0,4.775972l-0.833508,0z" fill="#4D4D4F" id="svg_44"/>
   <path d="m72.271821,43.590556l0,-2.646562c0,-1.186914 0.83949,-2.149381 1.875329,-2.149381s1.875329,0.962467 1.875329,2.149381l0,2.646562l-0.833508,0l0,-2.646562c0,-0.658436 -0.467337,-1.194068 -1.041821,-1.194068s-1.041821,0.535631 -1.041821,1.194068l0,2.646562l-0.833508,0z" fill="#4D4D4F" id="svg_45"/>
   <path d="m80.26258,43.542567c0,-0.158871 0,-0.318339 0,-0.477806c-1.75908,1.512108 -4.097325,-0.724906 -3.114019,-2.978611c0.983306,-2.254302 3.947527,-1.452196 3.947527,1.067984c0,0.796144 0,1.591991 0,2.388433c0,1.319257 -0.932593,2.388433 -2.083641,2.388433c0,-0.318339 0,-0.636975 0,-0.955314c0.690473,-0.000596 1.250133,-0.641744 1.250133,-1.433119zm0,-2.388135c0,-0.791375 -0.55914,-1.432821 -1.250133,-1.432821s-1.250393,0.64085 -1.250393,1.432821s0.5594,1.433418 1.250393,1.433418c0.690473,-0.000596 1.250133,-0.641744 1.250133,-1.433418z" fill="#4D4D4F" id="svg_46"/>
   <path d="m89.143801,41.202719c0,0.796442 0,1.592289 0,2.388433c-0.27801,0 -0.555759,0 -0.833508,0c0,-0.796144 0,-1.591991 0,-2.388433c0,-0.791375 -0.55966,-1.433119 -1.250393,-1.433119c-0.690733,0 -1.250653,0.641148 -1.250653,1.433119c0,0.796442 0,1.592289 0,2.388433c-0.277489,0 -0.555759,0 -0.833508,0c0,-0.796144 0,-1.591991 0,-2.388433c0,-1.588116 0,-3.175933 0,-4.764049l0.833508,0c0,0.951141 0,1.902877 0,2.853422c1.374444,-1.180654 3.334554,-0.057527 3.334554,1.910627z" fill="#4D4D4F" id="svg_47"/>
   <path d="m90.884677,41.441771c0.099345,0.676916 0.612193,1.193769 1.231148,1.193769c0.385416,0 0.730003,-0.200303 0.95912,-0.514468l0.807242,0.343973c-0.367732,0.675128 -1.020495,1.125511 -1.766102,1.125511c-1.08083,0 -1.968692,-0.942497 -2.073499,-2.149083c-0.006502,-0.078988 -0.010663,-0.158275 -0.010663,-0.23935c0,-0.124891 0.011183,-0.246802 0.027047,-0.366626c0.016124,-0.11893 0.037969,-0.236667 0.068657,-0.349338c0.053313,-0.194043 0.129512,-0.377058 0.221835,-0.546362c0.368252,-0.675128 1.021015,-1.125213 1.766622,-1.125213c0.933113,0 1.722411,0.702252 1.988457,1.671277c0.061635,0.226235 0.095184,0.466479 0.095184,0.715964c0,0.080777 -0.003641,0.16066 -0.010403,0.23935l-3.304647,0.000596l0,0zm0.149277,-0.955314l2.163221,0c-0.215854,-0.428028 -0.619215,-0.716262 -1.08135,-0.716262c-0.385156,0 -0.730263,0.200303 -0.95912,0.514468c-0.046032,0.062297 -0.086862,0.130256 -0.122751,0.201793z" fill="#4D4D4F" id="svg_48"/>
   <path d="m99.256431,38.8122l0,2.389327c0,1.319555 -0.933113,2.389029 -2.084681,2.389029s-2.084941,-1.069474 -2.084941,-2.389029s0.933373,-2.389327 2.084941,-2.389327c0.470198,0 0.902686,0.180332 1.251173,0.481085l0,-0.481085l0.833508,0zm-2.084681,3.823341c0.689432,0 1.251173,-0.642937 1.251173,-1.434014s-0.56122,-1.434312 -1.251173,-1.434312c-0.689953,0 -1.251433,0.642937 -1.251433,1.434312c0.00052,0.790481 0.561741,1.434014 1.251433,1.434014z" fill="#4D4D4F" id="svg_49"/>
   <path d="m100.152355,43.591152l0,-7.152482l0.833508,0l0,7.152482l-0.833508,0z" fill="#4D4D4F" id="svg_50"/>
   <path d="m102.708274,38.813988c0.416884,0 0.833508,0 1.250393,0c0,0.31804 0,0.636677 0,0.955314c-0.416884,0 -0.833508,0 -1.250393,0c0,0.477806 0,0.955314 0,1.433119c0,0.791375 0.5594,1.433119 1.250393,1.433119c0,0.318339 0,0.636975 0,0.955016c-1.150788,0 -2.083901,-1.069176 -2.083901,-2.388135c0,-1.594375 0,-3.18875 0,-4.783424l0.833508,0c0,0.798529 0,1.59676 0,2.394991z" fill="#4D4D4F" id="svg_51"/>
   <path d="m109.019533,41.202719c0,0.796442 0,1.592289 0,2.388433c-0.277749,0 -0.555759,0 -0.833508,0c0,-0.796144 0,-1.591991 0,-2.388433c0,-0.791375 -0.55966,-1.433119 -1.250133,-1.433119c-0.690733,0 -1.250913,0.641148 -1.250913,1.433119c0,0.796442 0,1.592289 0,2.388433c-0.277489,0 -0.555499,0 -0.833508,0c0,-0.796144 0,-1.591991 0,-2.388433c0,-1.588116 0,-3.175933 0,-4.764049l0.833508,0c0,0.951141 0,1.902877 0,2.853422c1.374444,-1.180654 3.334554,-0.057527 3.334554,1.910627z" fill="#4D4D4F" id="svg_52"/>
   <path d="m117.063345,38.8122l0,2.389327c0,1.319555 -0.933373,2.389029 -2.084681,2.389029s-2.084681,-1.069474 -2.084681,-2.389029s0.933373,-2.389327 2.084681,-2.389327c0.469938,0 0.902426,0.180332 1.251173,0.481085l0,-0.481085l0.833508,0zm-2.084681,3.823341c0.689693,0 1.251173,-0.642937 1.251173,-1.434014s-0.56096,-1.434312 -1.251173,-1.434312s-1.251173,0.642937 -1.251173,1.434312c0,0.790481 0.56148,1.434014 1.251173,1.434014z" fill="#4D4D4F" id="svg_53"/>
   <path d="m118.792517,41.197652c0,1.276335 1.346877,1.915993 2.134354,1.012841c0.196349,0.225043 0.392958,0.450383 0.589567,0.676022c-1.312808,1.504656 -3.55743,0.438759 -3.55743,-1.688863c0,-2.128218 2.244621,-3.19352 3.55743,-1.688863c-0.196609,0.225043 -0.393218,0.450383 -0.589567,0.675724c-0.787477,-0.902555 -2.134354,-0.263196 -2.134354,1.013139z" fill="#4D4D4F" id="svg_54"/>
   <path d="m123.239629,41.197652c0,1.276335 1.347137,1.915993 2.134354,1.012841c0.196349,0.225043 0.393218,0.450383 0.589828,0.676022c-1.312808,1.504656 -3.55769,0.438759 -3.55769,-1.688863c0,-2.128218 2.244882,-3.19352 3.55769,-1.688863c-0.196609,0.225043 -0.393478,0.450383 -0.589828,0.675724c-0.787737,-0.902555 -2.134354,-0.263196 -2.134354,1.013139z" fill="#4D4D4F" id="svg_55"/>
   <path d="m127.705727,41.441771c0.099605,0.676916 0.612193,1.193769 1.231148,1.193769c0.385416,0 0.730003,-0.200303 0.95912,-0.514468l0.807242,0.343973c-0.367992,0.675128 -1.020755,1.125511 -1.766362,1.125511c-1.08057,0 -1.968692,-0.942497 -2.073499,-2.149083c-0.006502,-0.078988 -0.010403,-0.158275 -0.010403,-0.23935c0,-0.124891 0.011183,-0.246802 0.027047,-0.366626c0.016384,-0.11893 0.037969,-0.236667 0.068917,-0.349338c0.053313,-0.194043 0.129512,-0.377058 0.221835,-0.546362c0.367992,-0.675128 1.020755,-1.125213 1.766362,-1.125213c0.933113,0 1.722411,0.702252 1.988457,1.671277c0.061895,0.226235 0.095184,0.466479 0.095184,0.715964c0,0.080777 -0.003641,0.16066 -0.010143,0.23935l-3.304907,0.000596l0,0zm0.149537,-0.955314l2.163221,0c-0.216114,-0.428028 -0.619215,-0.716262 -1.081611,-0.716262c-0.385156,0 -0.730003,0.200303 -0.95912,0.514468c-0.046032,0.062297 -0.086602,0.130256 -0.122491,0.201793z" fill="#4D4D4F" id="svg_56"/>
   <path d="m132.741886,40.248002c0,0.263196 0.186987,0.477508 0.416884,0.477508l0.924011,0c0.083481,0 0.165661,0.009538 0.244461,0.028019c0.573183,0.130555 1.005151,0.709406 1.005151,1.404803c0,0.790779 -0.55914,1.432523 -1.249873,1.432523l-1.88001,0l0,-0.955314l1.88001,0c0.229637,0 0.416364,-0.214014 0.416364,-0.47721s-0.186727,-0.477508 -0.416364,-0.477508l-0.923751,0c-0.083481,0 -0.165922,-0.009836 -0.244721,-0.028019c-0.573443,-0.130555 -1.005151,-0.709704 -1.005151,-1.404803c0,-0.790779 0.55966,-1.432821 1.250133,-1.432821l1.88001,0l0,0.955314l-1.88001,0c-0.230418,0 -0.417144,0.214312 -0.417144,0.477508z" fill="#4D4D4F" id="svg_57"/>
   <path d="m137.057926,40.248002c0,0.263196 0.186727,0.477508 0.416364,0.477508l0.924011,0c0.083741,0 0.165922,0.009538 0.244721,0.028019c0.573443,0.130555 1.005411,0.709406 1.005411,1.404803c0,0.790779 -0.55966,1.432523 -1.250393,1.432523l-1.87949,0l0,-0.955314l1.87975,0c0.229637,0 0.416884,-0.214014 0.416884,-0.47721s-0.187247,-0.477508 -0.416884,-0.477508l-0.923491,0c-0.083741,0 -0.165661,-0.009836 -0.244721,-0.028019c-0.573443,-0.130555 -1.005151,-0.709704 -1.005151,-1.404803c0,-0.790779 0.5594,-1.432821 1.250133,-1.432821l1.88001,0l0,0.955314l-1.88001,0c-0.230418,0 -0.417144,0.214312 -0.417144,0.477508z" fill="#4D4D4F" id="svg_58"/>
   <path d="m140.540717,43.591152l0,-4.775972l0.833508,0l0,4.775972l-0.833508,0z" fill="#4D4D4F" id="svg_59"/>
   <path d="m146.210915,42.266828c-0.983306,2.254302 -3.947787,1.451898 -3.947787,-1.067984c0,-1.586923 0,-3.173251 0,-4.76077l0.833508,0c0,0.950246 0,1.899897 0,2.850143c1.75934,-1.51181 4.097585,0.724906 3.114279,2.978611zm-0.613754,-1.067984c0,-0.791375 -0.55966,-1.433418 -1.250653,-1.433418s-1.250393,0.641446 -1.250393,1.433418s0.5594,1.433119 1.250393,1.433119s1.250653,-0.641148 1.250653,-1.433119z" fill="#4D4D4F" id="svg_60"/>
   <path d="m147.337517,43.591152l0,-7.152482l0.833508,0l0,7.152482l-0.833508,0z" fill="#4D4D4F" id="svg_61"/>
   <path d="m149.912681,41.441771c0.099345,0.676916 0.612193,1.193769 1.231148,1.193769c0.385156,0 0.730003,-0.200303 0.95912,-0.514468l0.807242,0.343973c-0.367732,0.675128 -1.020755,1.125511 -1.766102,1.125511c-1.08057,0 -1.968692,-0.942497 -2.073759,-2.149083c-0.006242,-0.078988 -0.010403,-0.158275 -0.010403,-0.23935c0,-0.124891 0.011183,-0.246802 0.027047,-0.366626c0.016124,-0.11893 0.037709,-0.236667 0.068657,-0.349338c0.053053,-0.194043 0.129512,-0.377058 0.221835,-0.546362c0.367992,-0.675128 1.021015,-1.125213 1.766622,-1.125213c0.933113,0 1.722151,0.702252 1.988197,1.671277c0.062156,0.226235 0.095704,0.466479 0.095704,0.715964c0,0.080777 -0.004161,0.16066 -0.010403,0.23935l-3.304907,0.000596l0,0zm0.149537,-0.955314l2.162961,0c-0.216114,-0.428028 -0.619215,-0.716262 -1.08135,-0.716262c-0.385416,0 -0.730523,0.200303 -0.95912,0.514468c-0.045771,0.062297 -0.086342,0.130256 -0.122491,0.201793z" fill="#4D4D4F" id="svg_62"/>
  </g>
 </g>
</svg>