<?xml version="1.0" encoding="utf-8"?>
<!-- Generator: Adobe Illustrator 16.0.0, SVG Export Plug-In . SVG Version: 6.00 Build 0)  -->
<!DOCTYPE svg PUBLIC "-//W3C//DTD SVG 1.1//EN" "http://www.w3.org/Graphics/SVG/1.1/DTD/svg11.dtd">
<svg version="1.1" id="Layer_1" xmlns="http://www.w3.org/2000/svg" xmlns:xlink="http://www.w3.org/1999/xlink" x="0px" y="0px"
	 width="159.5px" height="49.2px" viewBox="0 0 159.5 49.2" enable-background="new 0 0 159.5 49.2" xml:space="preserve">
<path fill="#134C85" d="M43.308,24.279c-0.288-0.865-0.192-1.73,0.288-2.498c1.729-3.074,2.21-6.725,1.153-10.088l-0.192-0.288
	l-0.192-0.289c-3.362-5.668-7.877-8.934-13.354-9.703C21.885,0.069,12.854,6.506,9.396,9.292c-0.48,0.384-2.209,1.921-2.305,3.555
	v27.861c0,1.537,1.249,2.784,2.689,2.784l0,0h0.193c1.537,0,2.786-1.247,2.786-2.689l0,0V15.248c0-0.865,0.384-1.633,1.057-2.209
	c3.651-2.882,10.471-6.821,16.332-6.052c3.458,0.48,6.34,2.594,8.838,6.34c0.192,0.289,0.384,0.673,0.384,1.057
	c0.384,2.113-0.384,4.323-2.114,5.764l-0.096,0.097c-0.961,0.864-1.249,2.306-0.672,3.362v0.095
	c1.441,2.69,4.708,10.664,2.306,15.181c-1.153,2.113-3.554,3.362-7.205,3.843c-0.288,0-0.48,0-0.769,0
	c-2.018-0.288-5.956-1.441-7.397-4.131c-1.152-2.115-0.672-5.092,1.249-8.84v-0.095c0.48-0.864,0.384-1.825-0.096-2.689v-0.097
	c-0.577-1.057-2.017-4.517-1.153-7.11c0.384-0.96,0.96-1.729,1.826-2.306c1.057-0.672,1.537-2.017,1.057-3.266l-0.096-0.288
	c-0.576-1.441-2.113-2.114-3.554-1.634c-0.193,0.096-0.384,0.192-0.577,0.289c-1.921,1.249-3.266,3.074-4.035,5.188
	c-0.96,3.075-0.769,6.436,0.48,9.415c0.192,0.674,0.192,1.345,0,2.018c-1.825,4.515-1.921,8.55-0.096,11.817
	c3.458,6.244,12.2,7.109,12.584,7.205H31.3h0.288c6.148-0.578,10.28-2.884,12.489-6.917C47.151,35.902,45.038,28.505,43.308,24.279z
	"/>
<path fill="#2565B0" d="M66.845,23.895c-1.537,2.979-5.188,4.227-8.166,2.689c-2.018-1.057-3.363-3.17-3.363-5.38V9.003h2.402v7.302
	c2.689-2.018,6.533-1.441,8.55,1.249C67.614,19.283,67.806,21.781,66.845,23.895z M65.02,21.108c0-2.017-1.633-3.651-3.651-3.651
	c-2.017,0-3.65,1.634-3.65,3.651s1.633,3.651,3.65,3.651l0,0C63.387,24.758,65.02,23.125,65.02,21.108z"/>
<path fill="#2565B0" d="M72.609,21.781c0.288,2.018,2.209,3.363,4.228,2.979c0.864-0.097,1.633-0.578,2.209-1.248l2.401,0.863
	c-1.729,2.883-5.571,3.746-8.357,1.922c-1.633-0.962-2.69-2.69-2.786-4.516c0-0.192,0-0.385,0-0.576c0-0.288,0-0.672,0.096-0.961
	c0-0.288,0.096-0.576,0.192-0.865c0.192-0.479,0.384-0.96,0.672-1.44c1.729-2.882,5.476-3.747,8.358-2.018
	c1.826,1.153,2.882,3.074,2.882,5.188c0,0.191,0,0.384,0,0.576L72.609,21.781z M72.993,19.283h6.341
	c-1.057-1.729-3.267-2.306-4.996-1.345c-0.384,0.192-0.672,0.479-0.96,0.769C73.282,18.994,73.09,19.092,72.993,19.283z"/>
<path fill="#2565B0" d="M87.308,18.707c0,0.672,0.576,1.248,1.153,1.248l0,0h2.69c0.191,0,0.479,0,0.672,0.096
	c2.018,0.385,3.267,2.307,2.786,4.324c-0.384,1.633-1.825,2.883-3.555,2.883h-5.477v-2.402h5.477
	c0.672-0.098,1.152-0.674,1.152-1.346c-0.096-0.576-0.48-1.057-1.152-1.152h-2.69c-0.191,0-0.48,0-0.672-0.097
	c-2.018-0.384-3.268-2.306-2.786-4.323c0.383-1.633,1.825-2.882,3.554-2.882h5.477v2.401H88.46
	C87.789,17.458,87.308,18.034,87.308,18.707L87.308,18.707z"/>
<path fill="#2565B0" d="M99.893,15.056h3.651v2.401h-3.651v3.651c0,2.017,1.633,3.651,3.651,3.651l0,0v2.4
	c-3.362,0-6.053-2.689-6.053-6.051l0,0V9.004h2.401V15.056z"/>
<path fill="#2565B0" d="M119.202,18.418c1.537,2.979,0.288,6.631-2.785,8.166c-2.018,1.057-4.516,0.77-6.34-0.576v7.301h-2.402
	V21.107c0-3.362,2.785-6.052,6.148-6.052C116.033,15.056,118.146,16.305,119.202,18.418z M117.377,21.108
	c0-2.017-1.632-3.651-3.65-3.651c-2.018,0-3.649,1.634-3.649,3.651s1.632,3.651,3.649,3.651l0,0
	C115.745,24.758,117.377,23.125,117.377,21.108z"/>
<path fill="#2565B0" d="M122.47,27.258V9.003h2.4v18.254H122.47z"/>
<path fill="#2565B0" d="M139.665,15.056v6.052c0,3.362-2.688,6.149-6.052,6.149c-3.362,0-6.149-2.69-6.149-6.053
	c0-3.363,2.69-6.149,6.053-6.149c1.346,0,2.595,0.384,3.651,1.249v-1.249H139.665z M133.613,24.758c2.018,0,3.65-1.633,3.65-3.649
	c0-2.018-1.633-3.651-3.65-3.651c-2.019,0-3.65,1.633-3.65,3.651C129.963,23.125,131.595,24.758,133.613,24.758L133.613,24.758z"/>
<path fill="#2565B0" d="M142.259,27.258v-6.727c0-2.978,2.499-5.475,5.477-5.475c2.979,0,5.476,2.497,5.476,5.475v6.727h-2.402
	v-6.727c0.097-1.633-1.152-3.074-2.883-3.169c-1.632-0.096-3.073,1.152-3.169,2.882c0,0.096,0,0.191,0,0.385v6.725h-2.498V27.258
	L142.259,27.258z"/>
<g enable-background="new    ">
	<path fill="#4E4E50" d="M63.006,38.179c0,0.669,0,1.938,0,2.604c-0.268,0-0.535,0-0.802,0c0-0.667,0-1.936,0-2.604
		c0-0.332-0.27-0.602-0.602-0.602S61,37.847,61,38.179c0,0.669,0,1.938,0,2.604c-0.133,0-0.268,0-0.401,0c-0.134,0-0.268,0-0.401,0
		c0-0.667,0-1.936,0-2.604c0-0.332-0.27-0.602-0.603-0.602c-0.332,0-0.602,0.27-0.602,0.602c0,0.669,0,1.938,0,2.604
		c-0.268,0-0.535,0-0.803,0c0-0.667,0-1.936,0-2.604c0-1.258,1.527-1.88,2.408-0.982C61.48,36.299,63.006,36.921,63.006,38.179z"/>
	<path fill="#4E4E50" d="M67.521,37.015v2.007c0,1.107-0.898,2.005-2.007,2.005c-1.108,0-2.006-0.897-2.006-2.005
		c0-1.109,0.898-2.007,2.006-2.007c0.453,0,0.869,0.15,1.205,0.404v-0.404H67.521z M65.514,40.227c0.665,0,1.205-0.54,1.205-1.205
		s-0.541-1.205-1.205-1.205c-0.664,0-1.204,0.54-1.204,1.205C64.31,39.685,64.85,40.227,65.514,40.227z"/>
	<path fill="#4E4E50" d="M69.738,39.023l2.012,2.003h-1.137l-1.427-1.421v1.421h-0.802V35.02h0.802v3.422l1.427-1.421h1.137
		L69.738,39.023z"/>
	<path fill="#4E4E50" d="M72.61,41.028v-4.012h0.803v4.012H72.61z"/>
	<path fill="#4E4E50" d="M74.269,41.026v-2.223c0-0.995,0.808-1.805,1.806-1.805c0.997,0,1.805,0.81,1.805,1.805v2.223h-0.802
		v-2.223c0-0.553-0.45-1.002-1.003-1.002c-0.553,0-1.003,0.449-1.003,1.002v2.223H74.269z"/>
	<path fill="#4E4E50" d="M81.962,40.986c0-0.133,0-0.267,0-0.4c-1.693,1.271-3.945-0.609-2.998-2.502
		c0.946-1.894,3.8-1.22,3.8,0.897c0,0.669,0,1.336,0,2.005c0,1.109-0.898,2.008-2.006,2.008c0-0.268,0-0.536,0-0.803
		C81.423,42.191,81.962,41.651,81.962,40.986z M81.962,38.981c0-0.665-0.538-1.203-1.203-1.203c-0.666,0-1.205,0.538-1.205,1.203
		s0.539,1.205,1.205,1.205C81.423,40.184,81.962,39.646,81.962,38.981z"/>
	<path fill="#4E4E50" d="M90.513,39.021c0,0.669,0,1.338,0,2.007c-0.268,0-0.536,0-0.803,0c0-0.669,0-1.338,0-2.007
		c0-0.665-0.539-1.202-1.205-1.202c-0.663,0-1.203,0.537-1.203,1.202c0,0.669,0,1.338,0,2.007c-0.267,0-0.535,0-0.803,0
		c0-0.669,0-1.338,0-2.007c0-1.334,0-2.668,0-4.002h0.803c0,0.799,0,1.599,0,2.397C88.625,36.426,90.513,37.368,90.513,39.021z"/>
	<path fill="#4E4E50" d="M92.188,39.223c0.096,0.569,0.59,1.004,1.185,1.004c0.372,0,0.703-0.17,0.924-0.435l0.777,0.29
		c-0.354,0.567-0.982,0.944-1.7,0.944c-1.041,0-1.896-0.792-1.996-1.804c-0.007-0.065-0.011-0.134-0.011-0.201
		c0-0.105,0.012-0.207,0.026-0.307c0.016-0.102,0.037-0.199,0.065-0.295c0.052-0.163,0.125-0.317,0.214-0.459
		c0.354-0.567,0.983-0.944,1.701-0.944c0.897,0,1.658,0.589,1.914,1.403c0.06,0.19,0.092,0.392,0.092,0.602
		c0,0.067-0.004,0.136-0.01,0.201H92.188L92.188,39.223z M92.332,38.42h2.083c-0.208-0.359-0.597-0.601-1.042-0.601
		c-0.37,0-0.703,0.167-0.923,0.432C92.405,38.304,92.366,38.361,92.332,38.42z"/>
	<path fill="#4E4E50" d="M100.248,37.015v2.007c0,1.107-0.898,2.005-2.007,2.005s-2.008-0.897-2.008-2.005
		c0-1.109,0.899-2.007,2.008-2.007c0.453,0,0.869,0.15,1.204,0.404v-0.404H100.248z M98.241,40.227c0.663,0,1.204-0.54,1.204-1.205
		s-0.54-1.205-1.204-1.205s-1.205,0.54-1.205,1.205C97.037,39.685,97.577,40.227,98.241,40.227z"/>
	<path fill="#4E4E50" d="M101.111,41.028V35.02h0.802v6.009H101.111z"/>
	<path fill="#4E4E50" d="M103.571,37.017c0.401,0,0.803,0,1.204,0c0,0.267,0,0.533,0,0.803c-0.401,0-0.803,0-1.204,0
		c0,0.399,0,0.8,0,1.202c0,0.665,0.539,1.205,1.204,1.205c0,0.267,0,0.533,0,0.8c-1.107,0-2.007-0.897-2.007-2.005
		c0-1.338,0-2.679,0-4.019h0.803C103.571,35.674,103.571,36.346,103.571,37.017z"/>
	<path fill="#4E4E50" d="M109.646,39.021c0,0.669,0,1.338,0,2.007c-0.267,0-0.534,0-0.802,0c0-0.669,0-1.338,0-2.007
		c0-0.665-0.539-1.202-1.203-1.202c-0.665,0-1.204,0.537-1.204,1.202c0,0.669,0,1.338,0,2.007c-0.268,0-0.535,0-0.803,0
		c0-0.669,0-1.338,0-2.007c0-1.334,0-2.668,0-4.002h0.803c0,0.799,0,1.599,0,2.397C107.761,36.426,109.646,37.368,109.646,39.021z"
		/>
	<path fill="#4E4E50" d="M117.391,37.015v2.007c0,1.107-0.897,2.005-2.006,2.005s-2.007-0.897-2.007-2.005
		c0-1.109,0.898-2.007,2.007-2.007c0.452,0,0.868,0.15,1.204,0.404v-0.404H117.391z M115.385,40.227c0.664,0,1.204-0.54,1.204-1.205
		s-0.54-1.205-1.204-1.205c-0.665,0-1.205,0.54-1.205,1.205C114.18,39.685,114.72,40.227,115.385,40.227z"/>
	<path fill="#4E4E50" d="M119.057,39.018c0,1.071,1.297,1.609,2.055,0.851c0.188,0.188,0.378,0.379,0.567,0.567
		c-1.264,1.265-3.425,0.369-3.425-1.418s2.161-2.683,3.425-1.419c-0.189,0.188-0.379,0.379-0.567,0.567
		C120.354,37.408,119.057,37.946,119.057,39.018z"/>
	<path fill="#4E4E50" d="M123.338,39.018c0,1.071,1.297,1.609,2.055,0.851c0.189,0.188,0.379,0.379,0.568,0.567
		c-1.264,1.265-3.426,0.369-3.426-1.418s2.162-2.683,3.426-1.419c-0.189,0.188-0.379,0.379-0.568,0.567
		C124.635,37.408,123.338,37.946,123.338,39.018z"/>
	<path fill="#4E4E50" d="M127.637,39.223c0.097,0.569,0.59,1.004,1.186,1.004c0.372,0,0.703-0.17,0.924-0.435l0.776,0.29
		c-0.354,0.567-0.982,0.944-1.7,0.944c-1.04,0-1.895-0.792-1.995-1.804c-0.007-0.065-0.011-0.134-0.011-0.201
		c0-0.105,0.011-0.207,0.026-0.307c0.016-0.102,0.036-0.199,0.065-0.295c0.052-0.163,0.125-0.317,0.214-0.459
		c0.354-0.567,0.982-0.944,1.7-0.944c0.899,0,1.659,0.589,1.915,1.403c0.06,0.19,0.092,0.392,0.092,0.602
		c0,0.067-0.004,0.136-0.01,0.201H127.637L127.637,39.223z M127.782,38.42h2.082c-0.209-0.359-0.596-0.601-1.042-0.601
		c-0.37,0-0.703,0.167-0.923,0.432C127.854,38.304,127.815,38.361,127.782,38.42z"/>
	<path fill="#4E4E50" d="M132.485,38.219c0,0.223,0.18,0.402,0.402,0.402h0.89c0.08,0,0.158,0.009,0.234,0.023
		c0.552,0.11,0.968,0.595,0.968,1.18c0,0.665-0.538,1.204-1.202,1.204h-1.811v-0.802h1.811c0.22,0,0.399-0.181,0.399-0.402
		c0-0.221-0.18-0.4-0.399-0.4h-0.89c-0.08,0-0.16-0.009-0.236-0.023c-0.553-0.11-0.968-0.597-0.968-1.182
		c0-0.662,0.539-1.202,1.204-1.202h1.81v0.803h-1.81C132.665,37.819,132.485,37.999,132.485,38.219z"/>
	<path fill="#4E4E50" d="M136.641,38.219c0,0.223,0.18,0.402,0.401,0.402h0.89c0.08,0,0.159,0.009,0.235,0.023
		c0.552,0.11,0.968,0.595,0.968,1.18c0,0.665-0.539,1.204-1.203,1.204h-1.81v-0.802h1.81c0.221,0,0.4-0.181,0.4-0.402
		c0-0.221-0.18-0.4-0.4-0.4h-0.889c-0.081,0-0.16-0.009-0.236-0.023c-0.551-0.11-0.968-0.597-0.968-1.182
		c0-0.662,0.539-1.202,1.204-1.202h1.811v0.803h-1.811C136.82,37.819,136.641,37.999,136.641,38.219z"/>
	<path fill="#4E4E50" d="M139.994,41.028v-4.012h0.803v4.012H139.994z"/>
	<path fill="#4E4E50" d="M145.453,39.915c-0.946,1.896-3.801,1.22-3.801-0.896c0-1.334,0-2.666,0-4h0.803c0,0.799,0,1.597,0,2.395
		C144.148,36.145,146.399,38.022,145.453,39.915z M144.862,39.02c0-0.665-0.539-1.205-1.204-1.205s-1.203,0.538-1.203,1.205
		c0,0.665,0.538,1.202,1.203,1.202S144.862,39.685,144.862,39.02z"/>
	<path fill="#4E4E50" d="M146.538,41.028V35.02h0.803v6.009H146.538z"/>
	<path fill="#4E4E50" d="M149.017,39.223c0.097,0.569,0.59,1.004,1.186,1.004c0.37,0,0.703-0.17,0.923-0.435l0.777,0.29
		c-0.354,0.567-0.982,0.944-1.7,0.944c-1.04,0-1.895-0.792-1.997-1.804c-0.005-0.065-0.009-0.134-0.009-0.201
		c0-0.105,0.011-0.207,0.026-0.307c0.015-0.102,0.036-0.199,0.065-0.295c0.051-0.163,0.125-0.317,0.214-0.459
		c0.354-0.567,0.982-0.944,1.7-0.944c0.898,0,1.658,0.589,1.914,1.403c0.061,0.19,0.092,0.392,0.092,0.602
		c0,0.067-0.003,0.136-0.009,0.201H149.017L149.017,39.223z M149.16,38.42h2.083c-0.208-0.359-0.597-0.601-1.041-0.601
		c-0.37,0-0.703,0.167-0.923,0.432C149.234,38.304,149.195,38.361,149.16,38.42z"/>
</g>
</svg>
