<?xml version="1.0" standalone="no"?>
<!DOCTYPE svg PUBLIC "-//W3C//DTD SVG 1.1//EN" "http://www.w3.org/Graphics/SVG/1.1/DTD/svg11.dtd" >
<svg>
<metadata>
Created by FontForge 20090622 at Wed Oct 31 09:36:09 2018
 By deploy user
Converted by ALLTYPE
</metadata>
<defs>
<font id="Opal" horiz-adv-x="0" >
  <font-face 
    font-family="Opal"
    font-weight="5"
    font-style="italic"
    font-stretch="normal"
    units-per-em="1000"
    panose-1="0 0 0 0 0 0 0 0 0 0"
    ascent="800"
    descent="-200"
    x-height="463"
    cap-height="672"
    bbox="-89 -566 1099 931"
    underline-thickness="50"
    underline-position="-55"
    slope="23853"
    unicode-range="U+0020-U+F002"
  />
<missing-glyph 
 />
    <glyph glyph-name=".notdef" 
 />
    <glyph glyph-name="NULL" 
 />
    <glyph glyph-name="nonmarkingreturn" horiz-adv-x="310" 
 />
    <glyph glyph-name="space" unicode=" " horiz-adv-x="310" 
 />
    <glyph glyph-name="space" unicode="&#xa0;" horiz-adv-x="310" 
 />
    <glyph glyph-name="exclam" unicode="!" horiz-adv-x="219" 
d="M123 110q13 -1 25 -6.5t19 -16.5q6 -6 10.5 -14t6.5 -16v-3v-4q0 -14 -6 -27.5t-17 -22.5q-7 -5 -14.5 -7.5t-15.5 -3.5q-2 -1 -4.5 -1h-4.5q-6 0 -12 1.5t-11 4.5q-7 4 -13.5 8.5t-11.5 11.5q-4 8 -7 16t-3 17q2 17 10.5 31.5t22.5 23.5q6 4 12.5 5.5t13.5 1.5v1z
M81 687h86v-533h-86v533z" />
    <glyph glyph-name="quotedbl" unicode="&#x22;" horiz-adv-x="387" 
d="M248 678h79l-46 -196h-68zM65 681h79l-51 -196h-63z" />
    <glyph glyph-name="numbersign" unicode="#" horiz-adv-x="608" 
d="M225 662h46l-46 -190h111l44 190h45l-47 -190h118l-19 -78h-117l-33 -133h124l-19 -78h-122l-46 -185h-45l47 185h-111l-45 -185h-44l44 185h-106l19 78h107l32 133h-115l15 78h118zM207 391l-34 -133h112l31 133h-109z" />
    <glyph glyph-name="dollar" unicode="$" horiz-adv-x="551" 
d="M262 742h72v-68h134v-77h-134v-169l107 -68q11 -9 20 -19.5t16 -22.5q8 -11 12.5 -24t5.5 -27q2 -28 -4.5 -55t-20.5 -51q-7 -11 -16 -20t-20 -16q-13 -6 -26 -10t-27 -6q-10 -2 -21.5 -3.5t-22.5 -1.5v-73h-75v77h-154v77h154v182l-95 59q-23 15 -39 38t-22 50
q-1 5 -1.5 10.5t-0.5 10.5q0 8 1.5 16.5t3.5 15.5q6 26 21.5 48t37.5 37q22 11 45.5 17t48.5 6v67zM333 325v-140q2 -1 4.5 -1h5.5q15 0 29 5t26 15q5 6 7.5 14t3.5 16q0 20 -9.5 39t-26.5 30q-9 7 -19 12t-21 9v1zM262 593h-6.5h-7.5h-5.5t-4.5 -1q-2 0 -4.5 -0.5
t-5.5 -1.5q-9 -2 -16.5 -7.5t-12.5 -12.5l-4 -10.5t-3 -11.5q-1 -3 -1 -5.5v-5.5q0 -7 1 -13.5t4 -13.5q4 -9 10.5 -16.5t13.5 -13.5q9 -8 19.5 -14t22.5 -9v136z" />
    <glyph glyph-name="percent" unicode="%" horiz-adv-x="883" 
d="M614 301q6 -1 12 -1h12q18 -1 36 -5.5t35 -11.5q15 -8 28.5 -19.5t23.5 -25.5q11 -14 17.5 -30.5t9.5 -33.5q1 -4 1.5 -8t0.5 -7q1 -4 1 -8v-8v-9.5t-1 -9.5q0 -5 -1 -9.5t-2 -9.5q-2 -15 -8.5 -28t-17.5 -24q-9 -15 -22 -26.5t-30 -18.5q-15 -7 -32 -11t-34 -4
q-17 -2 -34 0.5t-34 6.5q-16 7 -30.5 16.5t-26.5 22.5q-12 14 -21 29t-14 31q-2 10 -3 19.5t-1 19.5q0 25 6 48.5t17 44.5q21 27 49.5 45t62.5 24v1zM624 224q-15 -4 -28.5 -11.5t-24.5 -18.5q-6 -7 -10 -15t-6 -17q0 -2 -0.5 -4t-0.5 -4q-1 -3 -1 -5v-4v-4.5t1 -5.5
q1 -12 6 -23.5t13 -20.5q12 -14 28.5 -22t35.5 -8q20 1 37 10.5t27 25.5q6 11 9.5 22.5t3.5 23.5q0 7 -1 13.5t-3 12.5q-2 9 -7 17t-11 15q-11 11 -26 17t-31 6h-2.5h-2.5q-2 -1 -3 -1h-3v1zM614 681h59l-441 -683h-57zM213 675q24 -2 46.5 -9.5t42.5 -19.5q15 -10 27 -23
t20 -28q6 -14 10 -29t6 -31q0 -5 0.5 -10t0.5 -10q0 -12 -1.5 -24t-4.5 -23q-13 -33 -37.5 -57.5t-57.5 -37.5q-16 -5 -33.5 -7t-34.5 -1q-17 2 -34 7t-32 14t-27.5 21.5t-22.5 26.5q-9 14 -15.5 30.5t-8.5 32.5q-1 33 8.5 65t27.5 59q12 14 26.5 23.5t30.5 15.5q15 8 31 11
t32 3v1zM230 598q-1 -1 -3 -0.5t-3 0.5h-3.5h-3.5q-11 0 -22 -2.5t-22 -8.5q-7 -4 -14 -9t-13 -12q-5 -7 -8.5 -16t-5.5 -18q-1 -4 -1.5 -7.5t-0.5 -7.5q0 -14 5 -27.5t14 -24.5q8 -7 16.5 -13t18.5 -10l6 -2t7 -2q3 0 6 -0.5t6 -0.5h3.5h3.5q1 0 3 0.5t3 0.5
q20 2 36.5 13.5t26.5 29.5q4 9 5.5 18t1.5 19q1 10 -1 19.5t-6 18.5q-9 16 -23.5 26.5t-31.5 14.5v1z" />
    <glyph glyph-name="ampersand" unicode="&#x26;" horiz-adv-x="664" 
d="M176 666h309v-80h-273l-10 -9l4 -15l294 -379q12 20 18.5 43t6.5 47q0 6 -0.5 12t-1.5 12q-3 16 -8.5 31t-14.5 28l-20.5 27.5t-22.5 26.5l70 53q10 -11 19 -22.5t17 -24.5q12 -17 21 -36t15 -39q6 -21 9 -42.5t2 -44.5q-1 -28 -8 -55.5t-18 -53.5q-5 -12 -11 -23
t-14 -22l77 -100h-104l-32 39q-23 -14 -46.5 -24t-48.5 -16q-9 -2 -18 -3.5t-18 -1.5q-10 -1 -19 -1.5t-18 -0.5q-16 0 -32 1.5t-32 3.5q-23 3 -46 10.5t-44 18.5q-16 8 -31 19.5t-28 25.5q-16 17 -28.5 36t-22.5 39q-8 17 -13.5 34.5t-8.5 36.5q-1 26 -1 51.5t2 50.5
q5 25 15 48t23 44q15 22 33 40t40 33l-34 47q-6 11 -9.5 24.5t-5.5 26.5q0 11 2.5 20.5t7.5 18.5q9 17 24 28.5t33 15.5v1zM212 412q-1 -1 -1.5 -1h-1.5h-2.5t-2.5 -1q-3 0 -5.5 -1t-4.5 -3q-12 -13 -22.5 -27.5t-18.5 -29.5q-8 -16 -13.5 -32.5t-7.5 -33.5q-1 -18 1 -35.5
t6 -34.5t11 -33t17 -30t23 -26.5t27 -22.5q15 -10 31.5 -16.5t33.5 -9.5q17 -4 34.5 -5t34.5 0q17 2 33 6.5t32 11.5q8 6 15.5 13t14.5 15l-219 283q-2 4 -6 7.5t-9 4.5v1z" />
    <glyph glyph-name="quotesingle" unicode="'" horiz-adv-x="219" 
d="M66 678h80l-45 -193h-63z" />
    <glyph glyph-name="parenleft" unicode="(" horiz-adv-x="387" 
d="M325 679l43 -51q-26 -19 -48.5 -40.5t-41.5 -47.5q-19 -25 -33 -53.5t-24 -58.5l-27 -101q-1 -11 -2.5 -20.5t-1.5 -18.5q-1 -10 -1.5 -19.5t-0.5 -19.5q0 -11 0.5 -22.5t1.5 -22.5q4 -31 11.5 -60t19.5 -58l53 -99q17 -32 41 -59.5t53 -49.5l-34 -49l-37.5 33l-36.5 34
q-29 40 -55 82t-49 86q-16 51 -25 104t-9 107q10 71 31.5 139.5t54.5 132.5q23 38 52.5 71t64.5 60v1z" />
    <glyph glyph-name="parenright" unicode=")" horiz-adv-x="387" 
d="M55 679l62 -66.5t58 -68.5q34 -45 54 -97.5t24 -108.5q2 -11 3.5 -21.5t1.5 -21.5q1 -11 1.5 -21.5t0.5 -21.5q0 -13 -0.5 -26.5t-2.5 -26.5q-1 -13 -3.5 -26.5t-5.5 -26.5q-6 -38 -18 -74.5t-30 -71.5q-17 -33 -40 -63.5t-50 -58.5q-10 -13 -22 -24.5t-26 -20.5l-45 52
q25 21 47.5 45t41.5 50q21 28 37.5 60.5t26.5 66.5q11 35 16.5 70.5t5.5 71.5q3 54 -8 106.5t-36 99.5q-14 32 -33.5 61t-43.5 54l-26.5 28t-27.5 27z" />
    <glyph glyph-name="asterisk" unicode="*" horiz-adv-x="496" 
d="M201 681h84l-14 -136l112 82l43 -69l-136 -60l136 -66l-43 -67l-113 77l13 -130h-80l14 139l-114 -82l-38 69l131 60l-130 58l40 65l115 -76z" />
    <glyph glyph-name="plus" unicode="+" horiz-adv-x="608" 
d="M276 564h48v-249h198v-46h-200v-252h-46v252h-204v46h204v249z" />
    <glyph glyph-name="comma" unicode="," horiz-adv-x="219" 
d="M74 90h91l-60 -186h-73z" />
    <glyph glyph-name="hyphen" unicode="-" horiz-adv-x="276" 
d="M23 274h224v-83h-224v83z" />
    <glyph glyph-name="period" unicode="." horiz-adv-x="219" 
d="M114 109l11.5 -4t10.5 -5q8 -4 13.5 -11t9.5 -15q3 -7 4.5 -15t1.5 -16q-1 -9 -4.5 -17.5t-9.5 -16.5q-6 -6 -13 -9.5t-15 -4.5q-3 -1 -5.5 -1.5t-4.5 -0.5q-2 -1 -4.5 -1h-5.5h-4t-4 1q-2 0 -4 0.5t-4 0.5q-8 2 -15.5 6t-12.5 11t-8.5 15t-4.5 17t1.5 18t6.5 16
q5 8 11.5 14.5t14.5 10.5t16.5 5.5t17.5 0.5v1z" />
    <glyph glyph-name="slash" unicode="/" horiz-adv-x="276" 
d="M226 696h42l-224 -707h-42z" />
    <glyph glyph-name="zero" unicode="0" horiz-adv-x="551" 
d="M261 679q20 1 39 -1.5t38 -7.5q20 -4 38.5 -13t34.5 -20q13 -9 24.5 -20t21.5 -25q11 -15 20 -31.5t16 -34.5q3 -20 5.5 -40t4.5 -40q1 -20 2.5 -40t1.5 -40q2 -40 0 -80.5t-7 -81.5q-2 -23 -8 -45.5t-17 -43.5q-7 -16 -16.5 -29.5t-21.5 -25.5q-15 -15 -32.5 -27.5
t-36.5 -22.5q-15 -7 -31 -10t-33 -4q-4 -1 -8 -1.5t-8 -0.5h-8h-8q-11 0 -22 1t-22 3q-19 2 -38 8t-36 15q-16 8 -30.5 19t-27.5 24q-11 12 -20 26t-16 29q-9 23 -14.5 47t-7.5 48q-1 16 -2.5 32t-1.5 32q-1 15 -1.5 31t-0.5 32q0 29 1.5 57.5t3.5 56.5l14.5 51.5t16.5 50.5
q11 20 24 37.5t29 33.5q14 11 29 19.5t31 14.5q20 8 40 11.5t40 4.5v1zM284 589q-1 -1 -3 -1t-3 1h-3.5h-3.5q-10 0 -20.5 -1.5t-20.5 -5.5q-13 -4 -25.5 -10.5t-23.5 -14.5q-10 -9 -18.5 -20t-13.5 -24t-8.5 -26t-5.5 -27q-4 -29 -6 -58.5l-4 -59.5q0 -15 0.5 -30t1.5 -29
q0 -15 1.5 -30t2.5 -30q0 -4 0.5 -8t0.5 -8q2 -12 5.5 -23.5t7.5 -22.5q5 -13 12 -25t16 -22q10 -10 21.5 -17.5t24.5 -12.5l14 -4t14 -3q3 -1 7 -1h7h3.5t2.5 1h3.5h2.5q14 -1 27.5 2t26.5 7q12 6 23 14t20 18q9 11 16 22.5t11 24.5q4 14 6.5 27.5t3.5 26.5l5 106l-2 104
q0 16 -2.5 33t-7.5 33q-3 12 -8.5 23t-13.5 21q-8 11 -19 19.5t-24 14.5q-12 6 -24.5 10t-26.5 5v1z" />
    <glyph glyph-name="one" unicode="1" horiz-adv-x="551" 
d="M140 672h187v-672h-95v586h-120z" />
    <glyph glyph-name="two" unicode="2" horiz-adv-x="551" 
d="M250 681q3 -1 6.5 -0.5t6.5 0.5h6.5h6.5q7 0 14.5 -0.5t14.5 -1.5q7 0 14.5 -1.5t14.5 -3.5q20 -4 39.5 -13t36.5 -21q32 -28 54.5 -63.5t32.5 -76.5q2 -9 3 -18.5t1 -19.5q0 -11 -1.5 -22.5t-3.5 -22.5q-11 -44 -37 -82t-63 -65l-234 -182h335v-88h-397q-18 1 -33 10.5
t-25 24.5q-3 6 -4.5 12.5t-1.5 13.5v2t1 3v2v2q1 13 6 24.5t13 21.5l308 250q12 12 22 27t17 31q1 5 2 9.5t1 9.5q1 4 1 9v9q0 9 -1 18t-3 18q-2 14 -8 26t-15 22q-9 12 -20.5 22t-25.5 17q-16 8 -33.5 11t-35.5 2q-16 -1 -32 -5.5t-30 -12.5q-12 -6 -22 -14.5t-18 -19.5
q-10 -14 -16 -30t-8 -33q-1 -3 -1.5 -6t-0.5 -5q-1 -3 -1 -6v-6t0.5 -6.5t1.5 -7.5q0 -4 0.5 -7.5t1.5 -6.5q5 -16 13 -31t18 -29q13 -13 28 -22.5t31 -15.5l15.5 -4l14.5 -4l-75 -59q-20 5 -38.5 15.5t-33.5 24.5q-29 31 -47 69t-23 79q1 43 16 83t43 72q14 16 31 28.5
t36 22.5q19 9 39.5 14t41.5 6v1z" />
    <glyph glyph-name="three" unicode="3" horiz-adv-x="551" 
d="M63 672h304q3 -1 6.5 -1t7.5 -1q10 -1 20 -4t19 -8q8 -4 14.5 -11t10.5 -15q3 -7 4.5 -15.5t1.5 -16.5q0 -11 -3 -22t-9 -21l-77 -76l-79 -74h10h10q20 -1 39.5 -6t37.5 -13q16 -6 29.5 -14.5t25.5 -19.5q25 -24 41 -54t21 -63q0 -3 0.5 -6.5t0.5 -7.5q1 -4 1 -7.5v-6.5
q0 -25 -6 -50.5t-17 -49.5q-16 -30 -40.5 -53.5t-54.5 -39.5q-14 -7 -29.5 -11.5t-31.5 -4.5h-274v87h245q14 1 27.5 4.5t25.5 9.5q11 5 19.5 13t15.5 18q9 11 15 24t8 27q1 3 1.5 6.5t0.5 6.5q1 3 1 6.5v6.5v5.5t-1 4.5q-1 16 -7.5 31t-17.5 27q-7 11 -17.5 19t-22.5 13
q-18 11 -38.5 16t-41.5 3l-109 1q-7 4 -12 11.5t-7 15.5q-1 13 4 25t15 21l200 183h-287v87z" />
    <glyph glyph-name="four" unicode="4" horiz-adv-x="551" 
d="M407 683v-441h106v-86h-105v-156h-89v156h-260q-8 2 -15.5 5.5l-15.5 7.5q-7 8 -11 17.5t-6 19.5v4v4v3.5t1 3.5q0 2 0.5 3.5t0.5 3.5l244 444h98l-237 -430h201v285z" />
    <glyph glyph-name="five" unicode="5" horiz-adv-x="551" 
d="M84 672h357v-87h-264v-170q39 2 78 0.5t76 -7.5q36 -7 67.5 -24.5t56.5 -43.5q10 -10 18 -22.5t14 -26.5q9 -21 13.5 -42.5t4.5 -44.5q0 -5 -0.5 -10t-0.5 -10q-1 -6 -1.5 -11t-1.5 -10q-4 -34 -21.5 -65t-46.5 -52q-22 -22 -51 -34t-61 -12h-264v87h242q26 2 49 14.5
t39 31.5q8 12 13 25.5t7 27.5v7.5v6.5q0 10 -1.5 19.5t-4.5 19.5q-7 25 -24.5 44.5t-41.5 30.5q-13 6 -27.5 9t-28.5 4l-195 1v344z" />
    <glyph glyph-name="six" unicode="6" horiz-adv-x="551" 
d="M281 672h105l-244 -353q-10 -21 -16 -43t-7 -45q-1 -15 1.5 -29t8.5 -28q7 -17 17.5 -32.5t23.5 -28.5q12 -10 25 -16.5t27 -11.5q6 -1 12 -2.5t13 -1.5q6 -1 12 -1.5t12 -0.5q8 0 16 0.5t15 1.5q17 4 33 11.5t29 17.5q14 11 25 24t19 29q5 11 8 22t4 22q1 5 1.5 11
t0.5 11v4v4t-0.5 4t-0.5 4q0 18 -4.5 35t-12.5 33q-9 15 -21.5 27.5t-26.5 22.5q-16 11 -33.5 17t-35.5 8l-14 2t-13 1h-14h-14l58 82q5 -1 9.5 -1.5t9.5 -1.5q24 -3 47.5 -10t44.5 -18q23 -13 41.5 -31t32.5 -40q16 -23 25.5 -49.5t11.5 -54.5q1 -8 1.5 -16.5t0.5 -16.5
q0 -21 -3.5 -41.5t-10.5 -40.5q-10 -28 -25.5 -53t-37.5 -46q-19 -18 -41 -30.5t-47 -20.5q-12 -2 -25.5 -4t-26.5 -3q-6 -1 -12.5 -1h-13.5h-9h-9q-5 0 -9.5 0.5t-9.5 1.5q-28 3 -54.5 12.5t-49.5 25.5q-24 16 -43.5 38t-33.5 47q-13 26 -19.5 53.5t-5.5 55.5q3 29 9 57
t15 55z" />
    <glyph glyph-name="seven" unicode="7" horiz-adv-x="551" 
d="M46 672h368q20 -2 38.5 -12t30.5 -27q2 -4 3.5 -9t1.5 -9q1 -5 1.5 -9.5t0.5 -9.5q0 -11 -2.5 -22t-7.5 -22l-244 -552h-108l250 552l11 27l-12 7h-331v86z" />
    <glyph glyph-name="eight" unicode="8" horiz-adv-x="551" 
d="M293 683q17 -2 32.5 -6t30.5 -11q14 -5 27 -13t25 -18q23 -21 36 -48.5t16 -58.5q1 -34 -9.5 -66t-32.5 -58q-2 -3 -5.5 -6t-6.5 -6l-2.5 -2.5l-3.5 -3.5q19 -9 35 -22t29 -30q14 -16 23 -33.5t14 -37.5q4 -13 6 -26t2 -27v-6.5t-1 -6.5q0 -3 -0.5 -6.5t-0.5 -6.5
q-6 -40 -26 -76t-52 -62q-16 -12 -33.5 -21.5t-36.5 -16.5q-19 -6 -39 -8t-40 -2q-25 0 -50 2t-50 9q-38 14 -70 39.5t-52 61.5q-9 18 -14 37.5t-7 39.5q-1 5 -1 10v10q0 14 1.5 28.5t5.5 27.5q14 38 39 68t59 51q-13 12 -24 25.5t-19 28.5q-5 13 -9 26t-5 26q-1 6 -1.5 13
t-0.5 13q0 10 1 19.5t3 19.5q5 15 11.5 29t15.5 27q8 12 19.5 22.5t24.5 18.5q15 9 31.5 15.5t33.5 10.5q17 5 35 6.5t36 -0.5v1zM288 336q-1 -1 -2.5 -1t-3.5 1h-2.5h-3.5q-12 0 -24 -2t-23 -7l-15.5 -6t-14.5 -8q-13 -6 -23.5 -15t-18.5 -20q-12 -17 -18.5 -37t-6.5 -40
v-7.5t1 -6.5q0 -4 0.5 -7.5t1.5 -7.5q8 -27 26 -48.5t43 -35.5q14 -6 28.5 -9t29.5 -4t30 1t29 6q29 8 52.5 28.5t33.5 49.5q1 5 2 9.5t2 9.5q0 4 0.5 9t0.5 9q0 21 -6 41t-17 38q-18 25 -44.5 40.5t-56.5 18.5v1zM281 598q-1 -1 -3 -1t-3 1h-3.5h-3.5h-6.5t-6.5 -1
q-7 -1 -13.5 -2.5t-12.5 -4.5q-15 -6 -26.5 -18t-18.5 -27q-2 -8 -3.5 -16.5t-1.5 -16.5q0 -13 3 -26t9 -26q11 -15 27 -26t35 -16q2 0 4 -0.5t5 -0.5h4h4q19 0 36.5 6.5t30.5 19.5q12 13 19 29.5t7 33.5v8.5t-1 7.5q-1 9 -4 18t-8 16q-12 17 -30 28t-39 13v1z" />
    <glyph glyph-name="nine" unicode="9" horiz-adv-x="551" 
d="M285 683q21 -2 41.5 -6.5t39.5 -12.5q38 -16 69.5 -44.5t51.5 -65.5q13 -28 19.5 -57.5t6.5 -59.5q0 -7 -0.5 -13.5t-0.5 -12.5l-2 -13.5l-2 -13.5q-7 -27 -18.5 -52.5t-27.5 -48.5l-192 -283h-111l236 351q14 19 21 41.5t7 45.5v7.5t-1 7.5q0 3 -0.5 6.5t-1.5 7.5
q-3 31 -18 57.5t-41 44.5q-13 8 -27 14t-29 9q-4 1 -8.5 2t-8.5 1q-5 1 -9 1h-9h-6t-6 -1q-4 0 -7 -0.5t-6 -0.5q-15 -1 -28.5 -6t-25.5 -13q-13 -7 -24 -17.5t-19 -23.5q-12 -22 -18.5 -47t-6.5 -51v-8.5t1 -9.5q5 -31 21 -57t41 -44q27 -19 58.5 -27.5t63.5 -6.5l-57 -83
q-41 4 -79 20t-70 43q-30 32 -48.5 71.5t-24.5 82.5q-1 21 1 42t7 41q10 41 33 77t56 61q17 14 36 22.5t40 12.5q20 6 41 8.5t42 0.5v1z" />
    <glyph glyph-name="colon" unicode=":" horiz-adv-x="219" 
d="M112 103h7.5h7.5q5 0 10.5 -0.5t9.5 -2.5q8 -2 14 -6t10 -10q6 -7 9.5 -15t4.5 -17t-0.5 -17.5t-5.5 -16.5t-9.5 -13.5t-13.5 -9.5q-3 -2 -6 -3l-6 -2q-4 -1 -7 -1.5t-6 -0.5h-2h-2q-1 1 -1.5 1h-1.5q-9 0 -17.5 2.5t-16.5 7.5q-6 3 -10 9t-6 13l-2 6t-2 7q0 3 -0.5 6
t-0.5 6v5.5t1 4.5q2 9 5.5 17t9.5 14t13 10t14 5v1zM123 386q1 -1 1.5 -1h1.5h0.5h1.5q2 0 4.5 -0.5t5.5 -0.5q3 -1 5.5 -2t4.5 -2q8 -4 14.5 -9.5t10.5 -13.5q5 -7 6.5 -14t1.5 -15v-1.5v-0.5v-1.5v-1.5q-1 -9 -4 -17t-8 -16q-4 -7 -9.5 -11.5t-13.5 -7.5q-6 -2 -12 -3.5
t-12 -1.5h-5t-6 1q-8 2 -16 6t-14 10q-7 6 -10.5 14t-5.5 17q-1 3 -1 6v6v5.5t1 5.5q0 3 1 5.5t2 5.5q3 8 8.5 15t12.5 12q8 5 16.5 7.5t17.5 2.5v1z" />
    <glyph glyph-name="semicolon" unicode=";" horiz-adv-x="219" 
d="M84 102h81l-47 -183h-77zM130 385q17 -5 29 -16.5t17 -27.5q0 -2 0.5 -4t0.5 -4q1 -2 1 -4v-4v-4.5t-1 -4.5q0 -3 -1 -5.5t-2 -4.5q-6 -16 -18 -26.5t-29 -14.5h-2h-1q-1 -1 -2 -1h-2q-7 0 -13.5 2t-13.5 5q-14 8 -23 22.5t-11 31.5q0 3 0.5 5.5t0.5 5.5q1 6 3.5 11.5
t5.5 10.5q5 8 11.5 13.5t14.5 8.5q6 2 12 3.5t12 1.5h6t5 -1v1z" />
    <glyph glyph-name="less" unicode="&#x3c;" horiz-adv-x="331" 
d="M186 381h78l-118 -148l122 -152h-74l-126 152z" />
    <glyph glyph-name="equal" unicode="=" horiz-adv-x="608" 
d="M118 240h356v-59h-356v59zM118 401h356v-54h-356v54z" />
    <glyph glyph-name="greater" unicode="&#x3e;" horiz-adv-x="331" 
d="M66 381h71l120 -148l-118 -152h-76l121 152z" />
    <glyph glyph-name="question" unicode="?" horiz-adv-x="444" 
d="M224 109q11 -3 20.5 -8t16.5 -13q6 -7 9.5 -14.5t4.5 -16.5q1 -2 1 -4.5v-5.5t-0.5 -6t-0.5 -6q-1 -4 -2 -7t-3 -6q-7 -14 -19.5 -22t-28.5 -10t-31.5 4.5t-26.5 19.5q-5 8 -7.5 16t-2.5 17q2 18 11 32.5t25 23.5q8 4 16.5 5t17.5 0v1zM248 681q20 -3 38.5 -8t36.5 -13
q15 -7 28 -17t23 -23q23 -27 37 -59t18 -67v-9.5v-9.5q-2 -28 -9.5 -56t-20.5 -53q-19 -28 -45 -48.5t-58 -32.5q-4 -1 -9 -2t-10 -1q-4 -1 -9 -2l-10 -2v-127h-90v205q9 -3 18 -4.5t18 -1.5q8 0 16.5 1.5t16.5 2.5q17 4 32 12t28 19q22 17 33 42t9 53q2 26 -9.5 50.5
t-31.5 41.5q-12 9 -27 15t-30 7q-3 1 -6 1h-6q-9 0 -17.5 -1.5t-16.5 -3.5q-25 -7 -43 -24.5t-27 -41.5q-4 -11 -6 -22.5t-2 -23.5v-2.5t1 -3.5v-2.5v-3.5l-92 1q5 36 16 71.5t30 67.5q20 27 48.5 45.5t61.5 25.5q10 3 20 4t20 1h12.5t13.5 -2v1z" />
    <glyph glyph-name="at" unicode="@" horiz-adv-x="608" 
d="M258 667q11 1 23 2.5t24 1.5q8 0 16.5 -0.5t17.5 -2.5q8 -1 16.5 -3t16.5 -5q26 -6 50.5 -17.5t45.5 -27.5q20 -17 34.5 -38.5t24.5 -44.5q11 -30 17.5 -62t5.5 -64v-15.5t-1 -15.5q-1 -40 -12 -78t-32 -73q-11 -23 -28.5 -41.5t-39.5 -32.5q-8 -5 -17.5 -8.5t-19.5 -4.5
q-3 -1 -6.5 -1h-6.5h-7.5t-7.5 1q-12 1 -22 6t-17 14q-13 14 -20 31.5t-7 36.5q-3 -13 -8 -26t-12 -25q-10 -16 -25.5 -26t-34.5 -13q-9 -1 -17.5 2t-16.5 7q-18 14 -29.5 32.5t-16.5 40.5l-2 14t-1 14q-1 6 -1 13v14q0 18 2 35.5t5 34.5q4 24 11.5 47t17.5 45q8 14 17 28
t19 26q11 10 22 17.5t24 13.5q2 1 3.5 1.5t3.5 0.5h3.5h3.5h6t5 -1q11 -2 20.5 -6.5t18.5 -11.5q7 -5 12 -12.5t7 -16.5l10 38h56q-24 -63 -36.5 -129t-13.5 -134q0 -3 -0.5 -5.5t-0.5 -4.5q-1 -2 -1 -4.5v-5.5q0 -10 2 -19.5t6 -18.5q2 -7 6.5 -12t10.5 -9h2h2h1h2
q11 0 21 4t17 11q19 16 32.5 36.5t20.5 44.5q14 35 21.5 73t6.5 76q-1 30 -7.5 59.5t-18.5 57.5q-12 21 -28.5 39.5t-36.5 32.5q-19 15 -42 24.5t-48 10.5q-2 0 -4 0.5t-4 0.5h-5h-4q-20 0 -40 -4.5t-39 -13.5q-25 -13 -47.5 -31t-39.5 -41q-22 -25 -38 -55.5t-24 -64.5
q-10 -37 -13.5 -75t-1.5 -76q3 -38 12.5 -75.5t25.5 -72.5q8 -22 23.5 -42t35.5 -34q20 -15 42.5 -24.5t46.5 -14.5q5 -1 9.5 -1.5t9.5 -0.5q5 -1 9.5 -1h9.5q15 0 30 2.5t29 6.5q35 11 67.5 29.5t58.5 43.5q17 16 31.5 34.5t25.5 38.5l-4 -54q-22 -35 -52 -62.5t-66 -45.5
q-31 -14 -64 -22.5t-67 -9.5q-28 -1 -56.5 5t-54.5 19q-23 8 -43.5 23t-37.5 34q-25 31 -42 67t-25 75q-4 39 -5 78t0 79q4 38 14 75.5t25 72.5q16 34 39 63t52 52q25 20 53 32.5t59 17.5v1zM286 484q-8 -6 -15 -13t-13 -15q-4 -5 -7.5 -11t-6.5 -12q-16 -37 -26 -75
t-15 -77q-2 -19 -2.5 -37.5t0.5 -37.5q0 -2 0.5 -5t1.5 -5q1 -5 3.5 -10t4.5 -10q5 -4 10 -6t11 -2h0.5h1.5h1.5h0.5q4 0 7 1t5 2q9 8 16 16t12 18q17 35 28.5 72.5t17.5 75.5q3 15 4 30.5l2 31.5v15.5t-1 15.5v4t-1 4q-1 4 -2.5 8.5t-3.5 7.5q-3 5 -7.5 8.5t-9.5 4.5
q-1 1 -3.5 1h-4.5q-2 1 -4.5 0.5t-4.5 -1.5v1z" />
    <glyph glyph-name="A" unicode="A" horiz-adv-x="551" 
d="M261 679h10.5h10.5q16 0 31 -2.5t29 -7.5q20 -6 39 -15t36 -23q17 -13 31.5 -30.5t24.5 -37.5q9 -19 15 -38.5t8 -39.5l-1 -485h-87v297h-243v86h243v97q-2 14 -6.5 28t-11.5 27t-16 24t-20 19q-13 8 -27.5 13.5t-29.5 7.5q-3 1 -6.5 1.5t-7.5 0.5q-4 1 -7.5 1h-6.5h-6.5
t-6.5 -1q-3 0 -6.5 -0.5t-6.5 -1.5q-13 -2 -26.5 -7t-24.5 -13q-13 -8 -23.5 -19.5t-18.5 -25.5q-7 -11 -11.5 -23t-7.5 -24q-1 -11 -2.5 -21.5t-2.5 -21.5v-444h-86v455q1 5 2 11l2 12q4 18 9.5 36t12.5 35q9 19 20.5 36t26.5 32q15 14 32 26t36 19q20 8 40 12t40 4v1z" />
    <glyph glyph-name="B" unicode="B" horiz-adv-x="551" 
d="M284 681l52 -4q31 -8 58.5 -23.5t49.5 -37.5q19 -22 31.5 -48.5t17.5 -55.5q0 -2 0.5 -4.5t0.5 -4.5v-5.5v-4.5q0 -26 -7.5 -50.5t-21.5 -46.5q-7 -13 -17.5 -23t-22.5 -18q17 -10 32 -22t28 -26q22 -21 33 -49.5t9 -58.5q1 -30 -6.5 -58.5t-21.5 -54.5
q-17 -25 -40.5 -45t-52.5 -31q-5 -2 -10 -3.5t-10 -3.5q-6 -1 -11 -2t-10 -1h-181v87h170q23 4 42 19.5t28 37.5q5 13 7 26.5t1 27.5q2 26 -9 49.5t-31 39.5q-18 7 -36.5 11t-38.5 5l-133 1v86h130q23 3 43 16t33 33q7 12 10 26t2 28q1 23 -9 43.5t-28 34.5
q-10 9 -22.5 15.5t-26.5 9.5q-5 2 -10 3l-10 2q-5 0 -10 0.5t-10 0.5h-3.5h-3.5q-2 -1 -3.5 -1h-3.5q-25 0 -47.5 -10.5t-39.5 -29.5q-6 -11 -10.5 -22.5t-7.5 -24.5t-4 -27.5t0 -28.5v-458h-89v459q2 26 6.5 52.5t11.5 52.5q8 16 18 30t23 26q21 24 49.5 38.5t59.5 16.5z
" />
    <glyph glyph-name="C" unicode="C" horiz-adv-x="496" 
d="M464 674v-89q-5 0 -10.5 0.5t-10.5 0.5h-11.5h-10.5q-16 0 -32 -1t-32 -4q-25 -1 -48.5 -8.5t-46.5 -18.5q-18 -8 -34.5 -20t-30.5 -26t-25.5 -30.5t-19.5 -34.5q-9 -19 -15 -39.5t-8 -40.5q-2 -10 -3 -21t-1 -22q0 -10 1.5 -20t2.5 -21q4 -21 12 -40.5t20 -37.5
q23 -31 52 -56.5t63 -42.5q32 -10 65 -15t66 -5q14 0 28.5 1t28.5 3v-86h-69l-68 1q-26 2 -52 9t-50 18q-21 9 -40.5 21.5t-36.5 28.5q-18 14 -33 31t-28 36q-16 26 -27.5 54.5t-19.5 58.5q-3 31 -3.5 61.5t1.5 60.5q4 27 12.5 52.5t21.5 49.5q14 24 29.5 46.5t34.5 42.5
q15 17 33.5 30.5t38.5 23.5q30 16 61 26.5t64 16.5q21 4 42 6t42 2q12 0 24 -0.5t23 -2.5v1z" />
    <glyph glyph-name="D" unicode="D" horiz-adv-x="608" 
d="M57 676h188q29 -3 56.5 -10.5t53.5 -18.5t50 -26t46 -34q34 -34 59 -74.5t40 -86.5q8 -31 11 -63t1 -64q-2 -22 -8 -44.5t-15 -44.5q-13 -29 -29.5 -56t-37.5 -52q-16 -17 -34.5 -31.5t-38.5 -26.5q-33 -21 -70 -32.5t-77 -11.5q-16 -1 -32.5 -1t-33.5 1v87q6 -1 12 -1.5
t12 -0.5q5 0 11 0.5t12 0.5q12 0 24 1.5t24 2.5q20 5 39 13t37 18q14 9 25.5 19.5t21.5 22.5q15 16 27 33.5t22 36.5q8 20 11.5 42t3.5 44q2 20 0 39t-7 38q-6 23 -15.5 45.5t-23.5 42.5q-10 16 -23.5 29.5t-28.5 24.5q-16 12 -33.5 21t-37.5 16q-18 5 -36.5 8t-37.5 4
q-9 1 -18.5 1h-18.5h-20.5t-21.5 -2v-586h-89v676z" />
    <glyph glyph-name="E" unicode="E" horiz-adv-x="496" 
d="M348 674h99v-89q-13 1 -26.5 1.5t-26.5 0.5q-16 0 -32 -1.5t-32 -3.5q-23 -4 -45.5 -11.5t-42.5 -18.5q-17 -9 -32.5 -20t-29.5 -25q-23 -25 -37.5 -55.5t-19.5 -64.5l325 1v-88h-325q1 -34 12.5 -65t32.5 -57q14 -17 30 -32t35 -27q33 -17 69 -25.5t73 -8.5l73 1v-86
h-73l-71 2q-26 4 -51 12.5t-48 20.5q-22 11 -41.5 24.5t-37.5 29.5q-19 20 -36 42.5t-30 47.5q-10 20 -17 40.5t-11 42.5q-3 20 -5 40.5t-2 40.5q0 16 1.5 32.5t3.5 32.5q8 26 18.5 51t22.5 50q16 26 37 48.5t46 40.5q20 13 41 25t43 23q26 11 54 18t56 9v1z" />
    <glyph glyph-name="F" unicode="F" horiz-adv-x="387" 
d="M253 674h124v-87h-129q-13 0 -26 -2.5t-26 -7.5q-6 -3 -11.5 -6.5t-10.5 -8.5q-4 -5 -8 -11t-7 -12q-6 -9 -9 -19.5t-4 -21.5v-121h231v-86h-231v-291h-89v472l9 72q5 15 12 29.5t16 27.5q9 11 19 19.5t21 15.5q14 10 30 17t32 11q9 3 18.5 5t19.5 3q5 1 9.5 1h9.5v1z
" />
    <glyph glyph-name="G" unicode="G" horiz-adv-x="776" 
d="M330 676q14 0 27.5 0.5t27.5 0.5q13 0 27 -0.5t27 -1.5q22 -1 43 -7t40 -14q29 -13 55.5 -29t50.5 -36q8 -7 15 -14.5t13 -15.5l-60 -63l-23 20.5t-25 20.5q-13 9 -26 17t-27 15q-22 11 -46.5 17t-49.5 7q-5 1 -10.5 1h-11.5q-19 0 -38.5 -3t-38.5 -10
q-23 -7 -44.5 -19.5t-41.5 -29.5q-19 -16 -35 -35.5t-27 -42.5q-10 -25 -16 -50t-8 -51q-1 -25 2 -50t12 -49q8 -23 20 -45t28 -42q16 -19 34.5 -35t40.5 -29q23 -12 47 -19t49 -9q4 0 7.5 -0.5t7.5 -0.5q3 -1 6.5 -1h7.5q9 0 17.5 0.5t17.5 2.5q9 1 17.5 3t17.5 5
q24 7 46 18.5t41 27.5q20 17 35.5 37t26.5 42q10 20 14.5 40.5t2.5 42.5l-232 1v88h325v-116q-2 -26 -10 -49.5t-20 -46.5q-10 -22 -24 -41.5t-31 -37.5q-19 -19 -41.5 -35t-48.5 -28q-22 -12 -46.5 -19.5t-49.5 -10.5q-3 0 -6.5 -0.5t-6.5 -0.5q-3 -1 -6.5 -1h-6.5l-99 2
q-26 3 -51.5 11t-49.5 21q-25 14 -48.5 31t-43.5 38q-20 22 -36.5 46.5t-29.5 52.5q-12 34 -19.5 69t-9.5 71q5 42 15.5 82.5t25.5 79.5q13 28 31.5 51.5t41.5 42.5q18 17 39 30.5t44 22.5q23 10 48 17.5t50 11.5v1z" />
    <glyph glyph-name="H" unicode="H" horiz-adv-x="608" 
d="M57 672h93v-280h295v280h91v-672h-91v303h-295v-303h-93v672z" />
    <glyph glyph-name="I" unicode="I" horiz-adv-x="219" 
d="M59 672h97v-672h-97v672z" />
    <glyph glyph-name="J" unicode="J" horiz-adv-x="331" 
d="M185 672h98v-467q0 -20 -3.5 -38t-9.5 -36q-11 -29 -29.5 -54t-43.5 -44q-24 -15 -50.5 -23t-55.5 -10h-14h-15h-62v87h77q4 0 8.5 0.5t8.5 1.5q9 1 17.5 4l16.5 6q23 11 38 31t19 45v497z" />
    <glyph glyph-name="K" unicode="K" horiz-adv-x="551" 
d="M59 672h89v-280h79q14 -1 27 1t26 6q14 5 25 14t20 21q23 24 42 51.5t33 58.5q14 30 24 62t14 65l92 1q-6 -36 -17 -70.5t-26 -66.5t-34.5 -62t-42.5 -58q-8 -13 -20 -24.5t-26 -19.5q14 -2 27.5 -6.5t25.5 -11.5t23 -15.5t20 -19.5q8 -10 15.5 -21.5t12.5 -24.5t8.5 -27
t4.5 -28v-217h-91v194q-2 23 -11.5 45.5t-25.5 41.5q-16 11 -34 18.5t-38 8.5l-153 1v-309h-89v672z" />
    <glyph glyph-name="L" unicode="L" horiz-adv-x="387" 
d="M66 672h88v-462q0 -16 3 -30.5t8 -28.5q6 -13 14.5 -23.5t18.5 -19.5q20 -12 41.5 -18t44.5 -5l100 1v-86h-75h-36l-36 3q-34 4 -64.5 18t-55.5 37q-10 11 -19 23t-17 25q-6 17 -10 35t-5 37v494z" />
    <glyph glyph-name="M" unicode="M" horiz-adv-x="776" 
d="M170 678q17 -5 31.5 -14.5t24.5 -23.5l151 -471h10l145 472q8 15 23 24.5t32 11.5q10 1 19.5 0t19.5 -5q11 -6 19 -15t14 -20l91 -637h-94l-66 521h-9l-148 -494q-6 -12 -16 -19.5t-23 -8.5q-4 -2 -7.5 -2h-6.5t-6 0.5t-6 1.5q-12 1 -22 9t-16 18l-156 495h-9l-64 -521
h-91l79 621q5 16 17 30t28 22l6 2t7 2q3 0 6 0.5t6 0.5h3h3q1 0 2.5 -0.5t2.5 -0.5v1z" />
    <glyph glyph-name="N" unicode="N" horiz-adv-x="608" 
d="M115 677q4 0 8.5 0.5t8.5 0.5q7 0 13.5 -1.5t13.5 -3.5q10 -4 18 -10.5t15 -14.5l260 -518h2v542h89l-2 -617q-1 -11 -5 -21.5t-11 -19.5q-6 -7 -13 -11t-15 -6q-5 -2 -11 -3t-12 -1h-6t-6 1q-9 1 -18 3t-17 5q-8 5 -14.5 12.5t-11.5 15.5l-255 511h-4v-541h-89v596
q2 18 9 35.5t20 30.5q8 6 16 9.5t17 4.5v1z" />
    <glyph glyph-name="O" unicode="O" horiz-adv-x="776" 
d="M343 679q5 0 10 0.5t11 0.5h10h10q8 0 16 -0.5t16 -0.5l16 -2t16 -3q26 -4 50.5 -12.5t46.5 -20.5q26 -15 49.5 -33t43.5 -40q32 -29 52.5 -66.5t28.5 -79.5q4 -20 6 -41t2 -42q0 -31 -4.5 -61t-12.5 -59q-19 -51 -52 -94t-78 -74q-23 -16 -49 -28t-53 -20
q-25 -5 -51.5 -7.5t-52.5 -0.5q-29 1 -57.5 5t-56.5 13q-29 11 -56 27t-52 35q-31 26 -56 59t-42 70q-9 26 -15 52t-9 52q-1 53 11.5 104t36.5 97q30 47 71.5 83t90.5 60q25 11 51 17.5t52 8.5v1zM336 595q-28 -6 -55 -17.5t-50 -28.5q-28 -21 -50.5 -48t-37.5 -59
q-10 -27 -14.5 -55.5t-5.5 -57.5q2 -28 9 -56t18 -55q13 -26 31.5 -48.5t41.5 -39.5q23 -18 49 -30.5t54 -20.5q14 -3 27.5 -4.5t27.5 -1.5q8 0 15 0.5t15 1.5q7 0 14.5 1.5t14.5 3.5q29 7 55 19.5t48 31.5t40 41.5t31 48.5q12 26 18 54.5t5 56.5q0 29 -6 57.5t-18 55.5
q-12 26 -29.5 49t-40.5 40q-20 20 -45 33.5t-52 19.5q-17 5 -34.5 8t-34.5 3h-10t-10 -1q-6 0 -11 -1l-10 -2v1z" />
    <glyph glyph-name="P" unicode="P" horiz-adv-x="496" 
d="M250 679q20 0 39 -2.5t38 -8.5q17 -4 32 -11t29 -17q15 -10 28 -23t24 -28q21 -28 31.5 -62.5t10.5 -70.5q0 -38 -13.5 -73.5t-39.5 -64.5q-10 -13 -22.5 -24t-26.5 -19q-18 -10 -38 -17.5t-41 -10.5l-133 1v86h127q27 7 48.5 25t34.5 43q6 10 9.5 21t4.5 23q1 4 1 7.5
v7.5q0 13 -2.5 25t-7.5 24q-4 14 -11.5 25.5t-18.5 21.5q-10 10 -21.5 17.5t-24.5 11.5q-13 5 -26.5 6.5t-27.5 0.5q-13 0 -26.5 -3t-25.5 -10q-26 -13 -43 -36t-22 -52v-492h-91v522q4 17 12 34t19 31q10 14 22 25t25 20q14 11 29 19t31 13q17 7 33.5 10t33.5 4v1z" />
    <glyph glyph-name="Q" unicode="Q" horiz-adv-x="776" 
d="M366 678q10 0 19.5 -0.5t18.5 -0.5q19 -1 38.5 -4t37.5 -9q29 -7 56 -19t51 -29q24 -18 44 -39.5t36 -46.5q18 -24 31 -50.5t20 -55.5q6 -21 9 -43t3 -44v-14.5t-1 -14.5q-2 -29 -9.5 -57t-18.5 -54q-11 -27 -26.5 -51.5t-35.5 -46.5q-40 -40 -90.5 -67t-106.5 -37v-126
h-92v351h92v-130l5 -7q26 5 50 17t44 28q21 17 37.5 38t28.5 45t19 49.5t8 52.5q1 6 1 12v13t-0.5 13.5t-1.5 12.5q-1 13 -4 26.5t-7 25.5q-8 26 -21.5 49t-31.5 42q-17 20 -38 36t-45 28q-24 11 -50 16.5t-53 6.5q-26 0 -51.5 -5.5t-50.5 -15.5q-24 -10 -45.5 -24.5
t-40.5 -33.5t-33.5 -41t-24.5 -47q-8 -25 -12.5 -51.5t-3.5 -52.5q1 -27 7 -52.5t17 -49.5t27 -45.5t36 -38.5q22 -22 49 -36.5t57 -20.5v-83q-23 2 -45.5 7t-43.5 14q-22 11 -43 25t-40 32q-22 19 -40.5 42t-32.5 49t-23.5 54t-13.5 57q-1 11 -1.5 22.5t-0.5 22.5
q0 17 1.5 34.5t4.5 34.5q5 29 14 56t22 52q17 28 37.5 52t45.5 45q22 18 47 33t52 25q26 10 54.5 16t57.5 7v1z" />
    <glyph glyph-name="R" unicode="R" horiz-adv-x="551" 
d="M267 679q20 0 39 -2.5t38 -8.5q32 -10 59 -28t48 -44q18 -25 27.5 -55t8.5 -62q0 -14 -2.5 -27.5t-7.5 -27.5q-10 -27 -28.5 -49t-43.5 -37q26 -10 47.5 -28.5t34.5 -43.5q7 -15 10.5 -30t3.5 -31v-7.5t-1 -7.5v-190h-99v200v9.5t-1 11.5q-1 5 -3 10.5l-4 10.5
q-6 10 -14.5 18t-18.5 14q-16 8 -32.5 12t-34.5 4l-110 1v84h107q14 1 26.5 5t24.5 10q11 6 20.5 14t16.5 18q6 11 9.5 23t4.5 24q0 2 0.5 4.5t0.5 5.5q1 2 1 4.5v4.5q0 8 -1.5 16.5t-4.5 16.5q-4 12 -11 23t-16 20q-11 9 -24.5 15t-27.5 9q-9 3 -18.5 4.5t-19.5 1.5h-4h-4
t-4 -0.5t-4 -0.5q-13 -1 -26 -5t-24 -11q-13 -8 -24 -19t-19 -24q-8 -16 -11.5 -33t-2.5 -35v-466h-94v510q5 19 14 37.5t19 34.5q9 14 19.5 25t22.5 20q14 11 28 19.5t30 14.5q20 8 40 12t40 5v1z" />
    <glyph glyph-name="S" unicode="S" horiz-adv-x="496" 
d="M209 676h221v-92h-244q-10 -2 -19.5 -6t-17.5 -10q-7 -5 -13 -12t-11 -15q-4 -7 -6.5 -16t-1.5 -18t4 -17t7 -16q7 -11 16.5 -20t20.5 -15l203 -111q29 -19 51 -45.5t35 -58.5q2 -12 3.5 -24t1.5 -25v-5.5v-5.5t-0.5 -5.5t-0.5 -5.5q-3 -28 -13.5 -53.5t-27.5 -47.5
q-18 -21 -42.5 -34t-52.5 -17q-2 -1 -4.5 -1h-5.5h-2h-2h-2h-2h-281v86h270q12 1 23.5 6t21.5 12q8 5 13.5 12t9.5 15q2 5 3.5 10t1.5 10q1 5 1 10v10q-1 10 -3 19.5t-7 17.5q-7 11 -17 21t-21 17q-55 35 -112 67.5t-116 62.5q-22 20 -38 44.5t-25 52.5q-1 6 -1.5 12.5
t-0.5 13.5v7.5t1 7.5q0 3 0.5 6.5t1.5 7.5q2 14 5.5 28t9.5 27q17 26 39.5 45.5t50.5 31.5q15 6 31 9.5t32 4.5z" />
    <glyph glyph-name="T" unicode="T" horiz-adv-x="444" 
d="M1 676h427v-90h-166v-586h-94v586h-167v90z" />
    <glyph glyph-name="U" unicode="U" horiz-adv-x="551" 
d="M47 676h91l-1 -488q2 -15 8 -29t14 -26q8 -11 18 -20t23 -15q14 -7 28.5 -12t30.5 -7q15 -1 29.5 1t27.5 7q14 4 26.5 10.5t22.5 16.5q11 12 18.5 26.5t11.5 29.5q3 12 4.5 24.5t1.5 25.5v456h90v-473q-4 -41 -20.5 -79t-44.5 -69q-13 -14 -29.5 -25.5t-34.5 -19.5
q-13 -6 -27.5 -9t-28.5 -4q-5 -1 -9.5 -1.5t-9.5 -0.5q-5 -1 -9.5 -1h-9.5q-9 0 -18 0.5t-18 2.5q-17 2 -33.5 6t-31.5 11q-18 9 -33.5 21t-28.5 28q-12 12 -21.5 26.5t-17.5 29.5q-7 17 -12 35.5t-7 37.5v484z" />
    <glyph glyph-name="V" unicode="V" horiz-adv-x="551" 
d="M-2 676h95l183 -545h11l170 545h91l-201 -627q-2 -14 -9 -24.5t-17 -18.5q-8 -6 -18 -9t-21 -2h-2h-1h-2h-2q-12 -1 -23 2.5t-19 10.5q-11 13 -20 27.5t-14 30.5z" />
    <glyph glyph-name="W" unicode="W" horiz-adv-x="883" 
d="M54 676h88v-491q2 -31 18 -56.5t42 -41.5q10 -5 21 -8.5t23 -4.5h7.5h7.5q14 -1 27 2.5t26 8.5q13 7 24.5 16.5t20.5 20.5q8 13 14 27.5t7 29.5q1 5 1.5 10.5t0.5 11.5v475h91v-468q-1 -16 1 -31t6 -29q13 -28 37.5 -47t55.5 -24q4 -1 8.5 -2t8.5 -2q4 0 8.5 -0.5
t8.5 -0.5q7 0 13.5 1l13.5 2q27 5 48 22.5t31 42.5q5 15 7 30t2 31v475h90v-489q0 -19 -3 -36.5t-10 -34.5q-13 -34 -36.5 -60.5t-55.5 -43.5q-16 -7 -33.5 -11.5t-34.5 -5.5q-4 -1 -9 -1.5t-9 -0.5q-5 -1 -9.5 -1h-9.5h-10t-10 1q-6 0 -11 1l-10 2q-17 2 -34 7t-32 13
q-17 10 -32.5 22.5t-29.5 27.5q-13 -15 -28 -27t-32 -21q-16 -9 -32.5 -14.5t-33.5 -7.5q-12 -2 -24 -3.5t-24 -1.5h-11.5t-10.5 1q-19 1 -37 5.5t-35 11.5q-16 7 -30.5 17t-27.5 22q-20 20 -33.5 45t-19.5 53v530z" />
    <glyph glyph-name="X" unicode="X" horiz-adv-x="551" 
d="M536 676v-88q-20 -2 -40 -5.5t-39 -10.5q-13 -4 -25 -11.5t-22 -16.5q-16 -13 -30 -28.5t-25 -32.5q-19 -34 -29 -71.5t-9 -76.5q0 -6 0.5 -12t0.5 -12q2 -18 6 -36t10 -35q13 -37 35.5 -67.5t53.5 -53.5q26 -15 55 -24t60 -11v-84q-20 -1 -39.5 0.5t-38.5 6.5
q-20 5 -39 13.5t-36 18.5q-19 14 -36 29.5t-31 33.5q-13 17 -24 36.5t-19 39.5q0 2 -0.5 3.5t-1.5 2.5q-1 2 -1.5 3.5t-0.5 2.5q-7 -21 -17 -40.5t-24 -36.5q-14 -21 -32.5 -38t-39.5 -31q-2 -1 -3.5 -2t-3.5 -2q-4 -2 -7 -4t-7 -4l-47 -18l-46 -13l-40 -1v87q32 0 62.5 9.5
t56.5 28.5q34 23 57 56t31 72q5 15 7.5 30.5t3.5 31.5q1 8 1 15.5t-1 15.5q0 31 -7.5 60.5t-21.5 56.5q-14 28 -34 51t-45 40q-14 10 -30 16.5t-33 10.5q-12 4 -24 5.5t-25 2.5v86q23 0 44.5 -2.5t42.5 -9.5q19 -5 37 -13.5t34 -20.5q19 -13 36 -28.5t30 -34.5
q16 -19 28 -40t20 -44q8 23 18.5 45.5t24.5 43.5q13 17 28 31.5t32 26.5q18 12 37 21t40 14q20 7 40.5 9.5t41.5 1.5v1z" />
    <glyph glyph-name="Y" unicode="Y" horiz-adv-x="496" 
d="M23 676h95v-217q1 -14 4.5 -27.5t9.5 -25.5q5 -11 13 -20.5t18 -17.5q11 -7 23 -12.5t25 -7.5q4 -1 8 -1.5t8 -0.5q4 -1 8 -1h8h5.5h5.5t5.5 0.5t5.5 0.5q14 2 27 6.5t25 11.5q11 6 19 14.5t15 18.5q7 13 10.5 27t4.5 28v224h96v-231q-1 -17 -4.5 -32.5t-9.5 -29.5
q-4 -14 -11.5 -26.5t-18.5 -23.5q-22 -26 -52 -44.5t-64 -26.5q-1 0 -2 -0.5l-3 -1.5q-1 -1 -2 -1.5t-3 -0.5v-258h-95v259q-37 7 -69 26t-56 47q-10 13 -18.5 27t-13.5 30q-7 20 -11.5 41t-5.5 43v203z" />
    <glyph glyph-name="Z" unicode="Z" horiz-adv-x="496" 
d="M48 675h353q9 -3 17 -7t15 -10q8 -7 14 -15t9 -18q2 -5 2 -11v-12v-5.5t-1 -5.5q0 -3 -0.5 -5.5t-0.5 -5.5l-336 -487v-6h346v-87h-392q-17 2 -31.5 12.5t-22.5 25.5q-4 8 -5.5 17t-1.5 19q2 17 8.5 34t16.5 31l314 445v7h-304v84z" />
    <glyph glyph-name="bracketleft" unicode="[" horiz-adv-x="387" 
d="M110 672h171v-43h-85v-757h85v-43h-171v843z" />
    <glyph glyph-name="backslash" unicode="\" horiz-adv-x="608" 
d="M44 638h62l426 -651h-55z" />
    <glyph glyph-name="bracketright" unicode="]" horiz-adv-x="387" 
d="M101 672h167v-843h-169v41h84v757h-82v45z" />
    <glyph glyph-name="asciicircum" unicode="^" horiz-adv-x="331" 
d="M126 663h68l97 -141h-43l-87 101l-88 -101h-43z" />
    <glyph glyph-name="underscore" unicode="_" horiz-adv-x="608" 
d="M0 -29h608v-46h-608v46z" />
    <glyph glyph-name="grave" unicode="`" 
 />
    <glyph glyph-name="a" unicode="a" horiz-adv-x="551" 
d="M279 466q4 -1 8.5 -1h8.5q25 -1 49.5 -8t46.5 -20q13 -5 24 -12.5t21 -17.5q26 -24 42 -55.5t20 -66.5v-285h-82v265q-1 14 -5.5 29t-12.5 28q-15 26 -40 43t-55 22q-7 2 -15.5 2.5t-16.5 0.5h-6.5t-6.5 -1q-3 0 -6.5 -0.5t-6.5 -0.5q-31 -1 -58 -15.5t-44 -40.5
q-13 -21 -20 -45t-7 -50v-6.5v-7.5t0.5 -7.5t1.5 -6.5q1 -15 5 -29.5t11 -28.5q7 -13 16 -24.5t19 -21.5q11 -10 24 -17t27 -11q11 -4 23 -6t24 -2h3.5t2.5 1h3.5h2.5q14 1 26.5 5t24.5 11q13 8 24.5 18.5t19.5 22.5v-96q-23 -17 -50 -26t-56 -11q-6 -1 -11.5 -1h-11.5
q-12 1 -23.5 2.5t-22.5 4.5q-19 4 -36.5 13t-33.5 21q-14 11 -27 23.5t-24 26.5q-11 15 -20 31.5t-15 33.5q-6 20 -9 40.5t-3 41.5q0 19 3 37.5t8 36.5q6 19 15 36.5t20 33.5q11 14 23.5 26t26.5 22q14 11 30.5 19t33.5 12q21 6 43 9t44 2v1z" />
    <glyph glyph-name="b" unicode="b" horiz-adv-x="551" 
d="M45 673h81v-453q1 -32 13 -59.5t33 -49.5q11 -11 23.5 -19.5t26.5 -13.5q15 -4 30.5 -6.5t31.5 -1.5q15 0 29.5 3.5t27.5 10.5q14 7 26 16.5t22 21.5t17.5 25t12.5 26q5 15 8 30.5t3 31.5q0 5 -0.5 9.5t-0.5 9.5q-1 10 -3.5 19.5t-5.5 18.5q-8 30 -29.5 53t-50.5 33
q-14 6 -29 9t-30 4q-34 2 -66 -8t-58 -30v84q18 10 37.5 16.5t40.5 9.5q11 2 22.5 2.5t22.5 0.5t22.5 -0.5t22.5 -2.5q41 -7 76.5 -28.5t60.5 -56.5q14 -16 24 -35t17 -39q2 -8 3.5 -16.5t2.5 -16.5q1 -9 1.5 -17.5t0.5 -16.5q0 -25 -4 -49t-12 -47q-13 -40 -41 -72t-66 -52
q-19 -10 -39 -15t-41 -7q-4 -1 -8.5 -1.5t-8.5 -0.5h-8.5h-8.5q-13 0 -25 1t-24 4q-42 5 -78 27.5t-61 56.5q-14 18 -24.5 39t-16.5 43v509z" />
    <glyph glyph-name="c" unicode="c" horiz-adv-x="387" 
d="M255 466h110v-83h-87h-28q-15 -5 -29 -11t-27 -14q-13 -9 -23.5 -19.5t-18.5 -23.5q-7 -11 -12.5 -23.5t-8.5 -26.5l-2 -18t-1 -18v-9.5t1 -9.5q2 -15 7 -29t12 -27q7 -11 15 -21t18 -18q11 -10 23.5 -17.5t25.5 -12.5q23 -6 46 -9t46 -2q10 -1 20.5 -0.5t20.5 1.5v-75
h-82l-49 2q-22 4 -42.5 12t-39.5 19q-15 9 -28.5 21t-25.5 25q-10 12 -19 25.5t-16 27.5q-5 11 -9 22.5t-7 23.5l-2 11.5l-2 11.5q-1 20 0 39t5 38q3 17 9 32.5t14 30.5q11 19 25 36t30 32q11 10 22.5 18.5t24.5 15.5q20 9 41 15t43 7v1z" />
    <glyph glyph-name="d" unicode="d" horiz-adv-x="551" 
d="M414 673h86v-452q-1 -30 -9 -57.5t-22 -53.5q-9 -20 -22.5 -37.5t-30.5 -31.5q-17 -13 -36.5 -23t-40.5 -17q-10 -1 -21.5 -3.5t-22.5 -3.5q-5 0 -10.5 -0.5t-11.5 -0.5h-5.5h-4.5t-4.5 0.5t-5.5 0.5q-22 0 -43.5 4t-41.5 12q-19 10 -36.5 23.5t-31.5 29.5
q-15 16 -27.5 34.5t-21.5 38.5q-8 20 -13 41t-6 43q-1 44 12 86t38 77q29 34 67 56t81 29q40 2 78.5 -6t73.5 -25v-83q-15 10 -31.5 18t-33.5 14q-14 5 -28.5 6.5t-28.5 0.5q-14 0 -28 -3.5t-27 -9.5q-28 -10 -49.5 -31.5t-31.5 -50.5q-6 -14 -8.5 -29t-2.5 -30t3 -29.5
t8 -28.5q9 -27 26 -50.5t40 -40.5q13 -7 26.5 -11.5t28.5 -6.5q6 -1 12 -1.5t12 -0.5q8 0 16.5 1l16.5 2q14 4 27.5 10t24.5 16q23 16 39 39.5t21 51.5v483z" />
    <glyph glyph-name="e" unicode="e" horiz-adv-x="552" 
d="M248 472h16t16 -1q16 -1 32.5 -3.5t31.5 -7.5q23 -7 45 -18.5t41 -26.5q21 -19 37.5 -41t28.5 -48l-305 -174l-39 68l223 129q-9 10 -19.5 19t-24.5 16q-14 6 -29.5 10t-31.5 5q-15 0 -29.5 -2.5t-28.5 -7.5q-31 -10 -54 -34t-33 -56q-2 -7 -3.5 -14.5t-2.5 -14.5
t-1 -14.5v-14.5q1 -23 7.5 -44.5t18.5 -41.5q11 -19 27.5 -35.5t35.5 -28.5q17 -9 35.5 -13t37.5 -4q11 0 21.5 1t20.5 4q14 5 27 12t25 15q13 9 23 20.5t17 24.5q6 15 9.5 30.5t4.5 31.5l84 -17q-2 -26 -10 -49t-21 -44t-30 -38.5t-37 -31.5q-21 -14 -43.5 -23t-46.5 -12
l-12 -2l-12 -2h-13h-12q-12 0 -24 1t-24 3q-24 2 -47 11.5t-43 23.5q-37 31 -61.5 72.5t-35.5 88.5q-1 8 -1 15.5v14.5v11.5t1 10.5q0 11 1.5 22.5t3.5 21.5q5 24 14 46.5t22 43.5q14 20 32.5 36.5t40.5 28.5t45.5 18.5t48.5 7.5v1z" />
    <glyph glyph-name="f" unicode="f" horiz-adv-x="276" 
d="M214 678q11 1 20.5 1.5t19.5 0.5t19.5 -0.5t19.5 -2.5v-77h-74l-31 -5q-9 -5 -17 -10.5t-15 -12.5q-4 -4 -7 -7.5t-5 -8.5q-1 -3 -1.5 -5.5t-1.5 -5.5t-1.5 -5.5t-0.5 -5.5v-68h144v-82h-144v-384h-85v531q1 13 4 26t9 25q5 14 13 25.5t18 21.5t21 17t24 13q17 7 35 11.5
t36 6.5v1z" />
    <glyph glyph-name="g" unicode="g" horiz-adv-x="551" 
d="M259 466q11 0 22.5 -0.5t21.5 -2.5q26 -3 51 -11.5t47 -22.5q20 -15 37 -33.5t30 -40.5q12 -22 20 -45.5t11 -49.5v-275q-2 -18 -6 -35.5t-12 -33.5q-8 -18 -18.5 -34t-23.5 -30q-15 -14 -32 -25.5t-35 -21.5q-23 -8 -47 -13.5t-48 -6.5q-17 -1 -34.5 -0.5t-34.5 2.5
q-25 4 -49 10t-47 14l16 74q27 -9 55 -15t56 -8q7 -1 13.5 -1.5t12.5 -0.5q24 0 46.5 6.5t42.5 19.5q11 7 20.5 15.5t16.5 19.5q7 12 12 24.5t9 25.5q2 11 3.5 21.5t1.5 20.5v216q2 31 -8.5 61t-31.5 54q-22 23 -50 35t-59 13q-15 -1 -30 -4t-29 -8q-26 -7 -47 -25t-33 -44
q-6 -16 -9.5 -33t-4.5 -34q0 -3 -0.5 -5.5t-0.5 -4.5v-4.5v-5.5q0 -24 7.5 -46.5t22.5 -42.5q11 -13 22.5 -24.5t24.5 -22.5q10 -6 21 -9.5t23 -5.5q4 0 7.5 -0.5t7.5 -0.5q5 -1 10.5 -1h10.5q11 0 20.5 1t19.5 3q19 5 37 12t34 17v-76q-12 -10 -26 -17t-28 -11
q-15 -3 -30 -4.5t-30 -1.5h-11.5t-11.5 1q-6 0 -11.5 1l-11.5 2q-25 3 -48.5 12.5t-43.5 24.5q-21 17 -38.5 37t-30.5 43q-12 23 -18.5 49t-7.5 52t3 52t14 51q9 24 23.5 45.5t33.5 39.5q31 29 69.5 44.5t80.5 16.5v1z" />
    <glyph glyph-name="h" unicode="h" horiz-adv-x="496" 
d="M50 668h86v-254q23 21 51.5 35t59.5 19q4 1 7.5 1h7.5q10 0 19.5 -1.5t19.5 -3.5q29 -7 53 -22t43 -37q20 -26 30.5 -57t9.5 -63v-285h-85v307q-1 11 -5.5 21.5t-12.5 20.5q-13 20 -33.5 31t-44.5 12q-13 0 -25.5 -3t-23.5 -9q-13 -4 -23.5 -12t-18.5 -18
q-14 -21 -21 -45t-8 -50v-255h-86v668z" />
    <glyph glyph-name="i" unicode="i" horiz-adv-x="276" 
d="M93 463h88v-465h-88v465zM133 621q13 0 24 -5.5t18 -15.5q3 -4 5.5 -9t4.5 -10q0 -2 0.5 -3.5t0.5 -3.5q0 -1 0.5 -2.5t0.5 -2.5v-3v-3q0 -3 -0.5 -5.5t-0.5 -4.5q-1 -2 -2 -4.5t-2 -5.5q-4 -6 -8.5 -11t-10.5 -9q-8 -3 -17 -4.5t-18 -1.5q-7 1 -13.5 4t-12.5 7
q-6 5 -10.5 11.5t-7.5 13.5v2.5v2.5q-1 1 -1 2.5v2.5q1 14 6 26t15 22q5 3 10.5 5.5t10.5 2.5q2 1 4 1h4v1z" />
    <glyph glyph-name="j" unicode="j" horiz-adv-x="219" 
d="M65 463h89v-509q-2 -23 -7.5 -45t-15.5 -43q-5 -13 -13.5 -23.5t-19.5 -18.5q-10 -10 -22 -17.5t-26 -11.5q-20 -5 -40.5 -7.5t-42.5 -1.5h-27v78q4 0 6.5 -0.5t5.5 -0.5h5.5h5.5h9t9 1q14 1 27 4.5t25 9.5q14 10 22.5 25t9.5 32v528zM115 619q14 -2 25.5 -10.5
t18.5 -20.5q2 -5 2.5 -10.5t0.5 -10.5q0 -8 -1.5 -16t-5.5 -16q-5 -7 -12.5 -12t-15.5 -8q-1 -1 -3 -1.5t-3 -0.5h-3.5h-3.5q-3 0 -6 0.5t-6 1.5q-9 2 -17 6t-15 11q-5 7 -7.5 15t-3.5 16q0 14 6 27t17 21q6 4 12.5 6t13.5 2h2h2q0 -1 1 -1h2v1z" />
    <glyph glyph-name="k" unicode="k" horiz-adv-x="444" 
d="M53 673h84v-383q8 -2 15.5 -3t14.5 -1h8t8 1q3 0 7 1l8 2q17 6 33 16t29 23q21 16 37 36t26 44l12 54h84q-8 -29 -21.5 -56.5t-30.5 -52.5q-11 -16 -23.5 -30.5t-26.5 -27.5l-35 -24q16 -3 31.5 -9t29.5 -14q22 -14 35 -36t16 -48v-165h-81v149q-1 9 -4.5 18t-9.5 16
q-13 13 -30 19.5t-35 4.5l-97 1v-208h-84v673z" />
    <glyph glyph-name="l" unicode="l" horiz-adv-x="219" 
d="M66 673h84v-673h-84v673z" />
    <glyph glyph-name="m" unicode="m" horiz-adv-x="719" 
d="M187 466q8 1 16.5 1h15.5q8 0 16 -0.5t15 -1.5q31 -6 58 -21t47 -38q22 26 52 41t64 18q18 1 35.5 -0.5t34.5 -6.5q14 -3 26 -8.5t22 -13.5q11 -8 21 -17.5t18 -20.5q10 -16 16.5 -33t10.5 -36v-329h-83v294q-1 13 -4 26t-8 26q-10 17 -26.5 29t-36.5 15q-4 1 -8 1.5
t-9 0.5q-15 0 -29.5 -5.5t-26.5 -16.5q-13 -12 -21 -29t-8 -36v-305h-85v301q-1 21 -9.5 40.5t-23.5 33.5q-7 6 -16 10t-18 5q-3 0 -5.5 0.5t-4.5 0.5q-2 1 -4.5 1h-5.5q-6 0 -11.5 -0.5t-10.5 -2.5q-21 -5 -37 -20t-24 -35q-3 -10 -4.5 -19.5t-1.5 -20.5v-3t1 -3v-3.5v-3.5
v-281h-85v312q0 13 2.5 25.5t6.5 25.5q11 25 29 45.5t41 35.5q14 8 28.5 13t29.5 8v1z" />
    <glyph glyph-name="n" unicode="n" horiz-adv-x="496" 
d="M215 466q4 -1 8 -0.5t8 0.5q4 1 8 1h8q14 0 28.5 -1.5t28.5 -5.5q16 -3 30.5 -9.5t27.5 -15.5q29 -20 50 -49t29 -64v-322h-85v282q-1 13 -5.5 25.5t-11.5 24.5q-11 23 -31.5 38t-46.5 18q-3 0 -5.5 0.5t-4.5 0.5q-2 1 -4.5 1h-5.5q-8 0 -16.5 -1.5t-16.5 -4.5
q-24 -6 -42.5 -22t-26.5 -39l-4 -20t-3 -19q-1 -10 -1.5 -20t-0.5 -20v-244h-86v272q0 37 14.5 72.5t39.5 63.5q24 23 54 38t63 19v1z" />
    <glyph glyph-name="o" unicode="o" horiz-adv-x="551" 
d="M286 467q17 0 34.5 -3t33.5 -9q25 -9 47.5 -23t41.5 -33t33.5 -42t22.5 -49q8 -25 10.5 -52t0.5 -54q-2 -26 -11 -51t-23 -48t-33 -42.5t-42 -34.5q-22 -13 -47.5 -21t-51.5 -10q-5 -1 -9.5 -1.5t-9.5 -0.5q-5 -1 -9.5 -1h-9.5q-17 0 -33.5 2t-33.5 6q-25 8 -48.5 21.5
t-43.5 30.5q-19 19 -34.5 41.5t-25.5 47.5q-7 20 -11 40t-4 41v6v6q0 2 0.5 5t0.5 6q2 27 10.5 53t21.5 49q14 23 31.5 42.5t39.5 35.5q23 15 48 24.5t51 13.5q13 2 26.5 3t26.5 0v1zM298 386q-4 0 -7.5 0.5t-6.5 0.5q-4 1 -7.5 1h-7.5q-5 0 -10 -0.5t-10 -0.5l-10 -2
t-10 -3q-20 -5 -37 -15.5t-31 -26.5q-12 -13 -21 -27t-15 -31q-4 -17 -6 -35t-1 -36q1 -17 6 -34t13 -32q8 -16 20 -28.5t26 -23.5q15 -10 31.5 -16.5t33.5 -8.5q6 -1 12 -1.5t11 -0.5q12 0 24 2t23 6q17 5 31.5 14t27.5 22q13 11 23 26t16 31q5 12 7 24t2 25v10.5t-1 10.5
q1 18 -3 35t-12 33q-8 17 -20 30.5t-26 23.5q-14 11 -30.5 17.5t-34.5 8.5v1z" />
    <glyph glyph-name="p" unicode="p" horiz-adv-x="551" 
d="M272 466q22 0 43.5 -2.5t42.5 -8.5q41 -15 74.5 -43.5t55.5 -66.5q9 -19 15 -39.5t8 -42.5q0 -4 0.5 -8t0.5 -8q1 -4 1 -8v-8q0 -15 -1.5 -29.5t-5.5 -28.5q-5 -22 -14 -43t-22 -40q-11 -19 -26 -34.5t-33 -28.5q-18 -12 -38.5 -19.5t-41.5 -9.5q-6 -2 -12.5 -2.5
t-13.5 -1.5t-13.5 -1h-12.5h-8.5h-8.5q-5 0 -9 0.5t-9 1.5q-23 2 -44 10t-38 23v85q16 -15 35 -24.5t40 -14.5q10 -2 19.5 -3.5t19.5 -0.5h9.5t9.5 1q4 0 9 1t9 2q17 4 31.5 11.5t27.5 17.5q28 21 43 52.5t14 65.5q2 22 -1 43t-11 41q-10 16 -21.5 31t-24.5 28
q-13 9 -27 15.5t-30 9.5q-10 2 -19.5 3.5t-19.5 1.5h-6t-5 -1q-3 0 -6 -0.5t-6 -0.5q-37 -7 -66 -30t-44 -58q-7 -22 -11 -45t-4 -47v-420h-82v458q1 21 6 42.5t14 40.5q10 20 22 37.5t28 32.5q15 15 33.5 27t38.5 20t41.5 11.5t43.5 3.5v1z" />
    <glyph glyph-name="q" unicode="q" horiz-adv-x="551" 
d="M264 466q5 -1 10.5 -1h11.5q16 -1 32.5 -4.5t31.5 -9.5q21 -8 40 -19.5t35 -26.5q17 -16 30.5 -35t23.5 -40q10 -22 15 -44.5t6 -45.5v-448h-87v467q-3 29 -18 55.5t-39 44.5q-11 9 -24 15.5t-27 10.5q-10 2 -19.5 3.5t-19.5 1.5h-8.5t-9.5 -1q-15 -1 -28.5 -6t-26.5 -13
q-18 -11 -32.5 -27t-25.5 -35q-10 -21 -14 -43.5t-3 -45.5q1 -30 12 -57t30 -50q11 -10 23.5 -18.5t25.5 -13.5q15 -6 30.5 -9t31.5 -3q14 0 28 2.5t27 7.5q15 6 28.5 14.5t25.5 19.5v-83q-16 -15 -35 -22.5t-40 -9.5q-6 -2 -11.5 -2.5t-11.5 -1.5t-11.5 -1h-11.5
q-10 0 -20.5 1t-21.5 3q-22 2 -42.5 9t-38.5 19q-19 11 -34.5 27t-26.5 34q-23 37 -34 79t-9 85q4 44 23 84t51 71q15 15 33.5 27t38.5 20q21 8 42.5 11.5t43.5 2.5v1z" />
    <glyph glyph-name="r" unicode="r" horiz-adv-x="276" 
d="M274 466v-74q-15 0 -30 -1.5t-29 -5.5q-13 -4 -24.5 -10.5t-22.5 -15.5q-10 -10 -18 -21.5t-13 -25.5q-4 -16 -6 -31.5t-2 -31.5v-249h-85v463h80v-57q8 10 17.5 20t21.5 17q11 7 24 12t26 7q10 2 19.5 3.5t19.5 1.5h5.5t5.5 -1q3 0 5.5 -0.5t5.5 -0.5v1z" />
    <glyph glyph-name="s" unicode="s" horiz-adv-x="444" 
d="M150 463h242v-77h-238q-7 -1 -14 -3.5t-13 -7.5q-4 -4 -7 -10.5t-4 -13.5q0 -1 -0.5 -2l-0.5 -1v-2v-2q0 -2 0.5 -4t0.5 -4q1 -3 2 -5l2 -4q2 -4 6.5 -8t8.5 -6l209 -77q25 -11 42.5 -31.5t23.5 -46.5q2 -9 3 -18t1 -18v-8.5t-1 -9.5q-5 -27 -20.5 -49.5t-38.5 -36.5
q-16 -9 -33.5 -13.5t-35.5 -4.5h-257v76h259q12 3 21.5 12t13.5 22q1 2 1 5v6q0 5 -1 10t-3 10q-4 8 -11.5 14t-16.5 9l-196 74q-13 4 -24 12t-20 19q-12 16 -18 35t-6 38v7.5t1 7.5q4 26 18 48t36 36q16 9 33 14.5t35 6.5v1z" />
    <glyph glyph-name="t" unicode="t" horiz-adv-x="331" 
d="M58 583h86v-120h170v-77h-168v-263q0 -3 0.5 -4.5t0.5 -3.5q2 -8 5.5 -15t9.5 -12q8 -6 18.5 -9t20.5 -4l111 1v-76h-139q-13 1 -26 5t-24 11q-13 7 -24.5 17t-19.5 23q-7 11 -11.5 22.5t-6.5 23.5q-1 6 -1.5 11.5t-0.5 10.5q-1 5 -1 10.5v11.5v437z" />
    <glyph glyph-name="u" unicode="u" horiz-adv-x="496" 
d="M46 463h85v-278q0 -15 3 -29t9 -28q7 -13 16.5 -24t21.5 -19q10 -5 20.5 -8t20.5 -3l12 -2t12 -1l15.5 2l14.5 2q12 4 23 10t20 14q10 8 16.5 18.5t10.5 22.5q3 11 4.5 22t2.5 22v279h86v-307q-1 -16 -5 -30.5t-11 -28.5q-6 -13 -14.5 -25.5t-19.5 -23.5t-24 -20t-27 -16
q-13 -7 -28 -11t-31 -5q-9 -2 -18 -2.5t-18 -0.5t-18 0.5t-17 2.5q-14 1 -27.5 3.5t-26.5 8.5q-16 6 -30 15t-26 20q-10 11 -19 23t-15 25q-8 15 -12.5 31t-5.5 33v308z" />
    <glyph glyph-name="v" unicode="v" horiz-adv-x="444" 
d="M-2 463h84l137 -352h6l130 352h90l-164 -427q-4 -11 -10.5 -18.5t-14.5 -14.5q-7 -4 -15.5 -6.5t-18.5 -2.5q-9 -1 -17.5 0.5t-16.5 5.5t-15 10.5t-12 14.5l-154 396q-3 10 -5 20.5t-3 20.5z" />
    <glyph glyph-name="w" unicode="w" horiz-adv-x="719" 
d="M50 463h85v-295q-1 -23 8 -44t26 -36q11 -7 21.5 -11.5t21.5 -7.5q4 -1 7.5 -1h7.5q5 0 10.5 1l10.5 2q20 5 35 20t22 34q3 8 4.5 16.5t1.5 16.5v305h84v-286q0 -3 -0.5 -4.5t-0.5 -3.5v-3.5v-3.5q0 -19 7 -37t20 -32q14 -12 30.5 -18.5t35.5 -6.5h2.5t2.5 1h2.5h2.5
q3 0 5.5 0.5t5.5 1.5q6 1 11.5 3t10.5 5q8 5 14.5 10.5t11.5 12.5q6 11 10 22.5t5 23.5q1 4 1 8v8v299h83v-333q-2 -15 -7 -28.5t-12 -26.5q-6 -12 -14 -22.5t-18 -19.5q-10 -10 -21 -18t-23 -15q-13 -3 -27.5 -5t-28.5 -2h-14h-13l-14 2t-14 3q-21 1 -39.5 11t-32.5 26
q-6 5 -10.5 11.5l-9.5 13.5q-4 -8 -10 -15.5l-12 -14.5q-15 -18 -36.5 -26.5t-44.5 -8.5q-4 -1 -8.5 -1.5t-8.5 -0.5q-4 -1 -8.5 -1h-8.5h-8.5t-8.5 1q-4 0 -8.5 0.5t-8.5 1.5q-13 2 -26 5.5t-25 10.5q-13 8 -24 18.5t-21 21.5q-8 11 -15 23t-12 25l-6 20.5t-5 21.5
q-1 5 -1.5 10.5t-0.5 10.5v301z" />
    <glyph glyph-name="x" unicode="x" horiz-adv-x="387" 
d="M7 466q17 0 34 -3.5t33 -10.5q14 -4 27.5 -11t24.5 -16q16 -11 29 -25t23 -31q3 -3 6 -6.5t5 -7.5q8 16 19 30.5t24 25.5q14 13 29 23t31 17q20 6 39.5 9.5t39.5 4.5v-78q-13 -1 -25.5 -4t-24.5 -8q-26 -11 -46.5 -31.5t-31.5 -46.5q-5 -13 -7.5 -26t-3.5 -27
q-1 -5 -1.5 -10.5t-0.5 -10.5q0 -8 1.5 -16t2.5 -16q6 -28 22.5 -52t41.5 -39q17 -10 36.5 -16.5t39.5 -8.5v-75h-9h-9q-9 0 -18 0.5t-18 2.5q-19 6 -36.5 14.5t-33.5 18.5q-13 10 -24.5 20.5t-20.5 23.5l-8 12t-8 13q-11 -20 -26 -38t-34 -32q-10 -9 -22 -16t-26 -12
q-13 -4 -27.5 -5.5t-28.5 -2.5q-5 1 -10.5 1h-10.5v75q14 0 27 3t26 8q26 11 45.5 30.5t30.5 44.5q6 13 10 26.5t5 26.5q0 2 0.5 4t0.5 4v4v4q0 10 -1.5 19.5t-3.5 19.5q-3 14 -8.5 26.5t-13.5 24.5q-8 11 -17.5 21.5t-20.5 18.5q-16 13 -36 21t-41 9v76z" />
    <glyph glyph-name="y" unicode="y" horiz-adv-x="496" 
d="M43 463h90v-290q0 -17 5.5 -33t15.5 -30q17 -19 41.5 -29t50.5 -9q23 -1 43.5 8t35.5 26q11 14 16.5 30.5t6.5 33.5v293h89v-289q0 -6 -0.5 -10.5t-0.5 -9.5q-1 -10 -3 -19.5t-6 -18.5q-5 -15 -12.5 -29t-17.5 -26q-8 -11 -18 -20.5t-21 -17.5q-16 -10 -33.5 -16.5
t-35.5 -9.5v-201h-90v201q-22 3 -42 10.5t-37 19.5q-13 8 -24.5 18.5t-21.5 22.5q-12 15 -19.5 33t-11.5 37v325z" />
    <glyph glyph-name="z" unicode="z" horiz-adv-x="387" 
d="M36 463h254q17 -2 32.5 -11.5t24.5 -25.5q2 -7 3.5 -13.5t0.5 -13.5q0 -7 -1 -13.5t-3 -12.5l-228 -295h238v-78h-298q-8 2 -15 7t-12 12q-6 7 -9 15t-5 17q0 16 5 31t13 28l217 274h-217v79z" />
    <glyph glyph-name="braceleft" unicode="{" horiz-adv-x="331" 
d="M247 684h21.5t21.5 -1v-23h-47q-10 -3 -18.5 -7t-16.5 -10q-7 -6 -12.5 -14t-7.5 -17v-240q-3 -14 -8 -27t-13 -24q-9 -12 -19.5 -23t-22.5 -19q14 -10 26.5 -21t22.5 -24q8 -13 11.5 -26.5t3.5 -27.5v-222q1 -10 4.5 -19t9.5 -17q5 -7 13 -11.5t16 -7.5q4 -1 8 -1.5
t8 -0.5q4 -1 8 -1h8h5.5h5.5t5.5 0.5t5.5 0.5v-19q-4 0 -7.5 -0.5t-6.5 -0.5q-4 -1 -7.5 -1h-7.5q-11 0 -22 1t-22 3q-13 2 -26 5.5t-26 8.5q-11 4 -20 11.5t-17 15.5q-6 7 -10 15t-6 17v217q-1 12 -3.5 24.5t-6.5 25.5q-2 8 -6.5 16t-10.5 14q-11 10 -24.5 17t-27.5 11
q11 1 20.5 4t18.5 8q8 5 13.5 12t9.5 15q5 12 7.5 25.5t1.5 26.5v238q2 8 6.5 16t11.5 15q8 9 19 16t23 11q20 8 42.5 11.5t44.5 2.5v1z" />
    <glyph glyph-name="bar" unicode="|" horiz-adv-x="608" 
d="M257 638h82v-649h-82v649z" />
    <glyph glyph-name="braceright" unicode="}" horiz-adv-x="331" 
d="M26 680l112 -1q12 -4 24 -9t22 -12q14 -16 21 -36t7 -41v-198l4 -29t6 -28q2 -7 5 -12.5t8 -10.5q13 -7 26.5 -12.5t27.5 -8.5q-11 -1 -21 -5t-20 -10q-7 -5 -12.5 -11t-10.5 -14q-6 -13 -9.5 -26t-5.5 -27q1 -57 1 -114t-1 -112q0 -3 -0.5 -6.5t-0.5 -6.5l-4 -13.5
t-6 -12.5q-4 -8 -10.5 -14t-14.5 -10q-12 -7 -25 -10.5t-27 -4.5h-91l-2 20h55q7 1 13 4.5t11 8.5q6 7 10.5 15t6.5 17q2 7 2.5 13.5t0.5 13.5t-0.5 13t-2.5 11v193q1 7 3.5 15.5t6.5 15.5q17 20 38 35t46 22q-24 8 -44.5 22.5t-36.5 33.5q-4 8 -6.5 16t-3.5 16v210
q1 14 -2.5 28t-11.5 26q-5 7 -12.5 12.5t-15.5 9.5q-10 2 -19.5 3t-20.5 1h-5.5h-4.5t-4.5 -0.5t-5.5 -0.5v21z" />
    <glyph glyph-name="asciitilde" unicode="~" horiz-adv-x="331" 
d="M265 649l34 -18q-6 -22 -20 -39t-34 -28q-8 -4 -17 -6.5t-19 -3.5q-13 0 -26.5 3t-26.5 8q-11 5 -23 7.5t-24 3.5q-13 -1 -23.5 -7t-17.5 -17l-11 -16l-36 17q5 11 11.5 22t14.5 20q14 15 32 23.5t38 8.5q14 0 27 -3.5t25 -8.5q12 -4 24.5 -6.5t25.5 -1.5q6 0 12 2.5
t11 6.5q8 6 13.5 14t9.5 18v1z" />
    <glyph glyph-name="Adieresis" unicode="&#xc4;" horiz-adv-x="551" 
d="M261 679h10.5h10.5q16 0 31 -2.5t29 -7.5q20 -6 39 -15t36 -23q17 -13 31.5 -30.5t24.5 -37.5q9 -19 15 -38.5t8 -39.5l-1 -485h-87v297h-243v86h243v97q-2 14 -6.5 28t-11.5 27t-16 24t-20 19q-13 8 -27.5 13.5t-29.5 7.5q-3 1 -6.5 1.5t-7.5 0.5q-4 1 -7.5 1h-6.5h-6.5
t-6.5 -1q-3 0 -6.5 -0.5t-6.5 -1.5q-13 -2 -26.5 -7t-24.5 -13q-13 -8 -23.5 -19.5t-18.5 -25.5q-7 -11 -11.5 -23t-7.5 -24q-1 -11 -2.5 -21.5t-2.5 -21.5v-444h-86v455q1 5 2 11l2 12q4 18 9.5 36t12.5 35q9 19 20.5 36t26.5 32q15 14 32 26t36 19q20 8 40 12t40 4v1z
M347 830h4.5h4.5h2h2q1 -1 2 -1h2q7 -1 13 -4.5t10 -8.5q5 -5 8.5 -11t4.5 -13v-2v-1v-2v-2v-5.5t-1 -4.5q0 -2 -1 -4.5t-2 -5.5q-2 -6 -6.5 -11t-9.5 -10q-6 -3 -12.5 -4.5t-13.5 -1.5h-1.5h-0.5h-1.5h-1.5q-6 0 -11.5 2t-10.5 6q-6 5 -11 12t-7 14q-1 4 -1.5 8t-0.5 8v4.5
t1 4.5q2 6 6 11.5t9 9.5q5 5 11 7.5t13 3.5v1zM182 834q2 -1 4.5 -1t4.5 -1q8 -2 15.5 -6.5t11.5 -11.5q5 -4 7 -10t2 -12q0 -8 -2.5 -16t-7.5 -16q-4 -5 -9 -9.5t-11 -6.5q-2 -1 -4 -1.5t-4 -0.5q-2 -1 -4 -1h-4h-2.5t-2.5 1q-2 0 -3 0.5t-3 0.5q-7 2 -13 5t-11 8
q-4 5 -6.5 10.5t-4.5 11.5v4v4q0 5 1 11t3 12q3 6 7 10.5t10 7.5q5 3 10.5 4.5t11.5 1.5h0.5h1.5h1.5h0.5v1z" />
    <glyph glyph-name="Aring" unicode="&#xc5;" horiz-adv-x="551" 
d="M261 679h10.5h10.5q16 0 31 -2.5t29 -7.5q20 -6 39 -15t36 -23q17 -13 31.5 -30.5t24.5 -37.5q9 -19 15 -38.5t8 -39.5l-1 -485h-87v297h-243v86h243v97q-2 14 -6.5 28t-11.5 27t-16 24t-20 19q-13 8 -27.5 13.5t-29.5 7.5q-3 1 -6.5 1.5t-7.5 0.5q-4 1 -7.5 1h-6.5h-6.5
t-6.5 -1q-3 0 -6.5 -0.5t-6.5 -1.5q-13 -2 -26.5 -7t-24.5 -13q-13 -8 -23.5 -19.5t-18.5 -25.5q-7 -11 -11.5 -23t-7.5 -24q-1 -11 -2.5 -21.5t-2.5 -21.5v-444h-86v455q1 5 2 11l2 12q4 18 9.5 36t12.5 35q9 19 20.5 36t26.5 32q15 14 32 26t36 19q20 8 40 12t40 4v1z
M268 931q2 -1 4 -1h5q2 0 4 -0.5t4 -0.5q11 -1 21 -5.5t18 -10.5q11 -7 19 -16.5t13 -20.5q5 -10 7.5 -21.5t1.5 -22.5q-1 -23 -11.5 -43t-29.5 -34q-8 -6 -18 -10t-21 -6q-4 -1 -8.5 -1h-9.5q-17 0 -33.5 6t-30.5 17q-10 9 -17 20t-12 24q-2 7 -3 14t-1 14q0 5 0.5 10
t1.5 10q4 23 18 41t36 27q10 5 20.5 7.5t21.5 1.5v1zM262 900q-15 -2 -28 -9.5t-21 -20.5q-3 -5 -5.5 -11.5t-3.5 -12.5q0 -3 -0.5 -6t-0.5 -6v-5.5t1 -5.5q1 -6 3 -11.5l4 -10.5q10 -15 25 -23.5t33 -9.5q17 1 31.5 9.5t23.5 22.5q5 8 7 16.5t2 17.5t-3 18t-8 17
q-4 8 -10.5 13t-14.5 9q-8 5 -17 6.5t-18 1.5v1z" />
    <glyph glyph-name="Ccedilla" unicode="&#xc7;" horiz-adv-x="496" 
d="M246 0h19l-13 -45q11 1 21.5 0t20.5 -4q11 -3 21 -7.5t19 -11.5q6 -6 11 -13.5t7 -15.5q1 -3 1.5 -6t0.5 -7q0 -5 -1 -9.5t-3 -8.5q-3 -8 -8 -15.5t-12 -12.5q-18 -12 -38 -18.5t-41 -5.5h-4.5h-4.5q-3 0 -5.5 0.5t-4.5 0.5q-22 3 -43.5 9t-41.5 15l12 28
q19 -9 38.5 -15.5t40.5 -10.5q3 -1 6 -1h6q6 0 12 1t11 3q6 3 11.5 7.5t9.5 9.5q2 1 2.5 3t1.5 4t1 3.5v3.5v0.5v0.5v0.5v0.5q0 7 -1.5 13t-5.5 11t-9 9t-11 6l-6 2l-6 2q-4 0 -7 0.5t-6 0.5h-4.5t-4.5 -1q-3 0 -5.5 -0.5t-4.5 -0.5q-2 -1 -4.5 -1.5t-5.5 -1.5zM464 674v-89
q-5 0 -10.5 0.5t-10.5 0.5h-11.5h-10.5q-16 0 -32 -1t-32 -4q-25 -1 -48.5 -8.5t-46.5 -18.5q-18 -8 -34.5 -20t-30.5 -26t-25.5 -30.5t-19.5 -34.5q-9 -19 -15 -39.5t-8 -40.5q-2 -10 -3 -21t-1 -22q0 -10 1.5 -20t2.5 -21q4 -21 12 -40.5t20 -37.5q23 -31 52 -56.5
t63 -42.5q32 -10 65 -15t66 -5q14 0 28.5 1t28.5 3v-86h-69l-68 1q-26 2 -52 9t-50 18q-21 9 -40.5 21.5t-36.5 28.5q-18 14 -33 31t-28 36q-16 26 -27.5 54.5t-19.5 58.5q-3 31 -3.5 61.5t1.5 60.5q4 27 12.5 52.5t21.5 49.5q14 24 29.5 46.5t34.5 42.5q15 17 33.5 30.5
t38.5 23.5q30 16 61 26.5t64 16.5q21 4 42 6t42 2q12 0 24 -0.5t23 -2.5v1z" />
    <glyph glyph-name="Eacute" unicode="&#xc9;" horiz-adv-x="496" 
d="M348 674h99v-89q-13 1 -26.5 1.5t-26.5 0.5q-16 0 -32 -1.5t-32 -3.5q-23 -4 -45.5 -11.5t-42.5 -18.5q-17 -9 -32.5 -20t-29.5 -25q-23 -25 -37.5 -55.5t-19.5 -64.5l325 1v-88h-325q1 -34 12.5 -65t32.5 -57q14 -17 30 -32t35 -27q33 -17 69 -25.5t73 -8.5l73 1v-86
h-73l-71 2q-26 4 -51 12.5t-48 20.5q-22 11 -41.5 24.5t-37.5 29.5q-19 20 -36 42.5t-30 47.5q-10 20 -17 40.5t-11 42.5q-3 20 -5 40.5t-2 40.5q0 16 1.5 32.5t3.5 32.5q8 26 18.5 51t22.5 50q16 26 37 48.5t46 40.5q20 13 41 25t43 23q26 11 54 18t56 9v1zM241 870h78
l-124 -137h-42z" />
    <glyph glyph-name="Ntilde" unicode="&#xd1;" horiz-adv-x="608" 
d="M115 677q4 0 8.5 0.5t8.5 0.5q7 0 13.5 -1.5t13.5 -3.5q10 -4 18 -10.5t15 -14.5l260 -518h2v542h89l-2 -617q-1 -11 -5 -21.5t-11 -19.5q-6 -7 -13 -11t-15 -6q-5 -2 -11 -3t-12 -1h-6t-6 1q-9 1 -18 3t-17 5q-8 5 -14.5 12.5t-11.5 15.5l-255 511h-4v-541h-89v596
q2 18 9 35.5t20 30.5q8 6 16 9.5t17 4.5v1zM397 850l38 -10q-2 -15 -9 -28.5t-17 -24.5q-6 -7 -13.5 -12.5t-16.5 -8.5q-8 -4 -17 -7t-18 -3q-14 0 -27.5 2.5t-26.5 7.5q-9 6 -19 8.5t-21 2.5q-9 0 -18 -1.5t-17 -6.5q-7 -7 -12.5 -15.5t-10.5 -17.5l-32 21q4 10 9.5 20.5
t13.5 19.5q6 8 14 14t17 10t18 5.5t19 1.5q14 -1 27 -4t26 -9l12 -4t12 -3q3 -1 6 -1h6h7t6 1q7 0 13.5 2.5t11.5 6.5q8 7 12.5 15t6.5 17v1z" />
    <glyph glyph-name="Odieresis" unicode="&#xd6;" horiz-adv-x="776" 
d="M343 679q5 0 10 0.5t11 0.5h10h10q8 0 16 -0.5t16 -0.5l16 -2t16 -3q26 -4 50.5 -12.5t46.5 -20.5q26 -15 49.5 -33t43.5 -40q32 -29 52.5 -66.5t28.5 -79.5q4 -20 6 -41t2 -42q0 -31 -4.5 -61t-12.5 -59q-19 -51 -52 -94t-78 -74q-23 -16 -49 -28t-53 -20
q-25 -5 -51.5 -7.5t-52.5 -0.5q-29 1 -57.5 5t-56.5 13q-29 11 -56 27t-52 35q-31 26 -56 59t-42 70q-9 26 -15 52t-9 52q-1 53 11.5 104t36.5 97q30 47 71.5 83t90.5 60q25 11 51 17.5t52 8.5v1zM336 595q-28 -6 -55 -17.5t-50 -28.5q-28 -21 -50.5 -48t-37.5 -59
q-10 -27 -14.5 -55.5t-5.5 -57.5q2 -28 9 -56t18 -55q13 -26 31.5 -48.5t41.5 -39.5q23 -18 49 -30.5t54 -20.5q14 -3 27.5 -4.5t27.5 -1.5q8 0 15 0.5t15 1.5q7 0 14.5 1.5t14.5 3.5q29 7 55 19.5t48 31.5t40 41.5t31 48.5q12 26 18 54.5t5 56.5q0 29 -6 57.5t-18 55.5
q-12 26 -29.5 49t-40.5 40q-20 20 -45 33.5t-52 19.5q-17 5 -34.5 8t-34.5 3h-10t-10 -1q-6 0 -11 -1l-10 -2v1zM458 832h4.5h4.5h2h2q1 -1 2 -1h2q7 -1 13 -5t10 -9q5 -4 8.5 -10t4.5 -13v-2v-1v-2v-2q0 -5 -1 -10t-3 -10q-2 -7 -6.5 -12t-10.5 -9q-6 -3 -12.5 -5t-13.5 -2
h-0.5h-1.5h-1.5h-0.5q-6 0 -11.5 2.5t-10.5 6.5q-7 5 -11.5 11.5t-6.5 13.5q-1 5 -1.5 8.5t-0.5 7.5v2.5v2.5t0.5 2.5t0.5 2.5q2 6 6 11t9 9q5 5 11 8t13 4v1zM293 836q2 -1 4.5 -1t4.5 -1q8 -2 15.5 -7t11.5 -12q5 -4 7 -9.5t2 -11.5q0 -9 -3 -17t-8 -15q-3 -5 -8 -9.5
t-11 -6.5q-4 -1 -8.5 -2t-9.5 -1h-4.5t-4.5 1q-7 2 -13 5.5t-11 8.5q-4 5 -7 10t-4 11v2v2v2v2q0 6 1 12t3 11q2 6 6.5 11t10.5 8q5 3 10.5 4.5t11.5 1.5h0.5h1.5h1.5h0.5v1z" />
    <glyph glyph-name="Udieresis" unicode="&#xdc;" horiz-adv-x="551" 
d="M47 676h91l-1 -488q2 -15 8 -29t14 -26q8 -11 18 -20t23 -15q14 -7 28.5 -12t30.5 -7q15 -1 29.5 1t27.5 7q14 4 26.5 10.5t22.5 16.5q11 12 18.5 26.5t11.5 29.5q3 12 4.5 24.5t1.5 25.5v456h90v-473q-4 -41 -20.5 -79t-44.5 -69q-13 -14 -29.5 -25.5t-34.5 -19.5
q-13 -6 -27.5 -9t-28.5 -4q-5 -1 -9.5 -1.5t-9.5 -0.5q-5 -1 -9.5 -1h-9.5q-9 0 -18 0.5t-18 2.5q-17 2 -33.5 6t-31.5 11q-18 9 -33.5 21t-28.5 28q-12 12 -21.5 26.5t-17.5 29.5q-7 17 -12 35.5t-7 37.5v484zM349 827h4.5h4.5h2h2q1 -1 2 -1h2q2 -1 3.5 -1.5t2.5 -0.5
l9.5 -5.5t7.5 -6.5q3 -3 6 -7.5t5 -9.5q1 -1 1.5 -2.5t0.5 -3.5v-3.5v-3.5q0 -4 -0.5 -7.5t-1.5 -6.5q0 -2 -0.5 -3.5t-1.5 -3.5q-3 -6 -7 -11t-10 -9q-3 -2 -6 -3.5t-6 -1.5q-4 -1 -7 -1.5t-6 -0.5h-1.5h-0.5h-1.5h-1.5q-7 0 -12.5 2.5t-10.5 6.5q-6 5 -10.5 11.5
t-6.5 13.5q-1 3 -1.5 6.5t-0.5 7.5v3v3q0 1 0.5 2.5t0.5 2.5q2 7 6 12t8 9q5 5 11.5 8t13.5 4v1zM184 831q1 -1 2 -1h3q1 -1 2 -1h2q8 -2 15 -7t12 -12q4 -4 6.5 -9.5t2.5 -11.5q0 -9 -3 -17t-8 -16q-4 -5 -8.5 -9t-11.5 -6q-4 -1 -7.5 -2t-8.5 -1h-2.5h-2.5q-2 0 -3 0.5
t-3 0.5q-7 2 -12.5 5.5t-10.5 7.5q-4 5 -7 10.5t-4 11.5q-1 2 -1 5v6q0 5 1.5 10t3.5 10q2 6 6.5 11t9.5 8q4 2 8.5 3.5t9.5 1.5q2 1 4.5 1h4.5v1z" />
    <glyph glyph-name="aacute" unicode="&#xe1;" horiz-adv-x="551" 
d="M279 466q4 -1 8.5 -1h8.5q25 -1 49.5 -8t46.5 -20q13 -5 24 -12.5t21 -17.5q26 -24 42 -55.5t20 -66.5v-285h-82v265q-1 14 -5.5 29t-12.5 28q-15 26 -40 43t-55 22q-7 2 -15.5 2.5t-16.5 0.5h-6.5t-6.5 -1q-3 0 -6.5 -0.5t-6.5 -0.5q-31 -1 -58 -15.5t-44 -40.5
q-13 -21 -20 -45t-7 -50v-6.5v-7.5t0.5 -7.5t1.5 -6.5q1 -15 5 -29.5t11 -28.5q7 -13 16 -24.5t19 -21.5q11 -10 24 -17t27 -11q11 -4 23 -6t24 -2h3.5t2.5 1h3.5h2.5q14 1 26.5 5t24.5 11q13 8 24.5 18.5t19.5 22.5v-96q-23 -17 -50 -26t-56 -11q-6 -1 -11.5 -1h-11.5
q-12 1 -23.5 2.5t-22.5 4.5q-19 4 -36.5 13t-33.5 21q-14 11 -27 23.5t-24 26.5q-11 15 -20 31.5t-15 33.5q-6 20 -9 40.5t-3 41.5q0 19 3 37.5t8 36.5q6 19 15 36.5t20 33.5q11 14 23.5 26t26.5 22q14 11 30.5 19t33.5 12q21 6 43 9t44 2v1zM270 663h78l-124 -138h-42z" />
    <glyph glyph-name="agrave" unicode="&#xe0;" horiz-adv-x="551" 
d="M279 466q4 -1 8.5 -1h8.5q25 -1 49.5 -8t46.5 -20q13 -5 24 -12.5t21 -17.5q26 -24 42 -55.5t20 -66.5v-285h-82v265q-1 14 -5.5 29t-12.5 28q-15 26 -40 43t-55 22q-7 2 -15.5 2.5t-16.5 0.5h-6.5t-6.5 -1q-3 0 -6.5 -0.5t-6.5 -0.5q-31 -1 -58 -15.5t-44 -40.5
q-13 -21 -20 -45t-7 -50v-6.5v-7.5t0.5 -7.5t1.5 -6.5q1 -15 5 -29.5t11 -28.5q7 -13 16 -24.5t19 -21.5q11 -10 24 -17t27 -11q11 -4 23 -6t24 -2h3.5t2.5 1h3.5h2.5q14 1 26.5 5t24.5 11q13 8 24.5 18.5t19.5 22.5v-96q-23 -17 -50 -26t-56 -11q-6 -1 -11.5 -1h-11.5
q-12 1 -23.5 2.5t-22.5 4.5q-19 4 -36.5 13t-33.5 21q-14 11 -27 23.5t-24 26.5q-11 15 -20 31.5t-15 33.5q-6 20 -9 40.5t-3 41.5q0 19 3 37.5t8 36.5q6 19 15 36.5t20 33.5q11 14 23.5 26t26.5 22q14 11 30.5 19t33.5 12q21 6 43 9t44 2v1zM183 663h75l89 -138h-43z" />
    <glyph glyph-name="acircumflex" unicode="&#xe2;" horiz-adv-x="551" 
d="M279 466q4 -1 8.5 -1h8.5q25 -1 49.5 -8t46.5 -20q13 -5 24 -12.5t21 -17.5q26 -24 42 -55.5t20 -66.5v-285h-82v265q-1 14 -5.5 29t-12.5 28q-15 26 -40 43t-55 22q-7 2 -15.5 2.5t-16.5 0.5h-6.5t-6.5 -1q-3 0 -6.5 -0.5t-6.5 -0.5q-31 -1 -58 -15.5t-44 -40.5
q-13 -21 -20 -45t-7 -50v-6.5v-7.5t0.5 -7.5t1.5 -6.5q1 -15 5 -29.5t11 -28.5q7 -13 16 -24.5t19 -21.5q11 -10 24 -17t27 -11q11 -4 23 -6t24 -2h3.5t2.5 1h3.5h2.5q14 1 26.5 5t24.5 11q13 8 24.5 18.5t19.5 22.5v-96q-23 -17 -50 -26t-56 -11q-6 -1 -11.5 -1h-11.5
q-12 1 -23.5 2.5t-22.5 4.5q-19 4 -36.5 13t-33.5 21q-14 11 -27 23.5t-24 26.5q-11 15 -20 31.5t-15 33.5q-6 20 -9 40.5t-3 41.5q0 19 3 37.5t8 36.5q6 19 15 36.5t20 33.5q11 14 23.5 26t26.5 22q14 11 30.5 19t33.5 12q21 6 43 9t44 2v1zM231 667h67l98 -142h-43
l-88 102l-93 -102h-38z" />
    <glyph glyph-name="adieresis" unicode="&#xe4;" horiz-adv-x="551" 
d="M279 466q4 -1 8.5 -1h8.5q25 -1 49.5 -8t46.5 -20q13 -5 24 -12.5t21 -17.5q26 -24 42 -55.5t20 -66.5v-285h-82v265q-1 14 -5.5 29t-12.5 28q-15 26 -40 43t-55 22q-7 2 -15.5 2.5t-16.5 0.5h-6.5t-6.5 -1q-3 0 -6.5 -0.5t-6.5 -0.5q-31 -1 -58 -15.5t-44 -40.5
q-13 -21 -20 -45t-7 -50v-6.5v-7.5t0.5 -7.5t1.5 -6.5q1 -15 5 -29.5t11 -28.5q7 -13 16 -24.5t19 -21.5q11 -10 24 -17t27 -11q11 -4 23 -6t24 -2h3.5t2.5 1h3.5h2.5q14 1 26.5 5t24.5 11q13 8 24.5 18.5t19.5 22.5v-96q-23 -17 -50 -26t-56 -11q-6 -1 -11.5 -1h-11.5
q-12 1 -23.5 2.5t-22.5 4.5q-19 4 -36.5 13t-33.5 21q-14 11 -27 23.5t-24 26.5q-11 15 -20 31.5t-15 33.5q-6 20 -9 40.5t-3 41.5q0 19 3 37.5t8 36.5q6 19 15 36.5t20 33.5q11 14 23.5 26t26.5 22q14 11 30.5 19t33.5 12q21 6 43 9t44 2v1zM345 617h4.5h4.5h2h2q1 -1 2 -1
h2q2 0 3.5 -0.5t2.5 -1.5q5 -2 9.5 -5t7.5 -7q5 -4 8.5 -10t4.5 -13v-2v-1v-2v-2q0 -5 -1 -10.5t-3 -10.5q-3 -6 -7 -11t-10 -9q-6 -3 -12.5 -5t-13.5 -2h-0.5h-1.5h-1.5h-0.5q-6 0 -12 2.5t-11 6.5q-6 5 -10.5 11.5t-6.5 13.5q-1 4 -1.5 7.5t-0.5 7.5v5t1 6q2 6 6 11t8 9
q5 5 11.5 8t13.5 4v1zM180 621q2 -1 4.5 -1t4.5 -1q8 -2 15 -7t12 -12q4 -4 6.5 -9.5t2.5 -11.5q0 -9 -3 -17t-8 -15q-4 -6 -8.5 -10t-10.5 -6q-4 -1 -8.5 -2t-9.5 -1h-5.5t-4.5 1q-7 2 -12.5 5.5t-10.5 8.5q-4 4 -7 9.5t-4 11.5q-1 2 -1 4.5v4.5q0 6 1.5 12t3.5 10
q2 6 6.5 11t9.5 8q3 2 6 3l6 2q2 0 5 0.5t6 0.5h0.5h1.5h1.5h0.5v1z" />
    <glyph glyph-name="atilde" unicode="&#xe3;" horiz-adv-x="551" 
d="M279 466q4 -1 8.5 -1h8.5q25 -1 49.5 -8t46.5 -20q13 -5 24 -12.5t21 -17.5q26 -24 42 -55.5t20 -66.5v-285h-82v265q-1 14 -5.5 29t-12.5 28q-15 26 -40 43t-55 22q-7 2 -15.5 2.5t-16.5 0.5h-6.5t-6.5 -1q-3 0 -6.5 -0.5t-6.5 -0.5q-31 -1 -58 -15.5t-44 -40.5
q-13 -21 -20 -45t-7 -50v-6.5v-7.5t0.5 -7.5t1.5 -6.5q1 -15 5 -29.5t11 -28.5q7 -13 16 -24.5t19 -21.5q11 -10 24 -17t27 -11q11 -4 23 -6t24 -2h3.5t2.5 1h3.5h2.5q14 1 26.5 5t24.5 11q13 8 24.5 18.5t19.5 22.5v-96q-23 -17 -50 -26t-56 -11q-6 -1 -11.5 -1h-11.5
q-12 1 -23.5 2.5t-22.5 4.5q-19 4 -36.5 13t-33.5 21q-14 11 -27 23.5t-24 26.5q-11 15 -20 31.5t-15 33.5q-6 20 -9 40.5t-3 41.5q0 19 3 37.5t8 36.5q6 19 15 36.5t20 33.5q11 14 23.5 26t26.5 22q14 11 30.5 19t33.5 12q21 6 43 9t44 2v1zM365 638l38 -10
q-3 -16 -9.5 -29t-17.5 -24q-6 -7 -13.5 -12.5t-16.5 -9.5q-8 -4 -17 -6.5t-18 -2.5q-14 0 -27.5 2.5t-26.5 7.5q-10 5 -20 8t-21 3q-9 0 -17.5 -2t-16.5 -6q-7 -7 -12.5 -15.5t-9.5 -17.5l-33 21q4 10 10 20.5t13 19.5q6 8 14 14t17 10q5 2 9.5 3.5t9.5 1.5q4 1 9 1.5
t9 0.5q14 -1 27 -4t26 -9q9 -4 19.5 -6.5t20.5 -2.5h3t2 1h3h2q7 1 13 3.5t11 6.5q8 7 13 15t7 17v1z" />
    <glyph glyph-name="aring" unicode="&#xe5;" horiz-adv-x="551" 
d="M279 466q4 -1 8.5 -1h8.5q25 -1 49.5 -8t46.5 -20q13 -5 24 -12.5t21 -17.5q26 -24 42 -55.5t20 -66.5v-285h-82v265q-1 14 -5.5 29t-12.5 28q-15 26 -40 43t-55 22q-7 2 -15.5 2.5t-16.5 0.5h-6.5t-6.5 -1q-3 0 -6.5 -0.5t-6.5 -0.5q-31 -1 -58 -15.5t-44 -40.5
q-13 -21 -20 -45t-7 -50v-6.5v-7.5t0.5 -7.5t1.5 -6.5q1 -15 5 -29.5t11 -28.5q7 -13 16 -24.5t19 -21.5q11 -10 24 -17t27 -11q11 -4 23 -6t24 -2h3.5t2.5 1h3.5h2.5q14 1 26.5 5t24.5 11q13 8 24.5 18.5t19.5 22.5v-96q-23 -17 -50 -26t-56 -11q-6 -1 -11.5 -1h-11.5
q-12 1 -23.5 2.5t-22.5 4.5q-19 4 -36.5 13t-33.5 21q-14 11 -27 23.5t-24 26.5q-11 15 -20 31.5t-15 33.5q-6 20 -9 40.5t-3 41.5q0 19 3 37.5t8 36.5q6 19 15 36.5t20 33.5q11 14 23.5 26t26.5 22q14 11 30.5 19t33.5 12q21 6 43 9t44 2v1zM265 718q5 -1 9.5 -1t8.5 -1
q11 -2 20.5 -6t18.5 -11q10 -7 18 -16.5t14 -20.5q5 -10 7 -21.5t2 -22.5q-1 -22 -12 -42t-29 -34q-9 -7 -18.5 -11t-20.5 -6q-2 0 -4 -0.5t-4 -0.5h-5h-4q-18 0 -34.5 6.5t-30.5 17.5q-10 9 -17.5 20t-12.5 24q-1 7 -2.5 14.5t-1.5 14.5v4.5t1 5.5q0 2 0.5 4.5t0.5 4.5
q5 23 19 40.5t35 27.5q7 3 14 5t14 3q3 1 7 1h7v1zM259 687q-15 -2 -28 -10t-21 -21q-4 -8 -6.5 -17t-2.5 -18q0 -8 1.5 -16.5t5.5 -16.5q10 -15 25.5 -24t32.5 -9t32 9t24 23q3 5 4.5 10.5t2.5 11.5q1 3 1.5 5.5t0.5 5.5q0 10 -3 19t-8 16q-4 8 -11 13.5t-15 9.5
q-6 3 -12.5 5t-13.5 2q-2 1 -4.5 1h-4.5v1z" />
    <glyph glyph-name="ccedilla" unicode="&#xe7;" horiz-adv-x="387" 
d="M198 0h19l-12 -45q11 1 21.5 0t20.5 -4q11 -3 20.5 -7.5t18.5 -11.5q7 -6 11.5 -13.5t6.5 -15.5q1 -3 1.5 -6t0.5 -7q0 -5 -1 -9.5t-3 -8.5q-2 -8 -7.5 -15.5t-12.5 -12.5q-17 -12 -37 -18.5t-41 -5.5h-5.5h-4.5t-4.5 0.5t-5.5 0.5q-22 3 -43.5 9t-41.5 15l12 28
q19 -9 39 -15.5t40 -10.5q3 -1 6 -1h6q6 0 12 1t11 3q7 3 12.5 7.5t9.5 9.5l2 4l2 4q0 2 0.5 4t0.5 4q0 7 -2 13t-5 11q-4 5 -9.5 9t-11.5 6t-12 3.5t-13 1.5h-4.5t-4.5 -1q-3 0 -5.5 -0.5t-4.5 -0.5q-2 -1 -4.5 -1.5t-5.5 -1.5zM255 466h110v-83h-87h-28q-15 -5 -29 -11
t-27 -14q-13 -9 -23.5 -19.5t-18.5 -23.5q-7 -11 -12.5 -23.5t-8.5 -26.5l-2 -18t-1 -18v-9.5t1 -9.5q2 -15 7 -29t12 -27q7 -11 15 -21t18 -18q11 -10 23.5 -17.5t25.5 -12.5q23 -6 46 -9t46 -2q10 -1 20.5 -0.5t20.5 1.5v-75h-82l-49 2q-22 4 -42.5 12t-39.5 19
q-15 9 -28.5 21t-25.5 25q-10 12 -19 25.5t-16 27.5q-5 11 -9 22.5t-7 23.5l-2 11.5l-2 11.5q-1 20 0 39t5 38q3 17 9 32.5t14 30.5q11 19 25 36t30 32q11 10 22.5 18.5t24.5 15.5q20 9 41 15t43 7v1z" />
    <glyph glyph-name="eacute" unicode="&#xe9;" horiz-adv-x="552" 
d="M248 472h16t16 -1q16 -1 32.5 -3.5t31.5 -7.5q23 -7 45 -18.5t41 -26.5q21 -19 37.5 -41t28.5 -48l-305 -174l-39 68l223 129q-9 10 -19.5 19t-24.5 16q-14 6 -29.5 10t-31.5 5q-15 0 -29.5 -2.5t-28.5 -7.5q-31 -10 -54 -34t-33 -56q-2 -7 -3.5 -14.5t-2.5 -14.5
t-1 -14.5v-14.5q1 -23 7.5 -44.5t18.5 -41.5q11 -19 27.5 -35.5t35.5 -28.5q17 -9 35.5 -13t37.5 -4q11 0 21.5 1t20.5 4q14 5 27 12t25 15q13 9 23 20.5t17 24.5q6 15 9.5 30.5t4.5 31.5l84 -17q-2 -26 -10 -49t-21 -44t-30 -38.5t-37 -31.5q-21 -14 -43.5 -23t-46.5 -12
l-12 -2l-12 -2h-13h-12q-12 0 -24 1t-24 3q-24 2 -47 11.5t-43 23.5q-37 31 -61.5 72.5t-35.5 88.5q-1 8 -1 15.5v14.5v11.5t1 10.5q0 11 1.5 22.5t3.5 21.5q5 24 14 46.5t22 43.5q14 20 32.5 36.5t40.5 28.5t45.5 18.5t48.5 7.5v1zM280 669h78l-124 -138h-42z" />
    <glyph glyph-name="egrave" unicode="&#xe8;" horiz-adv-x="552" 
d="M248 472h16t16 -1q16 -1 32.5 -3.5t31.5 -7.5q23 -7 45 -18.5t41 -26.5q21 -19 37.5 -41t28.5 -48l-305 -174l-39 68l223 129q-9 10 -19.5 19t-24.5 16q-14 6 -29.5 10t-31.5 5q-15 0 -29.5 -2.5t-28.5 -7.5q-31 -10 -54 -34t-33 -56q-2 -7 -3.5 -14.5t-2.5 -14.5
t-1 -14.5v-14.5q1 -23 7.5 -44.5t18.5 -41.5q11 -19 27.5 -35.5t35.5 -28.5q17 -9 35.5 -13t37.5 -4q11 0 21.5 1t20.5 4q14 5 27 12t25 15q13 9 23 20.5t17 24.5q6 15 9.5 30.5t4.5 31.5l84 -17q-2 -26 -10 -49t-21 -44t-30 -38.5t-37 -31.5q-21 -14 -43.5 -23t-46.5 -12
l-12 -2l-12 -2h-13h-12q-12 0 -24 1t-24 3q-24 2 -47 11.5t-43 23.5q-37 31 -61.5 72.5t-35.5 88.5q-1 8 -1 15.5v14.5v11.5t1 10.5q0 11 1.5 22.5t3.5 21.5q5 24 14 46.5t22 43.5q14 20 32.5 36.5t40.5 28.5t45.5 18.5t48.5 7.5v1zM193 669h75l89 -138h-43z" />
    <glyph glyph-name="ecircumflex" unicode="&#xea;" horiz-adv-x="552" 
d="M248 472h16t16 -1q16 -1 32.5 -3.5t31.5 -7.5q23 -7 45 -18.5t41 -26.5q21 -19 37.5 -41t28.5 -48l-305 -174l-39 68l223 129q-9 10 -19.5 19t-24.5 16q-14 6 -29.5 10t-31.5 5q-15 0 -29.5 -2.5t-28.5 -7.5q-31 -10 -54 -34t-33 -56q-2 -7 -3.5 -14.5t-2.5 -14.5
t-1 -14.5v-14.5q1 -23 7.5 -44.5t18.5 -41.5q11 -19 27.5 -35.5t35.5 -28.5q17 -9 35.5 -13t37.5 -4q11 0 21.5 1t20.5 4q14 5 27 12t25 15q13 9 23 20.5t17 24.5q6 15 9.5 30.5t4.5 31.5l84 -17q-2 -26 -10 -49t-21 -44t-30 -38.5t-37 -31.5q-21 -14 -43.5 -23t-46.5 -12
l-12 -2l-12 -2h-13h-12q-12 0 -24 1t-24 3q-24 2 -47 11.5t-43 23.5q-37 31 -61.5 72.5t-35.5 88.5q-1 8 -1 15.5v14.5v11.5t1 10.5q0 11 1.5 22.5t3.5 21.5q5 24 14 46.5t22 43.5q14 20 32.5 36.5t40.5 28.5t45.5 18.5t48.5 7.5v1zM241 673h67l98 -142h-43l-88 102
l-93 -102h-38z" />
    <glyph glyph-name="edieresis" unicode="&#xeb;" horiz-adv-x="552" 
d="M248 472h16t16 -1q16 -1 32.5 -3.5t31.5 -7.5q23 -7 45 -18.5t41 -26.5q21 -19 37.5 -41t28.5 -48l-305 -174l-39 68l223 129q-9 10 -19.5 19t-24.5 16q-14 6 -29.5 10t-31.5 5q-15 0 -29.5 -2.5t-28.5 -7.5q-31 -10 -54 -34t-33 -56q-2 -7 -3.5 -14.5t-2.5 -14.5
t-1 -14.5v-14.5q1 -23 7.5 -44.5t18.5 -41.5q11 -19 27.5 -35.5t35.5 -28.5q17 -9 35.5 -13t37.5 -4q11 0 21.5 1t20.5 4q14 5 27 12t25 15q13 9 23 20.5t17 24.5q6 15 9.5 30.5t4.5 31.5l84 -17q-2 -26 -10 -49t-21 -44t-30 -38.5t-37 -31.5q-21 -14 -43.5 -23t-46.5 -12
l-12 -2l-12 -2h-13h-12q-12 0 -24 1t-24 3q-24 2 -47 11.5t-43 23.5q-37 31 -61.5 72.5t-35.5 88.5q-1 8 -1 15.5v14.5v11.5t1 10.5q0 11 1.5 22.5t3.5 21.5q5 24 14 46.5t22 43.5q14 20 32.5 36.5t40.5 28.5t45.5 18.5t48.5 7.5v1zM355 623h4.5h4.5h2h2q1 -1 2 -1h2
q7 -1 13 -4.5t10 -8.5q5 -5 8.5 -11t4.5 -13v-2v-1v-2v-2q0 -5 -1 -10t-3 -10q-3 -6 -7 -11.5t-10 -9.5q-3 -2 -7.5 -3.5t-8.5 -2.5q-2 -1 -4 -1h-4h-1.5t-1.5 1h-1.5h-1.5q-6 0 -12 2t-11 6q-6 5 -10.5 12t-6.5 14q-1 3 -1.5 6.5t-0.5 7.5v3v3q0 1 0.5 2.5t0.5 2.5
q2 6 6 11.5t9 9.5q5 5 11 7.5t13 3.5v1zM190 627q2 -1 4.5 -1t4.5 -1q8 -2 15 -6.5t12 -11.5q4 -4 6.5 -10t2.5 -12v-4t-1 -4q-1 -7 -3.5 -13t-6.5 -11t-8.5 -9.5t-10.5 -6.5q-4 -1 -8.5 -2t-9.5 -1h-5.5t-4.5 1q-7 2 -12.5 5.5t-10.5 8.5q-4 5 -7 10t-4 12q-1 2 -1 4.5v4.5
q0 3 0.5 5.5t0.5 5.5q1 3 2 5.5t2 5.5q2 6 6.5 10.5t10.5 7.5q5 3 10.5 4.5t11.5 1.5h0.5h1.5h1.5h0.5v1z" />
    <glyph glyph-name="iacute" unicode="&#xed;" horiz-adv-x="276" 
d="M93 465h88v-465h-88v465zM142 661h78l-124 -137h-42z" />
    <glyph glyph-name="igrave" unicode="&#xec;" horiz-adv-x="276" 
d="M93 465h88v-465h-88v465zM55 661h75l89 -137h-43z" />
    <glyph glyph-name="icircumflex" unicode="&#xee;" horiz-adv-x="276" 
d="M93 465h88v-465h-88v465zM103 665h67l98 -141h-43l-88 101l-93 -101h-38z" />
    <glyph glyph-name="idieresis" unicode="&#xef;" horiz-adv-x="276" 
d="M93 465h88v-465h-88v465zM217 616h4.5h4.5h2h2q1 -1 2 -1h2q7 -2 13 -5.5t10 -8.5q3 -3 6 -7.5t5 -9.5q1 -1 1.5 -2.5t0.5 -3.5v-3.5v-3.5q0 -4 -0.5 -7.5t-1.5 -6.5q0 -2 -0.5 -3.5t-1.5 -3.5q-3 -6 -7 -11t-10 -9q-3 -2 -6 -3.5t-6 -1.5q-4 -1 -7 -1.5t-6 -0.5h-1.5
h-0.5h-1.5h-1.5q-6 0 -12 2.5t-11 6.5q-6 5 -10.5 11.5t-6.5 13.5q-1 3 -1.5 6.5t-0.5 7.5v3v3q0 1 0.5 2.5t0.5 2.5q2 7 6 12t9 9q5 5 11 8t13 4v1zM52 620q1 -1 2 -1h3q1 -1 2 -1h2q8 -2 15 -7t12 -12q3 -3 5 -6.5t3 -7.5q0 -2 0.5 -3.5t0.5 -3.5q0 -9 -3 -17t-8 -16
q-4 -5 -8.5 -9t-10.5 -6l-8 -2t-9 -1h-2.5h-2.5q-2 0 -3 0.5t-3 0.5q-7 2 -12.5 5.5t-10.5 7.5q-4 5 -7 10.5t-4 11.5q-1 2 -1 4.5v4.5q0 3 0.5 5.5t0.5 5.5q1 3 2 5.5t2 5.5q2 6 6.5 11t10.5 8t12.5 4.5t13.5 1.5v1z" />
    <glyph glyph-name="ntilde" unicode="&#xf1;" horiz-adv-x="496" 
d="M215 466q4 -1 8 -0.5t8 0.5q4 1 8 1h8q14 0 28.5 -1.5t28.5 -5.5q16 -3 30.5 -9.5t27.5 -15.5q29 -20 50 -49t29 -64v-322h-85v282q-1 13 -5.5 25.5t-11.5 24.5q-11 23 -31.5 38t-46.5 18q-3 0 -5.5 0.5t-4.5 0.5q-2 1 -4.5 1h-5.5q-8 0 -16.5 -1.5t-16.5 -4.5
q-24 -6 -42.5 -22t-26.5 -39l-4 -20t-3 -19q-1 -10 -1.5 -20t-0.5 -20v-244h-86v272q0 37 14.5 72.5t39.5 63.5q24 23 54 38t63 19v1zM342 640l38 -11q-3 -15 -9.5 -28.5t-16.5 -24.5q-6 -7 -14 -12.5t-16 -8.5q-8 -4 -17 -7t-18 -3q-14 0 -27.5 3t-26.5 8q-10 5 -20 8
t-21 3q-4 0 -8.5 -0.5t-8.5 -1.5t-8.5 -2.5t-8.5 -3.5q-7 -7 -12.5 -15.5t-10.5 -18.5l-32 21q4 10 9.5 20.5t12.5 19.5q7 8 14.5 14t17.5 10q8 4 17.5 6t19.5 1q14 0 27 -3.5t25 -8.5q5 -2 9.5 -4t9.5 -3q4 -1 9 -1.5t9 -0.5h7t6 1q7 0 13.5 2.5t11.5 6.5q7 7 12 15t7 18v1
z" />
    <glyph glyph-name="oacute" unicode="&#xf3;" horiz-adv-x="551" 
d="M286 467q17 0 34.5 -3t33.5 -9q25 -9 47.5 -23t41.5 -33t33.5 -42t22.5 -49q8 -25 10.5 -52t0.5 -54q-2 -26 -11 -51t-23 -48t-33 -42.5t-42 -34.5q-22 -13 -47.5 -21t-51.5 -10q-5 -1 -9.5 -1.5t-9.5 -0.5q-5 -1 -9.5 -1h-9.5q-17 0 -33.5 2t-33.5 6q-25 8 -48.5 21.5
t-43.5 30.5q-19 19 -34.5 41.5t-25.5 47.5q-7 20 -11 40t-4 41v6v6q0 2 0.5 5t0.5 6q2 27 10.5 53t21.5 49q14 23 31.5 42.5t39.5 35.5q23 15 48 24.5t51 13.5q13 2 26.5 3t26.5 0v1zM298 386q-4 0 -7.5 0.5t-6.5 0.5q-4 1 -7.5 1h-7.5q-5 0 -10 -0.5t-10 -0.5l-10 -2
t-10 -3q-20 -5 -37 -15.5t-31 -26.5q-12 -13 -21 -27t-15 -31q-4 -17 -6 -35t-1 -36q1 -17 6 -34t13 -32q8 -16 20 -28.5t26 -23.5q15 -10 31.5 -16.5t33.5 -8.5q6 -1 12 -1.5t11 -0.5q12 0 24 2t23 6q17 5 31.5 14t27.5 22q13 11 23 26t16 31q5 12 7 24t2 25v10.5t-1 10.5
q1 18 -3 35t-12 33q-8 17 -20 30.5t-26 23.5q-14 11 -30.5 17.5t-34.5 8.5v1zM275 664h78l-124 -138h-42z" />
    <glyph glyph-name="ograve" unicode="&#xf2;" horiz-adv-x="551" 
d="M286 467q17 0 34.5 -3t33.5 -9q25 -9 47.5 -23t41.5 -33t33.5 -42t22.5 -49q8 -25 10.5 -52t0.5 -54q-2 -26 -11 -51t-23 -48t-33 -42.5t-42 -34.5q-22 -13 -47.5 -21t-51.5 -10q-5 -1 -9.5 -1.5t-9.5 -0.5q-5 -1 -9.5 -1h-9.5q-17 0 -33.5 2t-33.5 6q-25 8 -48.5 21.5
t-43.5 30.5q-19 19 -34.5 41.5t-25.5 47.5q-7 20 -11 40t-4 41v6v6q0 2 0.5 5t0.5 6q2 27 10.5 53t21.5 49q14 23 31.5 42.5t39.5 35.5q23 15 48 24.5t51 13.5q13 2 26.5 3t26.5 0v1zM298 386q-4 0 -7.5 0.5t-6.5 0.5q-4 1 -7.5 1h-7.5q-5 0 -10 -0.5t-10 -0.5l-10 -2
t-10 -3q-20 -5 -37 -15.5t-31 -26.5q-12 -13 -21 -27t-15 -31q-4 -17 -6 -35t-1 -36q1 -17 6 -34t13 -32q8 -16 20 -28.5t26 -23.5q15 -10 31.5 -16.5t33.5 -8.5q6 -1 12 -1.5t11 -0.5q12 0 24 2t23 6q17 5 31.5 14t27.5 22q13 11 23 26t16 31q5 12 7 24t2 25v10.5t-1 10.5
q1 18 -3 35t-12 33q-8 17 -20 30.5t-26 23.5q-14 11 -30.5 17.5t-34.5 8.5v1zM188 664h76l88 -138h-43z" />
    <glyph glyph-name="ocircumflex" unicode="&#xf4;" horiz-adv-x="551" 
d="M286 467q17 0 34.5 -3t33.5 -9q25 -9 47.5 -23t41.5 -33t33.5 -42t22.5 -49q8 -25 10.5 -52t0.5 -54q-2 -26 -11 -51t-23 -48t-33 -42.5t-42 -34.5q-22 -13 -47.5 -21t-51.5 -10q-5 -1 -9.5 -1.5t-9.5 -0.5q-5 -1 -9.5 -1h-9.5q-17 0 -33.5 2t-33.5 6q-25 8 -48.5 21.5
t-43.5 30.5q-19 19 -34.5 41.5t-25.5 47.5q-7 20 -11 40t-4 41v6v6q0 2 0.5 5t0.5 6q2 27 10.5 53t21.5 49q14 23 31.5 42.5t39.5 35.5q23 15 48 24.5t51 13.5q13 2 26.5 3t26.5 0v1zM298 386q-4 0 -7.5 0.5t-6.5 0.5q-4 1 -7.5 1h-7.5q-5 0 -10 -0.5t-10 -0.5l-10 -2
t-10 -3q-20 -5 -37 -15.5t-31 -26.5q-12 -13 -21 -27t-15 -31q-4 -17 -6 -35t-1 -36q1 -17 6 -34t13 -32q8 -16 20 -28.5t26 -23.5q15 -10 31.5 -16.5t33.5 -8.5q6 -1 12 -1.5t11 -0.5q12 0 24 2t23 6q17 5 31.5 14t27.5 22q13 11 23 26t16 31q5 12 7 24t2 25v10.5t-1 10.5
q1 18 -3 35t-12 33q-8 17 -20 30.5t-26 23.5q-14 11 -30.5 17.5t-34.5 8.5v1zM236 668h68l97 -142h-43l-88 102l-92 -102h-38z" />
    <glyph glyph-name="odieresis" unicode="&#xf6;" horiz-adv-x="551" 
d="M286 467q17 0 34.5 -3t33.5 -9q25 -9 47.5 -23t41.5 -33t33.5 -42t22.5 -49q8 -25 10.5 -52t0.5 -54q-2 -26 -11 -51t-23 -48t-33 -42.5t-42 -34.5q-22 -13 -47.5 -21t-51.5 -10q-5 -1 -9.5 -1.5t-9.5 -0.5q-5 -1 -9.5 -1h-9.5q-17 0 -33.5 2t-33.5 6q-25 8 -48.5 21.5
t-43.5 30.5q-19 19 -34.5 41.5t-25.5 47.5q-7 20 -11 40t-4 41v6v6q0 2 0.5 5t0.5 6q2 27 10.5 53t21.5 49q14 23 31.5 42.5t39.5 35.5q23 15 48 24.5t51 13.5q13 2 26.5 3t26.5 0v1zM298 386q-4 0 -7.5 0.5t-6.5 0.5q-4 1 -7.5 1h-7.5q-5 0 -10 -0.5t-10 -0.5l-10 -2
t-10 -3q-20 -5 -37 -15.5t-31 -26.5q-12 -13 -21 -27t-15 -31q-4 -17 -6 -35t-1 -36q1 -17 6 -34t13 -32q8 -16 20 -28.5t26 -23.5q15 -10 31.5 -16.5t33.5 -8.5q6 -1 12 -1.5t11 -0.5q12 0 24 2t23 6q17 5 31.5 14t27.5 22q13 11 23 26t16 31q5 12 7 24t2 25v10.5t-1 10.5
q1 18 -3 35t-12 33q-8 17 -20 30.5t-26 23.5q-14 11 -30.5 17.5t-34.5 8.5v1zM350 618h4.5h4.5h2h2q1 -1 2 -1h2q7 -1 13 -5t10 -9q5 -4 8.5 -10t4.5 -13v-2v-1v-2v-2q0 -5 -1 -10t-3 -10q-2 -7 -6.5 -12t-10.5 -9q-6 -3 -12.5 -5t-13.5 -2h-0.5h-1.5h-1.5h-0.5
q-6 0 -11.5 2.5t-10.5 6.5q-7 5 -11.5 11.5t-6.5 13.5q-1 4 -1.5 7.5t-0.5 7.5v5t1 6q2 6 6 11t9 9q5 5 11 8t13 4v1zM185 622q2 -1 4.5 -1t4.5 -1q8 -2 15 -7t12 -12q5 -4 7 -9.5t2 -11.5q0 -9 -3 -17t-8 -15q-3 -6 -8 -10t-11 -6q-4 -1 -8.5 -2t-9.5 -1h-4.5t-4.5 1
q-7 2 -13 5.5t-11 8.5q-4 4 -7 9.5t-4 11.5q-1 2 -1 4.5v4.5q0 6 1.5 12t3.5 10q2 6 6.5 11t10.5 8q5 3 10.5 4.5t11.5 1.5h0.5h1.5h1.5h0.5v1z" />
    <glyph glyph-name="otilde" unicode="&#xf5;" horiz-adv-x="551" 
d="M286 467q17 0 34.5 -3t33.5 -9q25 -9 47.5 -23t41.5 -33t33.5 -42t22.5 -49q8 -25 10.5 -52t0.5 -54q-2 -26 -11 -51t-23 -48t-33 -42.5t-42 -34.5q-22 -13 -47.5 -21t-51.5 -10q-5 -1 -9.5 -1.5t-9.5 -0.5q-5 -1 -9.5 -1h-9.5q-17 0 -33.5 2t-33.5 6q-25 8 -48.5 21.5
t-43.5 30.5q-19 19 -34.5 41.5t-25.5 47.5q-7 20 -11 40t-4 41v6v6q0 2 0.5 5t0.5 6q2 27 10.5 53t21.5 49q14 23 31.5 42.5t39.5 35.5q23 15 48 24.5t51 13.5q13 2 26.5 3t26.5 0v1zM298 386q-4 0 -7.5 0.5t-6.5 0.5q-4 1 -7.5 1h-7.5q-5 0 -10 -0.5t-10 -0.5l-10 -2
t-10 -3q-20 -5 -37 -15.5t-31 -26.5q-12 -13 -21 -27t-15 -31q-4 -17 -6 -35t-1 -36q1 -17 6 -34t13 -32q8 -16 20 -28.5t26 -23.5q15 -10 31.5 -16.5t33.5 -8.5q6 -1 12 -1.5t11 -0.5q12 0 24 2t23 6q17 5 31.5 14t27.5 22q13 11 23 26t16 31q5 12 7 24t2 25v10.5t-1 10.5
q1 18 -3 35t-12 33q-8 17 -20 30.5t-26 23.5q-14 11 -30.5 17.5t-34.5 8.5v1zM370 639l38 -10q-3 -16 -9.5 -29t-16.5 -24q-7 -7 -14.5 -12.5t-16.5 -9.5q-7 -4 -16 -6.5t-19 -2.5q-13 0 -26.5 2.5t-26.5 7.5q-6 4 -13.5 6l-14.5 4q-3 0 -6.5 0.5t-7.5 0.5q-9 0 -17.5 -2
t-16.5 -6q-7 -7 -12 -15.5l-10 -17.5l-32 21q3 10 9 20.5t13 19.5q7 8 14.5 14t16.5 10t18.5 5.5t19.5 1.5q14 -1 27 -4t25 -9l10 -4t10 -3t10 -1.5t10 -0.5h3t2 1h3h2q7 1 13.5 3.5t10.5 6.5q8 7 13 15t7 17v1z" />
    <glyph glyph-name="uacute" unicode="&#xfa;" horiz-adv-x="496" 
d="M46 463h85v-278q0 -15 3 -29t9 -28q7 -13 16.5 -24t21.5 -19q10 -5 20.5 -8t20.5 -3l12 -2t12 -1l15.5 2l14.5 2q12 4 23 10t20 14q10 8 16.5 18.5t10.5 22.5q3 11 4.5 22t2.5 22v279h86v-307q-1 -16 -5 -30.5t-11 -28.5q-6 -13 -14.5 -25.5t-19.5 -23.5t-24 -20t-27 -16
q-13 -7 -28 -11t-31 -5q-9 -2 -18 -2.5t-18 -0.5t-18 0.5t-17 2.5q-14 1 -27.5 3.5t-26.5 8.5q-16 6 -30 15t-26 20q-10 11 -19 23t-15 25q-8 15 -12.5 31t-5.5 33v308zM247 660h79l-124 -138h-42z" />
    <glyph glyph-name="ugrave" unicode="&#xf9;" horiz-adv-x="496" 
d="M46 463h85v-278q0 -15 3 -29t9 -28q7 -13 16.5 -24t21.5 -19q10 -5 20.5 -8t20.5 -3l12 -2t12 -1l15.5 2l14.5 2q12 4 23 10t20 14q10 8 16.5 18.5t10.5 22.5q3 11 4.5 22t2.5 22v279h86v-307q-1 -16 -5 -30.5t-11 -28.5q-6 -13 -14.5 -25.5t-19.5 -23.5t-24 -20t-27 -16
q-13 -7 -28 -11t-31 -5q-9 -2 -18 -2.5t-18 -0.5t-18 0.5t-17 2.5q-14 1 -27.5 3.5t-26.5 8.5q-16 6 -30 15t-26 20q-10 11 -19 23t-15 25q-8 15 -12.5 31t-5.5 33v308zM161 660h75l89 -138h-43z" />
    <glyph glyph-name="ucircumflex" unicode="&#xfb;" horiz-adv-x="496" 
d="M46 463h85v-278q0 -15 3 -29t9 -28q7 -13 16.5 -24t21.5 -19q10 -5 20.5 -8t20.5 -3l12 -2t12 -1l15.5 2l14.5 2q12 4 23 10t20 14q10 8 16.5 18.5t10.5 22.5q3 11 4.5 22t2.5 22v279h86v-307q-1 -16 -5 -30.5t-11 -28.5q-6 -13 -14.5 -25.5t-19.5 -23.5t-24 -20t-27 -16
q-13 -7 -28 -11t-31 -5q-9 -2 -18 -2.5t-18 -0.5t-18 0.5t-17 2.5q-14 1 -27.5 3.5t-26.5 8.5q-16 6 -30 15t-26 20q-10 11 -19 23t-15 25q-8 15 -12.5 31t-5.5 33v308zM208 663h68l97 -141h-43l-87 101l-93 -101h-38z" />
    <glyph glyph-name="udieresis" unicode="&#xfc;" horiz-adv-x="496" 
d="M46 463h85v-278q0 -15 3 -29t9 -28q7 -13 16.5 -24t21.5 -19q10 -5 20.5 -8t20.5 -3l12 -2t12 -1l15.5 2l14.5 2q12 4 23 10t20 14q10 8 16.5 18.5t10.5 22.5q3 11 4.5 22t2.5 22v279h86v-307q-1 -16 -5 -30.5t-11 -28.5q-6 -13 -14.5 -25.5t-19.5 -23.5t-24 -20t-27 -16
q-13 -7 -28 -11t-31 -5q-9 -2 -18 -2.5t-18 -0.5t-18 0.5t-17 2.5q-14 1 -27.5 3.5t-26.5 8.5q-16 6 -30 15t-26 20q-10 11 -19 23t-15 25q-8 15 -12.5 31t-5.5 33v308zM322 614h4.5h4.5h2h2q1 -1 2 -1h2q7 -1 13 -5t10 -9q4 -3 6.5 -7.5t4.5 -9.5q1 -1 1.5 -2.5t0.5 -3.5
v-3.5v-3.5q0 -4 -0.5 -7.5t-1.5 -6.5q0 -2 -0.5 -3.5t-1.5 -3.5q-2 -6 -6.5 -11t-9.5 -9q-6 -4 -12.5 -5.5t-13.5 -1.5h-1.5h-0.5h-1.5h-1.5q-6 0 -11.5 2.5t-10.5 6.5q-6 5 -10.5 11.5t-7.5 13.5q-1 4 -1.5 8t-0.5 8v2.5v2.5t0.5 2.5t0.5 2.5q2 6 6 11t9 9q5 5 11 8t13 4v1
zM157 618q1 -1 2 -1h3q1 -1 2 -1h2q8 -2 15.5 -7t12.5 -12q4 -4 6 -9.5t2 -11.5q0 -9 -2.5 -17t-7.5 -16q-4 -5 -9 -9t-11 -6q-2 -1 -4 -1.5t-4 -0.5q-2 -1 -4 -1h-4h-2.5h-2.5q-2 0 -3 0.5t-3 0.5q-7 2 -13 5.5t-11 7.5q-4 5 -6.5 10.5t-3.5 11.5q0 2 -0.5 3t-0.5 3v2.5
v2.5v5.5t1 4.5q0 2 1 4.5t2 5.5q3 6 7.5 11t9.5 8q6 3 12.5 4.5t13.5 1.5v1z" />
    <glyph glyph-name="dagger" unicode="&#x2020;" 
 />
    <glyph glyph-name="degree.001" horiz-adv-x="551" 
d="M265 702q3 0 6 -0.5t6 -0.5h3.5h2.5q11 -2 20.5 -6t18.5 -11q10 -7 18 -16.5t14 -20.5q5 -10 7 -21.5t2 -22.5q-1 -23 -12 -43t-29 -33q-9 -7 -18.5 -11t-20.5 -6q-4 -1 -8.5 -1h-9.5q-17 0 -33.5 6t-30.5 18q-10 9 -17.5 20t-12.5 24q-1 7 -2.5 14.5t-1.5 14.5
q0 5 0.5 9.5t1.5 8.5q5 23 19 41t35 28q7 3 14 5t14 3h7h7v1zM259 671q-15 -2 -28 -9.5t-21 -20.5q-4 -8 -6.5 -17t-2.5 -18v-5.5t1 -5.5q0 -6 2 -11.5l4 -10.5q10 -15 25.5 -24t32.5 -10q17 1 32 9.5t24 23.5q4 8 6 16t3 17v4.5t-1 4.5q-1 7 -3.5 13.5t-6.5 12.5
q-4 8 -11 13.5t-15 8.5q-6 3 -12.5 5t-13.5 3h-4.5h-4.5v1z" />
    <glyph glyph-name="cent" unicode="&#xa2;" horiz-adv-x="551" 
d="M219 672h71v-122l64 -2v-74h-71l-53 -1q-13 -2 -26 -6t-24 -11q-10 -6 -18.5 -14t-14.5 -19q-7 -11 -10.5 -23.5t-5.5 -26.5q0 -1 -0.5 -3t-0.5 -3v-3.5v-3.5q0 -4 0.5 -8.5t1.5 -8.5q0 -4 1.5 -8.5t2.5 -8.5q5 -13 13 -24t18 -20q9 -8 20 -13.5t23 -8.5l62 -2h83v-77
h-65v-125h-73v125q-13 -1 -26.5 1.5t-26.5 6.5q-13 5 -25 11t-23 14q-12 9 -22.5 19.5t-18.5 22.5q-9 13 -16 27t-12 29q-4 14 -5.5 27.5t-0.5 27.5q1 17 4 33t9 32q5 14 13 27t17 25q9 11 19.5 20.5t21.5 17.5q11 7 22.5 12.5t23.5 8.5t24 4.5t24 1.5v123z" />
    <glyph glyph-name="sterling" unicode="&#xa3;" horiz-adv-x="600" 
d="M301 721l21 2t20 1q29 0 56.5 -7.5t52.5 -22.5q26 -17 48.5 -39.5t39.5 -48.5l-39 -18q-19 28 -45.5 50t-58.5 35q-14 5 -28.5 7.5t-29.5 2.5q-9 0 -17.5 -0.5t-16.5 -2.5q-23 -4 -44.5 -14t-39.5 -25q-22 -20 -34.5 -48t-14.5 -59q2 -34 10.5 -68t21.5 -66l260 1v-38
h-250q4 -14 7 -26l6 -24l237 1v-37h-232q2 -24 0 -46.5t-7 -45.5q-10 -43 -30 -84t-47 -77q21 12 44.5 20t47.5 12q6 1 12.5 1.5t13.5 0.5q17 0 33 -3t32 -9l78 -25q6 -2 12 -3t12 -1q17 0 34 6t31 17q4 3 8 6.5t9 6.5q4 3 8 6.5t8 6.5l24 -30q-8 -8 -17 -15l-18 -14
q-20 -11 -43 -17.5t-47 -6.5h-10.5t-10.5 1l-41 10l-56 18l-14 4t-13 3q-7 2 -14 2.5t-14 0.5q-16 0 -32 -3.5t-30 -11.5l-36 -14.5t-35 -16.5l-32 39q35 36 58.5 79.5t34.5 92.5q4 21 5.5 42t0.5 43v5h-142v37h136q-1 5 -3 11t-3 13q-2 6 -3.5 12t-3.5 12l-123 1v38h111
q-10 25 -17.5 52t-12.5 54q0 3 -0.5 6t-0.5 6v5v6q0 29 9.5 57.5t27.5 52.5q25 32 60.5 53t75.5 27v1z" />
    <glyph glyph-name="section" unicode="&#xa7;" horiz-adv-x="496" 
d="M251 682q15 -1 30 -4t28 -8q25 -12 46 -29.5t37 -40.5l-58 -35q-8 10 -18 19.5t-22 16.5q-7 5 -15 8t-17 4q-1 0 -3 0.5t-3 0.5h-3.5h-3.5q-12 0 -23.5 -4.5t-20.5 -12.5q-6 -4 -9.5 -10.5t-3.5 -14.5v-1.5v-1.5q1 -9 3 -18t6 -17q37 -45 78 -88t84 -82q16 -16 30 -35
t24 -39q7 -10 11.5 -22t5.5 -24q1 -3 1 -6v-6q0 -8 -1.5 -15.5t-3.5 -15.5q-3 -11 -8.5 -21.5t-13.5 -19.5q-16 -16 -35.5 -26.5t-41.5 -15.5q26 -21 40 -52t12 -65q0 -4 -0.5 -9t-1.5 -10q-2 -7 -5 -14.5t-7 -14.5q-14 -24 -36 -41t-48 -24q-10 -2 -20.5 -3.5t-21.5 -1.5
h-7.5t-7.5 1q-31 3 -59.5 15t-51.5 32q-9 8 -17 17.5t-14 20.5q14 12 27.5 22t27.5 18l19 -18.5l20 -18.5q14 -10 28.5 -14.5t30.5 -4.5h3.5h2.5q2 1 3.5 1h2.5q17 4 29.5 15.5t17.5 28.5q1 3 1.5 7t0.5 8q0 3 -0.5 6.5t-0.5 6.5q-1 3 -2 6.5t-2 6.5q-4 11 -10.5 21
t-15.5 18q-5 6 -10.5 11.5t-11.5 10.5q-47 41 -89.5 86.5t-79.5 95.5q-6 8 -10 17.5l-8 19.5q-1 3 -2 6.5t-2 6.5q0 2 -0.5 4.5t-0.5 5.5v4.5v4.5v6t1 7q0 3 0.5 6t1.5 6q2 11 7.5 21.5t12.5 19.5q16 17 37 27.5t44 11.5q-22 20 -35 47.5t-15 58.5q-1 26 10.5 49t32.5 38
q19 15 41.5 23t45.5 9h6h6v1zM178 405q-14 -5 -25 -14.5t-16 -23.5q-1 -2 -1 -4.5v-5.5t0.5 -6t0.5 -6q1 -4 2 -7l2 -6q27 -44 63.5 -82t80.5 -67q5 -2 10.5 -3l10.5 -2q9 0 18 3t17 8q5 5 8 10.5t4 11.5q1 17 -5 32t-17 27q-19 29 -43 54.5t-50 47.5q-10 15 -26 23.5
t-34 8.5v1z" />
    <glyph glyph-name="bullet" 
 />
    <glyph glyph-name="paragraph" unicode="&#xb6;" horiz-adv-x="600" 
d="M281 666h250v-24h-60v-712h64v-22h-338v22h76v387q-10 -1 -21 -0.5t-21 1.5q-11 0 -21.5 1l-21.5 2q-32 6 -59.5 24t-44.5 45q-11 18 -17.5 38.5t-8.5 40.5q-1 5 -1 9v8q0 10 1 19.5t3 19.5q3 33 18.5 62.5t41.5 50.5q24 14 50.5 20.5t54.5 6.5h5.5h4.5t4.5 -0.5
t5.5 -0.5zM318 642v-712h108v712h-108z" />
    <glyph glyph-name="germandbls" unicode="&#xdf;" horiz-adv-x="608" 
d="M284 682q6 -1 11.5 -1.5t11.5 -0.5q12 -1 23.5 -3.5t22.5 -6.5q27 -8 49 -26t36 -42q8 -16 11.5 -33.5t3.5 -35.5v-9t-1 -9q0 -5 -1 -9.5t-2 -9.5q-13 -28 -35 -50t-50 -36l-10.5 -4l-11.5 -4q32 -10 62 -24.5t57 -33.5q18 -12 34.5 -27t29.5 -32q18 -22 27.5 -48.5
t7.5 -55.5q2 -31 -8 -60t-29 -53q-16 -25 -41.5 -41.5t-54.5 -22.5q-1 -1 -3 -1.5t-3 -1.5q-2 -1 -3.5 -1h-3.5h-188v74h160q11 0 21 3.5t19 8.5q21 12 34.5 32t15.5 43q0 3 0.5 6t0.5 6q1 2 1 5v6q0 21 -7.5 40t-22.5 35q-10 10 -20.5 18t-22.5 14l-131 65q-7 3 -12.5 8.5
t-10.5 12.5q-1 5 -2 9.5t-1 9.5q0 4 0.5 7.5t1.5 7.5q4 10 10 17.5t14 13.5q18 9 35 20t33 23q8 6 14.5 14.5t10.5 18.5q0 2 0.5 4t0.5 4q1 2 1 4v4q0 14 -5.5 28t-16.5 24q-13 10 -28 15t-31 5h-2.5h-2.5q-2 -1 -3 -1h-3q-4 -1 -7.5 -1.5t-6.5 -1.5q-4 -1 -7.5 -2t-7.5 -3
q-22 -10 -37 -30t-19 -45v-522h-82v365h-104l23 78h83v92l5 32q6 20 17.5 38.5t27.5 33.5q26 20 57.5 30.5t64.5 11.5v1z" />
    <glyph glyph-name="registered" unicode="&#xae;" 
 />
    <glyph glyph-name="copyright" unicode="&#xa9;" 
 />
    <glyph glyph-name="trademark" unicode="&#x2122;" 
 />
    <glyph glyph-name="acute" unicode="&#xb4;" horiz-adv-x="331" 
d="M196 660h78l-124 -138h-42z" />
    <glyph glyph-name="dieresis" unicode="&#xa8;" horiz-adv-x="331" 
d="M239 637h4.5h4.5h2h2q0 -1 1 -1h2q7 -1 13.5 -5t10.5 -9q5 -4 8 -10t4 -13q0 -1 0.5 -2t0.5 -2v-2v-2q0 -2 -0.5 -4.5t-0.5 -4.5q-1 -3 -1.5 -5.5t-1.5 -4.5q-3 -7 -7.5 -12t-9.5 -9q-6 -3 -12.5 -5t-13.5 -2h-0.5h-1.5h-1.5h-0.5q-7 0 -12.5 2.5t-10.5 6.5
q-6 5 -10.5 11.5t-6.5 13.5q-1 4 -1.5 7.5t-0.5 7.5v5t1 6q2 6 5.5 11t8.5 9q5 5 11.5 8t13.5 4v1zM74 641q2 -1 4.5 -1t3.5 -1q8 -2 15.5 -7t12.5 -12q4 -4 6 -9.5t3 -11.5q-1 -9 -3.5 -17t-7.5 -15q-4 -5 -9 -9.5t-11 -6.5l-8 -2t-9 -1h-5.5t-4.5 1q-7 2 -12.5 5.5
t-10.5 8.5q-4 5 -7 10t-4 11q0 2 -0.5 3t-0.5 3v2.5v2.5q0 5 1.5 10.5t3.5 10.5t6.5 10t9.5 8t11 4.5t12 1.5h0.5h1.5h1.5h0.5v1z" />
    <glyph glyph-name="notequal" unicode="&#x2260;" 
 />
    <glyph glyph-name="AE" unicode="&#xc6;" horiz-adv-x="883" 
d="M281 679q5 -1 10 -1.5t11 -1.5q5 0 10 -1l10 -2q35 -7 65.5 -24t54.5 -43q14 -14 25 -31t18 -37q13 19 28.5 35.5t33.5 29.5q23 16 48 28.5t51 21.5q34 9 68 15t69 7q11 1 23 1t24 -1v-92q-38 2 -76 -1.5t-75 -13.5q-19 -4 -38 -11.5t-36 -18.5q-31 -16 -54 -43t-34 -60
q-4 -13 -5 -26t0 -27l318 1v-86h-320q0 -17 3 -32.5t8 -30.5q6 -16 14.5 -31.5t19.5 -29.5q12 -14 26 -26t30 -22q20 -11 40.5 -19.5t42.5 -13.5q34 -6 68 -8t68 0v-84h-84l-56 2q-28 4 -54.5 13t-51.5 23q-18 10 -35 22.5t-31 28.5q-2 3 -4 5.5t-4 5.5q-3 2 -5 4.5t-4 5.5
l-1 -110h-88v297h-247v88h247v97q-4 28 -20 53.5t-42 40.5q-11 7 -24 11.5t-27 6.5q-3 0 -5.5 0.5t-4.5 0.5h-4.5h-5.5q-22 0 -43 -5t-41 -14q-13 -8 -24 -18.5t-20 -23.5q-10 -24 -16 -50t-7 -53v-431h-90v455q3 25 9 51t16 51q7 16 16.5 30.5t21.5 27.5q29 27 64.5 42.5
t74.5 17.5q10 2 20.5 2.5t20.5 0.5v1z" />
    <glyph glyph-name="Oslash" unicode="&#xd8;" horiz-adv-x="776" 
d="M363 685l54 -1l91 -22q22 -11 43 -23.5t40 -26.5l8 1l69 72h89l-115 -122l47 -68q3 -7 5 -12.5t5 -11.5l8 -22.5t7 -23.5q6 -23 8.5 -47.5t3.5 -48.5q0 -12 -0.5 -24t-1.5 -24l-23 -81q-13 -30 -31 -56.5t-41 -49.5q-18 -19 -39.5 -34.5t-44.5 -28.5q-23 -12 -48 -20.5
t-51 -11.5l-16 -2l-16 -2q-8 0 -16 -0.5t-16 -0.5h-12.5t-13.5 1q-7 0 -13.5 1l-12.5 2q-17 1 -34 4.5t-34 8.5l-104 56l-74 -72h-84l108 116q-11 13 -21 28.5t-19 31.5q-20 39 -30.5 82t-11.5 86q0 26 4 51.5t11 50.5q10 28 23.5 53.5t30.5 48.5t36 42t41 35
q24 17 50.5 30.5t54.5 21.5q21 4 42.5 7t43.5 5v1zM578 491l-179.5 -181l-175.5 -185q14 -11 30.5 -20.5t33.5 -16.5q20 -7 40.5 -10.5t41.5 -4.5q20 -1 40.5 1.5t40.5 7.5t38.5 13.5t35.5 18.5q18 12 33 27t28 32q11 15 20 31t15 33q7 21 10.5 43.5t3.5 45.5q1 23 -2 45
t-9 43q-5 15 -12 29t-17 27q-2 3 -4 5.5t-4 4.5t-4 4.5t-4 5.5v1zM405 599q-4 -1 -8 -0.5t-7 0.5q-4 1 -8 1h-8q-10 0 -20.5 -1t-20.5 -3q-19 -4 -38 -10.5t-36 -15.5q-20 -12 -38.5 -26.5t-34.5 -31.5q-13 -13 -23.5 -28t-18.5 -32q-10 -22 -15.5 -46t-7.5 -48
q-1 -6 -1 -12v-12q0 -14 1.5 -27.5t4.5 -27.5q5 -20 13 -39.5t18 -37.5l4 -6t5 -6q0 -2 1 -3l2 -2q1 -2 3 -4t3 -4l355 361v1v2v4.5t-2 4.5q-7 7 -14.5 11.5t-16.5 8.5q-22 11 -45 17.5t-47 10.5v1z" />
    <glyph glyph-name="infinity" unicode="&#x221e;" 
 />
    <glyph glyph-name="plusminus" unicode="&#xb1;" horiz-adv-x="276" 
d="M23 274h224v-83h-224v83zM114 879h48v-249h198v-46h-200v-252h-46v252h-203v46h203v249z" />
    <glyph glyph-name="lessequal" unicode="&#x2264;" 
 />
    <glyph glyph-name="greaterequal" unicode="&#x2265;" 
 />
    <glyph glyph-name="yen" unicode="&#xa5;" horiz-adv-x="496" 
d="M23 676h95v-217q1 -14 4.5 -27.5t9.5 -25.5q5 -11 13 -20.5t18 -17.5q11 -7 23 -12.5t25 -7.5q4 -1 8 -1.5t8 -0.5q4 -1 8 -1h8h5.5h5.5t5.5 0.5t5.5 0.5q14 2 27 6.5t25 11.5q11 6 19 14.5t15 18.5q7 13 10.5 27t4.5 28v224h96v-231q-1 -17 -4.5 -32.5t-9.5 -29.5
q-4 -14 -11.5 -26.5t-18.5 -23.5q-22 -26 -52 -44.5t-64 -26.5q-1 0 -2 -0.5l-3 -1.5q-1 -1 -2 -1.5t-3 -0.5v-258h-95v259q-37 7 -69 26t-56 47q-10 13 -18.5 27t-13.5 30q-7 20 -11.5 41t-5.5 43v203zM64 428v-53h357v53h-357zM64 267h357v-58h-357v58z" />
    <glyph glyph-name="mu" unicode="&#xb5;" horiz-adv-x="600" 
d="M81 455h83l7 -374q0 -3 0.5 -5t1.5 -4q2 -7 5 -13t7 -11q5 -7 12 -11.5t14 -7.5l10 -2t9 -1h4t4 1q2 0 4 0.5t4 0.5q8 2 16 5.5t15 9.5q10 10 18 21t14 23q16 35 26 71.5t15 73.5q2 9 3.5 18t2.5 18v187h88v-392q1 -8 3.5 -14t6.5 -11q3 -4 7.5 -7t8.5 -4q1 0 2 -0.5
t2 -0.5h1h2h3.5t3.5 1q2 0 3.5 1t3.5 2q5 3 9.5 7.5t6.5 10.5q6 13 10 26.5t5 26.5q1 4 1 7.5v7.5v3.5v3.5q-1 1 -1 3v3l23 1q1 -6 1 -11.5v-10.5q0 -11 -1.5 -22t-4.5 -22q-1 -12 -5.5 -22.5t-11.5 -20.5q-5 -7 -11.5 -13t-14.5 -9l-11.5 -4t-11.5 -3t-11.5 -1h-11.5
q-9 -1 -17.5 1t-16.5 6q-7 2 -14 7.5t-12 12.5q-6 9 -11 19.5t-7 21.5l-12 104q-5 -25 -13 -48.5t-19 -46.5q-7 -13 -16.5 -25t-20.5 -23q-6 -7 -14 -13t-17 -8q-5 -2 -10 -3.5t-10 -2.5t-10 -1.5t-10 -0.5h-3.5h-3.5q-1 1 -2.5 1h-3.5q-5 0 -10.5 0.5t-10.5 2.5
q-6 1 -11.5 3t-10.5 3q-11 8 -21 17.5t-19 19.5q-7 11 -12 22.5t-8 23.5l4 -66q8 -41 20.5 -81t29.5 -79q2 -10 3.5 -20.5t0.5 -20.5q-1 -6 -3.5 -12t-5.5 -12q-4 -5 -10 -7.5t-13 -2.5q-2 -1 -4 -1h-4q-4 0 -8 1t-8 3q-6 2 -10.5 7t-8.5 10q-2 5 -4 11t-3 12v629z" />
    <glyph glyph-name="partialdiff" unicode="&#x2202;" 
 />
    <glyph glyph-name="summation" unicode="&#x3a3;" 
 />
    <glyph glyph-name="product" unicode="&#x220f;" 
 />
    <glyph glyph-name="pi" unicode="&#x3c0;" 
 />
    <glyph glyph-name="integral" unicode="&#x222b;" 
 />
    <glyph glyph-name="ordfeminine" unicode="&#xaa;" horiz-adv-x="551" 
d="M-17 -153h565v-61h-565v61zM279 466q4 -1 8.5 -1h8.5q25 -1 49.5 -8t46.5 -20q13 -5 24 -12.5t21 -17.5q26 -24 42 -55.5t20 -66.5v-285h-82v265q-1 14 -5.5 29t-12.5 28q-15 26 -40 43t-55 22q-7 2 -15.5 2.5t-16.5 0.5h-6.5t-6.5 -1q-3 0 -6.5 -0.5t-6.5 -0.5
q-31 -1 -58 -15.5t-44 -40.5q-13 -21 -20 -45t-7 -50v-6.5v-7.5t0.5 -7.5t1.5 -6.5q1 -15 5 -29.5t11 -28.5q7 -13 16 -24.5t19 -21.5q11 -10 24 -17t27 -11q11 -4 23 -6t24 -2h3.5t2.5 1h3.5h2.5q14 1 26.5 5t24.5 11q13 8 24.5 18.5t19.5 22.5v-96q-23 -17 -50 -26
t-56 -11q-6 -1 -11.5 -1h-11.5q-12 1 -23.5 2.5t-22.5 4.5q-19 4 -36.5 13t-33.5 21q-14 11 -27 23.5t-24 26.5q-11 15 -20 31.5t-15 33.5q-6 20 -9 40.5t-3 41.5q0 19 3 37.5t8 36.5q6 19 15 36.5t20 33.5q11 14 23.5 26t26.5 22q14 11 30.5 19t33.5 12q21 6 43 9t44 2v1z
" />
    <glyph glyph-name="ordmasculine" unicode="&#xba;" horiz-adv-x="551" 
d="M-12 -155h566v-60h-566v60zM286 467q17 0 34.5 -3t33.5 -9q25 -9 47.5 -23t41.5 -33t33.5 -42t22.5 -49q8 -25 10.5 -52t0.5 -54q-2 -26 -11 -51t-23 -48t-33 -42.5t-42 -34.5q-22 -13 -47.5 -21t-51.5 -10q-5 -1 -9.5 -1.5t-9.5 -0.5q-5 -1 -9.5 -1h-9.5q-17 0 -33.5 2
t-33.5 6q-25 8 -48.5 21.5t-43.5 30.5q-19 19 -34.5 41.5t-25.5 47.5q-7 20 -11 40t-4 41v6v6q0 2 0.5 5t0.5 6q2 27 10.5 53t21.5 49q14 23 31.5 42.5t39.5 35.5q23 15 48 24.5t51 13.5q13 2 26.5 3t26.5 0v1zM298 386q-4 0 -7.5 0.5t-6.5 0.5q-4 1 -7.5 1h-7.5
q-5 0 -10 -0.5t-10 -0.5l-10 -2t-10 -3q-20 -5 -37 -15.5t-31 -26.5q-12 -13 -21 -27t-15 -31q-4 -17 -6 -35t-1 -36q1 -17 6 -34t13 -32q8 -16 20 -28.5t26 -23.5q15 -10 31.5 -16.5t33.5 -8.5q6 -1 12 -1.5t11 -0.5q12 0 24 2t23 6q17 5 31.5 14t27.5 22q13 11 23 26
t16 31q5 12 7 24t2 25v10.5t-1 10.5q1 18 -3 35t-12 33q-8 17 -20 30.5t-26 23.5q-14 11 -30.5 17.5t-34.5 8.5v1z" />
    <glyph glyph-name="Omega" unicode="&#x3a9;" 
 />
    <glyph glyph-name="ae" unicode="&#xe6;" horiz-adv-x="883" 
d="M241 466q27 -3 53 -10t50 -19q23 -13 41 -31.5t31 -41.5q12 18 27 33.5t33 28.5q32 20 67 30t72 9q36 0 70 -11.5t62 -34.5q26 -23 47 -52.5t34 -62.5l-309 -126l-29 67l221 94q-8 11 -19 20.5t-25 16.5q-15 8 -31 11.5t-33 2.5q-13 0 -25.5 -1.5t-24.5 -6.5
q-28 -10 -50.5 -30t-35.5 -48q-7 -16 -10 -33t-3 -35v-8.5t1 -9.5q3 -37 22 -70t50 -56q18 -10 38.5 -15.5t41.5 -5.5q8 0 15.5 1l14.5 2q14 2 28 8t26 14q22 11 38.5 28.5t26.5 39.5l11 36l72 -24q-8 -34 -24.5 -63.5t-39.5 -55.5q-11 -11 -24.5 -20.5t-28.5 -16.5
q-20 -10 -41.5 -15.5t-44.5 -7.5q-8 -2 -17 -2.5t-18 -0.5h-9.5t-9.5 1q-5 0 -9.5 1t-9.5 2q-34 6 -65.5 23t-57.5 42q-9 9 -16.5 19l-14.5 20q-8 -14 -18 -27t-22 -24q-27 -25 -61.5 -39t-71.5 -15q-10 -2 -19.5 -3t-19.5 -1q-25 0 -50 6t-48 16q-24 14 -42 36t-27 48
q-2 8 -3 16.5t-1 16.5q0 20 5.5 38t15.5 34q8 11 17 21t20 19q29 19 60 34t64 25l129 33q-17 20 -41 34t-50 19q-4 0 -7.5 0.5t-6.5 0.5q-4 1 -7.5 1h-7.5h-8t-8 -1q-4 0 -8 -0.5t-8 -1.5q-28 -6 -55.5 -16t-52.5 -24l-37 64q22 13 45.5 24t48.5 18q26 7 53 10t54 1v1z
M365 260l-106 -22q-22 -6 -44.5 -14.5t-42.5 -19.5l-10 -8l-10 -8q-6 -4 -11 -8l-10 -8q-5 -7 -8 -15t-5 -17q0 -1 -0.5 -2.5t-0.5 -2.5v-3v-3q0 -6 1 -12t3 -11q3 -8 8 -15t12 -12q11 -5 23 -8.5t25 -4.5q2 0 4 -0.5t5 -0.5h4h4q10 0 19.5 1.5t18.5 3.5q16 4 31.5 10.5
t28.5 15.5q12 8 22 17.5t17 20.5q8 11 13.5 24t7.5 26q1 5 1.5 9.5t0.5 9.5q1 4 1 9v9q0 8 -0.5 16.5t-1.5 16.5v6z" />
    <glyph glyph-name="oslash" unicode="&#xf8;" horiz-adv-x="551" 
d="M460 474h80l-83 -90q11 -12 19.5 -25t15.5 -27q8 -22 12.5 -46t5.5 -48q1 -16 -0.5 -32.5t-6.5 -32.5q-4 -19 -12.5 -37t-19.5 -35q-12 -19 -27 -35t-32 -30q-16 -10 -32.5 -18.5t-34.5 -14.5q-24 -4 -48.5 -6.5t-49.5 -0.5q-15 0 -29 2t-28 5q-3 2 -6 3t-6 3l-12 6
l-12 6l-14 12l-14 12l-46 -48h-83l89 91q-12 13 -22 29.5t-18 33.5q-6 20 -8.5 41.5t-1.5 43.5q0 19 3 37.5t8 36.5q5 17 13.5 33.5t18.5 30.5q11 15 24.5 27.5t28.5 22.5q18 11 37 19.5t39 12.5q19 5 38 7.5t38 1.5q24 -2 47.5 -8t45.5 -15q10 -4 19 -10t17 -13zM398 316
l-215 -221q11 -9 23 -15t25 -9q10 -2 19.5 -3.5t18.5 -1.5h10t9 1q14 1 26.5 5t24.5 10q13 7 23.5 16t19.5 19q10 10 18 21t14 24q4 9 7 18t5 18q1 4 1.5 9t0.5 9q0 14 -3 28t-8 27q-3 12 -7.5 23t-11.5 21v1zM253 387q-13 -2 -26.5 -6t-25.5 -10q-13 -6 -23.5 -14
t-19.5 -19q-10 -10 -18 -21t-14 -24q-3 -8 -5.5 -16.5t-4.5 -17.5q-1 -4 -1.5 -8.5t-0.5 -8.5q-1 -13 0.5 -26.5t5.5 -26.5q3 -12 8 -23.5t12 -22.5l215 219q-10 7 -22.5 12.5t-25.5 8.5q-8 2 -17 3t-18 1h-9.5t-9.5 -1v1z" />
    <glyph glyph-name="questiondown" unicode="&#xbf;" horiz-adv-x="444" 
d="M177 309h87v-201q-4 0 -8.5 1t-8.5 1q-4 1 -8.5 1h-8.5q-22 0 -43.5 -7t-40.5 -21q-22 -15 -35.5 -38.5t-15.5 -48.5q-2 -28 7 -53.5t28 -44.5q17 -14 38 -22t43 -8q25 0 47 11.5t35 32.5q12 15 18.5 33.5t6.5 38.5v2.5v2.5q-1 2 -1 3v3h91q-3 -27 -9 -52.5t-16 -50.5
q-15 -29 -38.5 -53t-52.5 -40q-15 -7 -30.5 -11.5t-32.5 -5.5q-6 -1 -12 -1h-12q-27 0 -53.5 6.5t-50.5 20.5q-30 16 -51.5 42.5t-31.5 59.5q-4 12 -6.5 24.5t-3.5 25.5q0 6 -0.5 12.5t-0.5 12.5q0 14 1.5 27.5t4.5 26.5q8 33 27.5 60.5t46.5 46.5q21 14 43.5 24.5
t46.5 16.5v122zM232 472q8 -2 15 -5.5t13 -8.5q9 -9 13.5 -21t3.5 -25v-8.5t-2 -9.5q-3 -8 -7.5 -15.5t-11.5 -13.5q-6 -6 -13 -9t-15 -4q-17 -1 -32 6.5t-26 20.5q-4 7 -6 14.5t-2 14.5v0.5v1.5v1.5v0.5q2 18 11 33t25 24q5 2 10.5 3t10.5 1h3.5t3.5 -1q1 0 3 -0.5t3 -0.5
v1z" />
    <glyph glyph-name="exclamdown" unicode="&#xa1;" horiz-adv-x="219" 
d="M55 308h86v-525h-86v525zM99 475q11 -2 21 -6.5t18 -12.5q7 -6 11.5 -14t6.5 -17q1 -3 1 -6v-6v-5.5t-1 -5.5q0 -3 -0.5 -5.5t-1.5 -5.5q-3 -8 -8 -15.5t-12 -12.5t-15.5 -8t-17.5 -3q-16 0 -29.5 7t-22.5 20q-4 6 -6.5 13.5t-3.5 14.5q-1 17 7 32.5t22 25.5q7 5 15 7
t16 2v1z" />
    <glyph glyph-name="logicalnot" unicode="&#xac;" 
 />
    <glyph glyph-name="radical" unicode="&#x221a;" 
 />
    <glyph glyph-name="florin" unicode="&#x192;" horiz-adv-x="600" 
d="M626 784l-27 -48q-21 3 -42 5.5t-42 2.5q-28 -1 -53.5 -12t-45.5 -31q-7 -9 -11.5 -19.5t-6.5 -21.5q-7 -31 -13 -62.5t-11 -63.5l130 1l-7 -40h-129l-79 -443q-2 -15 -5.5 -28.5t-7.5 -25.5q-2 -7 -4.5 -13.5t-5.5 -13.5q-9 -17 -21.5 -31.5t-27.5 -26.5
q-15 -9 -32 -15.5t-34 -10.5q-10 -2 -19.5 -3.5t-18.5 -1.5q-10 -1 -19.5 -1.5t-19.5 -0.5l-66 4l28 46q20 -4 41 -6t42 -2q28 1 54 12t45 31q11 22 18 43.5t11 44.5l78 442h-128l8 40h126l15 80l10.5 39.5t11.5 40.5q16 34 46.5 56.5t67.5 28.5q36 4 72 4.5t72 -1.5v1z" />
    <glyph glyph-name="approxequal" unicode="&#x2248;" 
 />
    <glyph glyph-name="Delta" unicode="&#x2206;" 
 />
    <glyph glyph-name="guillemotleft" unicode="&#xab;" horiz-adv-x="496" 
d="M350 378h76l-118 -150l118 -149h-72l-124 149zM181 381h74l-118 -150l120 -150h-74l-124 150z" />
    <glyph glyph-name="guillemotright" unicode="&#xbb;" horiz-adv-x="496" 
d="M232 378h72l122 -147l-122 -152h-72l120 153zM63 381h72l122 -150l-120 -150h-74l120 150z" />
    <glyph glyph-name="ellipsis" unicode="&#x2026;" 
 />
    <glyph glyph-name="Agrave" unicode="&#xc0;" horiz-adv-x="551" 
d="M261 679h10.5h10.5q16 0 31 -2.5t29 -7.5q20 -6 39 -15t36 -23q17 -13 31.5 -30.5t24.5 -37.5q9 -19 15 -38.5t8 -39.5l-1 -485h-87v297h-243v86h243v97q-2 14 -6.5 28t-11.5 27t-16 24t-20 19q-13 8 -27.5 13.5t-29.5 7.5q-3 1 -6.5 1.5t-7.5 0.5q-4 1 -7.5 1h-6.5h-6.5
t-6.5 -1q-3 0 -6.5 -0.5t-6.5 -1.5q-13 -2 -26.5 -7t-24.5 -13q-13 -8 -23.5 -19.5t-18.5 -25.5q-7 -11 -11.5 -23t-7.5 -24q-1 -11 -2.5 -21.5t-2.5 -21.5v-444h-86v455q1 5 2 11l2 12q4 18 9.5 36t12.5 35q9 19 20.5 36t26.5 32q15 14 32 26t36 19q20 8 40 12t40 4v1z
M186 876h75l89 -137h-43z" />
    <glyph glyph-name="Atilde" unicode="&#xc3;" horiz-adv-x="551" 
d="M261 679h10.5h10.5q16 0 31 -2.5t29 -7.5q20 -6 39 -15t36 -23q17 -13 31.5 -30.5t24.5 -37.5q9 -19 15 -38.5t8 -39.5l-1 -485h-87v297h-243v86h243v97q-2 14 -6.5 28t-11.5 27t-16 24t-20 19q-13 8 -27.5 13.5t-29.5 7.5q-3 1 -6.5 1.5t-7.5 0.5q-4 1 -7.5 1h-6.5h-6.5
t-6.5 -1q-3 0 -6.5 -0.5t-6.5 -1.5q-13 -2 -26.5 -7t-24.5 -13q-13 -8 -23.5 -19.5t-18.5 -25.5q-7 -11 -11.5 -23t-7.5 -24q-1 -11 -2.5 -21.5t-2.5 -21.5v-444h-86v455q1 5 2 11l2 12q4 18 9.5 36t12.5 35q9 19 20.5 36t26.5 32q15 14 32 26t36 19q20 8 40 12t40 4v1z
M367 852l38 -11q-3 -15 -9.5 -28.5t-16.5 -24.5q-6 -7 -14 -12t-16 -9t-17 -6.5t-19 -3.5q-13 0 -26.5 3t-26.5 8q-10 5 -20 8t-21 3q-4 0 -8.5 -0.5t-8.5 -1.5t-8.5 -2.5t-8.5 -3.5q-7 -7 -12.5 -15.5t-10.5 -17.5l-32 20q4 10 9.5 20.5t12.5 19.5q7 8 14.5 14.5t17.5 10.5
q8 4 17.5 5.5t19.5 0.5q14 0 27 -3t25 -9q5 -2 9.5 -4t9.5 -3q4 -1 9 -1.5t9 -0.5h7t6 1q7 0 13.5 3t11.5 7q7 6 12 14t7 18v1z" />
    <glyph glyph-name="Otilde" unicode="&#xd5;" horiz-adv-x="776" 
d="M343 679q5 0 10 0.5t11 0.5h10h10q8 0 16 -0.5t16 -0.5l16 -2t16 -3q26 -4 50.5 -12.5t46.5 -20.5q26 -15 49.5 -33t43.5 -40q32 -29 52.5 -66.5t28.5 -79.5q4 -20 6 -41t2 -42q0 -31 -4.5 -61t-12.5 -59q-19 -51 -52 -94t-78 -74q-23 -16 -49 -28t-53 -20
q-25 -5 -51.5 -7.5t-52.5 -0.5q-29 1 -57.5 5t-56.5 13q-29 11 -56 27t-52 35q-31 26 -56 59t-42 70q-9 26 -15 52t-9 52q-1 53 11.5 104t36.5 97q30 47 71.5 83t90.5 60q25 11 51 17.5t52 8.5v1zM336 595q-28 -6 -55 -17.5t-50 -28.5q-28 -21 -50.5 -48t-37.5 -59
q-10 -27 -14.5 -55.5t-5.5 -57.5q2 -28 9 -56t18 -55q13 -26 31.5 -48.5t41.5 -39.5q23 -18 49 -30.5t54 -20.5q14 -3 27.5 -4.5t27.5 -1.5q8 0 15 0.5t15 1.5q7 0 14.5 1.5t14.5 3.5q29 7 55 19.5t48 31.5t40 41.5t31 48.5q12 26 18 54.5t5 56.5q0 29 -6 57.5t-18 55.5
q-12 26 -29.5 49t-40.5 40q-20 20 -45 33.5t-52 19.5q-17 5 -34.5 8t-34.5 3h-10t-10 -1q-6 0 -11 -1l-10 -2v1zM478 853l38 -10q-3 -16 -9.5 -29t-16.5 -24q-6 -7 -14 -12.5t-16 -8.5q-8 -4 -17 -7t-19 -3q-13 0 -26.5 2.5t-26.5 7.5q-10 6 -20 8.5t-21 2.5q-9 0 -18 -1.5
t-17 -6.5q-7 -7 -12 -15.5l-10 -17.5l-32 21q3 10 9 20.5t13 19.5q7 8 14.5 14t16.5 10t18.5 5.5t19.5 1.5q14 -1 27 -4t25 -9l10 -4t10 -3t10 -1.5t10 -0.5h3t2 1h3h2q7 1 13.5 3.5t10.5 6.5q8 7 13 15t7 17v1z" />
    <glyph glyph-name="OE" unicode="&#x152;" 
 />
    <glyph glyph-name="oe" unicode="&#x153;" 
 />
    <glyph glyph-name="endash.001" 
 />
    <glyph glyph-name="emdash" unicode="&#x2014;" 
 />
    <glyph glyph-name="quotedblleft" unicode="&#x201c;" 
 />
    <glyph glyph-name="quotedblright" unicode="&#x201d;" 
 />
    <glyph glyph-name="quoteleft" unicode="&#x2018;" horiz-adv-x="219" 
d="M82 678h77l25 -195h-70z" />
    <glyph glyph-name="quoteright" unicode="&#x2019;" 
 />
    <glyph glyph-name="divide" unicode="&#xf7;" 
 />
    <glyph glyph-name="lozenge" unicode="&#x25ca;" 
 />
    <glyph glyph-name="ydieresis" unicode="&#xff;" horiz-adv-x="496" 
d="M43 463h90v-290q0 -17 5.5 -33t15.5 -30q17 -19 41.5 -29t50.5 -9q23 -1 43.5 8t35.5 26q11 14 16.5 30.5t6.5 33.5v293h89v-289q0 -6 -0.5 -10.5t-0.5 -9.5q-1 -10 -3 -19.5t-6 -18.5q-5 -15 -12.5 -29t-17.5 -26q-8 -11 -18 -20.5t-21 -17.5q-16 -10 -33.5 -16.5
t-35.5 -9.5v-201h-90v201q-22 3 -42 10.5t-37 19.5q-13 8 -24.5 18.5t-21.5 22.5q-12 15 -19.5 33t-11.5 37v325zM320 614h4.5h4.5h2h2q1 -1 2 -1h2q7 -1 13 -5t10 -9q4 -3 6.5 -7.5t4.5 -9.5q1 -1 1.5 -2.5t0.5 -3.5v-3.5v-3.5q0 -4 -0.5 -7.5t-1.5 -6.5q0 -2 -0.5 -3.5
t-1.5 -3.5q-2 -6 -6.5 -11t-10.5 -9t-12 -5.5t-13 -1.5h-1.5h-0.5h-1.5h-1.5q-6 0 -11.5 2.5t-10.5 6.5q-7 5 -11.5 11.5t-6.5 13.5q-1 3 -1.5 6.5t-0.5 7.5v6t1 6q2 6 6 11t9 9q5 5 11 8t13 4v1zM155 618q1 -1 2 -1h3q1 -1 2 -1h2q8 -2 15 -7t12 -12q5 -4 7 -9.5t2 -11.5
q0 -9 -3 -17t-8 -16q-3 -5 -8 -9t-11 -6l-8 -2t-9 -1h-2.5h-2.5q-2 0 -3 0.5t-3 0.5q-7 2 -12.5 5.5t-10.5 7.5q-4 5 -7 10.5t-4 11.5q-1 2 -1 4.5v4.5q0 6 1.5 11.5t3.5 10.5q2 6 6.5 11t10.5 8t12.5 4.5t13.5 1.5v1z" />
    <glyph glyph-name="Ydieresis" unicode="&#x178;" horiz-adv-x="496" 
d="M23 676h95v-217q1 -14 4.5 -27.5t9.5 -25.5q5 -11 13 -20.5t18 -17.5q11 -7 23 -12.5t25 -7.5q4 -1 8 -1.5t8 -0.5q4 -1 8 -1h8h5.5h5.5t5.5 0.5t5.5 0.5q14 2 27 6.5t25 11.5q11 6 19 14.5t15 18.5q7 13 10.5 27t4.5 28v224h96v-231q-1 -17 -4.5 -32.5t-9.5 -29.5
q-4 -14 -11.5 -26.5t-18.5 -23.5q-22 -26 -52 -44.5t-64 -26.5q-1 0 -2 -0.5l-3 -1.5q-1 -1 -2 -1.5t-3 -0.5v-258h-95v259q-37 7 -69 26t-56 47q-10 13 -18.5 27t-13.5 30q-7 20 -11.5 41t-5.5 43v203zM322 827h4.5h4.5h2h2q1 -1 2 -1h2q7 -2 13 -5.5t10 -8.5
q4 -3 6.5 -7.5t4.5 -9.5q1 -1 1.5 -2.5t0.5 -3.5v-3.5v-3.5q0 -4 -0.5 -7.5t-1.5 -6.5q0 -2 -0.5 -3.5t-1.5 -3.5q-2 -6 -6.5 -11t-9.5 -9q-6 -4 -12.5 -5.5t-13.5 -1.5h-1.5h-0.5h-1.5h-1.5q-6 0 -11.5 2.5t-10.5 6.5q-6 5 -10.5 11.5t-7.5 13.5q-1 4 -1.5 8t-0.5 8v4.5
t1 4.5q2 7 6 12t9 9q5 5 11 8t13 4v1zM157 831q1 -1 2 -1h3q1 -1 2 -1h2q8 -2 15.5 -7t12.5 -12q4 -4 6 -9.5t2 -11.5q0 -9 -2.5 -17t-7.5 -16q-4 -5 -9 -9t-11 -6q-2 -1 -4 -1.5t-4 -0.5q-2 -1 -4 -1h-4h-2.5h-2.5q-2 0 -3 0.5t-3 0.5q-7 2 -13 5.5t-11 7.5q-4 5 -6.5 10.5
t-3.5 11.5q-1 2 -1 5v6q0 5 1 10t3 10q3 6 7.5 11t9.5 8q6 3 12.5 4.5t13.5 1.5v1z" />
    <glyph glyph-name="fraction" unicode="&#x2215;" 
 />
    <glyph glyph-name="currency" unicode="&#xa4;" horiz-adv-x="600" 
d="M56 586l98 -95q29 21 63 32.5t70 10.5q36 1 71 -10.5t63 -33.5l97 96l30 -28l-99 -96q22 -29 33.5 -63t11.5 -70q0 -35 -11.5 -69t-33.5 -62l99 -96l-30 -29l-97 97q-28 -23 -63 -35t-71 -12t-70 12t-63 34l-98 -96l-29 29l98 97q-22 27 -33.5 61t-10.5 69q-1 36 10.5 70
t33.5 62l-98 97zM287 499q-34 -1 -64.5 -14t-54.5 -36q-23 -24 -36 -55t-12 -65q-1 -33 11.5 -64t35.5 -55q24 -24 55 -37.5t65 -14.5q34 1 65 14.5t55 37.5q23 24 36 55t13 64q0 34 -13 65t-37 55q-24 23 -55 36t-64 13v1z" />
    <glyph glyph-name="guilsinglleft" unicode="&#x2039;" 
 />
    <glyph glyph-name="guilsinglright" unicode="&#x203a;" 
 />
    <glyph glyph-name="fi" unicode="&#xf001;" 
 />
    <glyph glyph-name="fl" unicode="&#xf002;" 
 />
    <glyph glyph-name="daggerdbl" unicode="&#x2021;" 
 />
    <glyph glyph-name="periodcentered" unicode="&#x2219;" horiz-adv-x="219" 
d="M113 367q1 -1 2 -1.5t3 -0.5q1 0 2.5 -0.5t2.5 -0.5q8 -2 15.5 -7t13.5 -11q5 -5 8.5 -11t4.5 -13q1 -3 1 -6v-6q0 -6 -1 -12t-3 -11q-3 -7 -7 -13t-10 -11q-7 -5 -15.5 -8t-16.5 -5q-9 -1 -17.5 0.5t-16.5 5.5t-14 10t-11 13q-2 5 -3.5 10.5t-1.5 11.5q-1 3 -1 5.5v5.5
q0 7 1.5 13.5t5.5 12.5q5 8 11.5 13.5t14.5 9.5q5 3 11.5 4t13.5 1h2h2h1h2v1z" />
    <glyph glyph-name="quotesinglbase" unicode="&#x201a;" 
 />
    <glyph glyph-name="quotedblbase" unicode="&#x201e;" 
 />
    <glyph glyph-name="perthousand" unicode="&#x2030;" 
 />
    <glyph glyph-name="Acircumflex" unicode="&#xc2;" horiz-adv-x="551" 
d="M261 679h10.5h10.5q16 0 31 -2.5t29 -7.5q20 -6 39 -15t36 -23q17 -13 31.5 -30.5t24.5 -37.5q9 -19 15 -38.5t8 -39.5l-1 -485h-87v297h-243v86h243v97q-2 14 -6.5 28t-11.5 27t-16 24t-20 19q-13 8 -27.5 13.5t-29.5 7.5q-3 1 -6.5 1.5t-7.5 0.5q-4 1 -7.5 1h-6.5h-6.5
t-6.5 -1q-3 0 -6.5 -0.5t-6.5 -1.5q-13 -2 -26.5 -7t-24.5 -13q-13 -8 -23.5 -19.5t-18.5 -25.5q-7 -11 -11.5 -23t-7.5 -24q-1 -11 -2.5 -21.5t-2.5 -21.5v-444h-86v455q1 5 2 11l2 12q4 18 9.5 36t12.5 35q9 19 20.5 36t26.5 32q15 14 32 26t36 19q20 8 40 12t40 4v1z
M233 880h68l97 -141h-43l-87 101l-93 -101h-38z" />
    <glyph glyph-name="Ecircumflex" unicode="&#xca;" horiz-adv-x="496" 
d="M348 674h99v-89q-13 1 -26.5 1.5t-26.5 0.5q-16 0 -32 -1.5t-32 -3.5q-23 -4 -45.5 -11.5t-42.5 -18.5q-17 -9 -32.5 -20t-29.5 -25q-23 -25 -37.5 -55.5t-19.5 -64.5l325 1v-88h-325q1 -34 12.5 -65t32.5 -57q14 -17 30 -32t35 -27q33 -17 69 -25.5t73 -8.5l73 1v-86
h-73l-71 2q-26 4 -51 12.5t-48 20.5q-22 11 -41.5 24.5t-37.5 29.5q-19 20 -36 42.5t-30 47.5q-10 20 -17 40.5t-11 42.5q-3 20 -5 40.5t-2 40.5q0 16 1.5 32.5t3.5 32.5q8 26 18.5 51t22.5 50q16 26 37 48.5t46 40.5q20 13 41 25t43 23q26 11 54 18t56 9v1zM202 874h68
l97 -141h-43l-88 101l-92 -101h-38z" />
    <glyph glyph-name="Aacute" unicode="&#xc1;" horiz-adv-x="551" 
d="M261 679h10.5h10.5q16 0 31 -2.5t29 -7.5q20 -6 39 -15t36 -23q17 -13 31.5 -30.5t24.5 -37.5q9 -19 15 -38.5t8 -39.5l-1 -485h-87v297h-243v86h243v97q-2 14 -6.5 28t-11.5 27t-16 24t-20 19q-13 8 -27.5 13.5t-29.5 7.5q-3 1 -6.5 1.5t-7.5 0.5q-4 1 -7.5 1h-6.5h-6.5
t-6.5 -1q-3 0 -6.5 -0.5t-6.5 -1.5q-13 -2 -26.5 -7t-24.5 -13q-13 -8 -23.5 -19.5t-18.5 -25.5q-7 -11 -11.5 -23t-7.5 -24q-1 -11 -2.5 -21.5t-2.5 -21.5v-444h-86v455q1 5 2 11l2 12q4 18 9.5 36t12.5 35q9 19 20.5 36t26.5 32q15 14 32 26t36 19q20 8 40 12t40 4v1z
M272 876h79l-125 -137h-41z" />
    <glyph glyph-name="Edieresis" unicode="&#xcb;" horiz-adv-x="496" 
d="M348 674h99v-89q-13 1 -26.5 1.5t-26.5 0.5q-16 0 -32 -1.5t-32 -3.5q-23 -4 -45.5 -11.5t-42.5 -18.5q-17 -9 -32.5 -20t-29.5 -25q-23 -25 -37.5 -55.5t-19.5 -64.5l325 1v-88h-325q1 -34 12.5 -65t32.5 -57q14 -17 30 -32t35 -27q33 -17 69 -25.5t73 -8.5l73 1v-86
h-73l-71 2q-26 4 -51 12.5t-48 20.5q-22 11 -41.5 24.5t-37.5 29.5q-19 20 -36 42.5t-30 47.5q-10 20 -17 40.5t-11 42.5q-3 20 -5 40.5t-2 40.5q0 16 1.5 32.5t3.5 32.5q8 26 18.5 51t22.5 50q16 26 37 48.5t46 40.5q20 13 41 25t43 23q26 11 54 18t56 9v1zM316 825h4.5
h4.5h2h2q1 -1 2 -1h2q7 -2 13 -5.5t10 -8.5q4 -3 6.5 -7.5t4.5 -9.5q1 -1 1.5 -2.5t0.5 -3.5v-3.5v-3.5q0 -4 -0.5 -7.5t-1.5 -6.5q0 -2 -0.5 -3.5t-1.5 -3.5q-2 -6 -6.5 -11t-10.5 -9t-12 -5.5t-13 -1.5h-1.5h-0.5h-1.5h-1.5q-6 0 -11.5 2.5t-10.5 6.5q-7 5 -11.5 11.5
t-6.5 13.5q-1 3 -1.5 6.5t-0.5 7.5v3v3q0 1 0.5 2.5t0.5 2.5q2 7 6 12t9 9q5 5 11 8t13 4v1zM151 829q1 -1 2 -1h3q1 -1 2 -1h2q8 -3 15 -7.5t12 -11.5q3 -3 5 -6.5t3 -7.5q1 -2 1 -3.5v-3.5q0 -9 -3 -17t-8 -16q-3 -5 -8 -9t-11 -6q-2 -1 -4 -1.5t-4 -0.5q-2 -1 -4 -1h-4
h-2.5h-2.5q-2 0 -3 0.5t-3 0.5q-7 2 -13 5.5t-11 7.5q-4 5 -7 10.5t-4 11.5q-1 2 -1 4.5v4.5q0 3 0.5 5.5t0.5 5.5q1 3 2 5.5t2 5.5q2 6 6.5 11t10.5 8t12.5 4.5t13.5 1.5v1z" />
    <glyph glyph-name="Egrave" unicode="&#xc8;" horiz-adv-x="496" 
d="M348 674h99v-89q-13 1 -26.5 1.5t-26.5 0.5q-16 0 -32 -1.5t-32 -3.5q-23 -4 -45.5 -11.5t-42.5 -18.5q-17 -9 -32.5 -20t-29.5 -25q-23 -25 -37.5 -55.5t-19.5 -64.5l325 1v-88h-325q1 -34 12.5 -65t32.5 -57q14 -17 30 -32t35 -27q33 -17 69 -25.5t73 -8.5l73 1v-86
h-73l-71 2q-26 4 -51 12.5t-48 20.5q-22 11 -41.5 24.5t-37.5 29.5q-19 20 -36 42.5t-30 47.5q-10 20 -17 40.5t-11 42.5q-3 20 -5 40.5t-2 40.5q0 16 1.5 32.5t3.5 32.5q8 26 18.5 51t22.5 50q16 26 37 48.5t46 40.5q20 13 41 25t43 23q26 11 54 18t56 9v1zM154 870h76
l88 -137h-43z" />
    <glyph glyph-name="Iacute" unicode="&#xcd;" horiz-adv-x="219" 
d="M59 672h97v-672h-97v672zM112 868h78l-124 -137h-42z" />
    <glyph glyph-name="Icircumflex" unicode="&#xce;" horiz-adv-x="219" 
d="M59 672h97v-672h-97v672zM73 872h68l97 -141h-43l-88 101l-92 -101h-38z" />
    <glyph glyph-name="Idieresis" unicode="&#xcf;" horiz-adv-x="219" 
d="M59 672h97v-672h-97v672zM187 823h4.5h4.5h2h2q1 -1 2 -1h2q7 -1 13 -5t10 -9q4 -3 6.5 -7.5t4.5 -9.5q1 -1 1.5 -2.5t0.5 -3.5v-3.5v-3.5q0 -4 -0.5 -7.5t-1.5 -6.5q0 -2 -0.5 -3.5t-1.5 -3.5q-2 -6 -6.5 -11t-10.5 -9t-12 -5.5t-13 -1.5h-1.5h-0.5h-1.5h-1.5
q-6 0 -11.5 2.5t-10.5 6.5q-7 5 -11.5 11.5t-6.5 13.5q-1 3 -1.5 6.5t-0.5 7.5v3v3q0 1 0.5 2.5t0.5 2.5q2 7 6 12t9 9q5 5 11 8t13 4v1zM22 827q1 -1 2 -1h3q1 -1 2 -1h2q8 -2 15 -7t12 -12q5 -4 7 -9.5t2 -11.5q0 -9 -3 -17t-8 -16q-3 -5 -8 -9t-11 -6q-2 -1 -4 -1.5
t-4 -0.5q-2 -1 -4 -1h-4h-6t-6 1q-7 2 -12 5.5t-9 7.5q-5 5 -7.5 10.5t-3.5 11.5q-1 2 -1 4.5v4.5q0 6 1.5 11.5t3.5 10.5q2 6 6.5 11t10.5 8q4 3 10.5 4.5t13.5 1.5v1z" />
    <glyph glyph-name="Igrave" unicode="&#xcc;" horiz-adv-x="219" 
d="M59 672h97v-672h-97v672zM25 868h76l88 -137h-43z" />
    <glyph glyph-name="Oacute" unicode="&#xd3;" horiz-adv-x="776" 
d="M343 679q5 0 10 0.5t11 0.5h10h10q8 0 16 -0.5t16 -0.5l16 -2t16 -3q26 -4 50.5 -12.5t46.5 -20.5q26 -15 49.5 -33t43.5 -40q32 -29 52.5 -66.5t28.5 -79.5q4 -20 6 -41t2 -42q0 -31 -4.5 -61t-12.5 -59q-19 -51 -52 -94t-78 -74q-23 -16 -49 -28t-53 -20
q-25 -5 -51.5 -7.5t-52.5 -0.5q-29 1 -57.5 5t-56.5 13q-29 11 -56 27t-52 35q-31 26 -56 59t-42 70q-9 26 -15 52t-9 52q-1 53 11.5 104t36.5 97q30 47 71.5 83t90.5 60q25 11 51 17.5t52 8.5v1zM336 595q-28 -6 -55 -17.5t-50 -28.5q-28 -21 -50.5 -48t-37.5 -59
q-10 -27 -14.5 -55.5t-5.5 -57.5q2 -28 9 -56t18 -55q13 -26 31.5 -48.5t41.5 -39.5q23 -18 49 -30.5t54 -20.5q14 -3 27.5 -4.5t27.5 -1.5q8 0 15 0.5t15 1.5q7 0 14.5 1.5t14.5 3.5q29 7 55 19.5t48 31.5t40 41.5t31 48.5q12 26 18 54.5t5 56.5q0 29 -6 57.5t-18 55.5
q-12 26 -29.5 49t-40.5 40q-20 20 -45 33.5t-52 19.5q-17 5 -34.5 8t-34.5 3h-10t-10 -1q-6 0 -11 -1l-10 -2v1zM383 878h78l-124 -138h-42z" />
    <glyph glyph-name="Ocircumflex" unicode="&#xd4;" horiz-adv-x="551" 
d="M286 467q17 0 34.5 -3t33.5 -9q25 -9 47.5 -23t41.5 -33t33.5 -42t22.5 -49q8 -25 10.5 -52t0.5 -54q-2 -26 -11 -51t-23 -48t-33 -42.5t-42 -34.5q-22 -13 -47.5 -21t-51.5 -10q-5 -1 -9.5 -1.5t-9.5 -0.5q-5 -1 -9.5 -1h-9.5q-17 0 -33.5 2t-33.5 6q-25 8 -48.5 21.5
t-43.5 30.5q-19 19 -34.5 41.5t-25.5 47.5q-7 20 -11 40t-4 41v6v6q0 2 0.5 5t0.5 6q2 27 10.5 53t21.5 49q14 23 31.5 42.5t39.5 35.5q23 15 48 24.5t51 13.5q13 2 26.5 3t26.5 0v1zM298 386q-4 0 -7.5 0.5t-6.5 0.5q-4 1 -7.5 1h-7.5q-5 0 -10 -0.5t-10 -0.5l-10 -2
t-10 -3q-20 -5 -37 -15.5t-31 -26.5q-12 -13 -21 -27t-15 -31q-4 -17 -6 -35t-1 -36q1 -17 6 -34t13 -32q8 -16 20 -28.5t26 -23.5q15 -10 31.5 -16.5t33.5 -8.5q6 -1 12 -1.5t11 -0.5q12 0 24 2t23 6q17 5 31.5 14t27.5 22q13 11 23 26t16 31q5 12 7 24t2 25v10.5t-1 10.5
q1 18 -3 35t-12 33q-8 17 -20 30.5t-26 23.5q-14 11 -30.5 17.5t-34.5 8.5v1zM236 668h68l97 -142h-43l-88 102l-92 -102h-38z" />
    <glyph glyph-name="apple" unicode="&#xf000;" 
 />
    <glyph glyph-name="Ograve" unicode="&#xd2;" horiz-adv-x="776" 
d="M343 679q5 0 10 0.5t11 0.5h10h10q8 0 16 -0.5t16 -0.5l16 -2t16 -3q26 -4 50.5 -12.5t46.5 -20.5q26 -15 49.5 -33t43.5 -40q32 -29 52.5 -66.5t28.5 -79.5q4 -20 6 -41t2 -42q0 -31 -4.5 -61t-12.5 -59q-19 -51 -52 -94t-78 -74q-23 -16 -49 -28t-53 -20
q-25 -5 -51.5 -7.5t-52.5 -0.5q-29 1 -57.5 5t-56.5 13q-29 11 -56 27t-52 35q-31 26 -56 59t-42 70q-9 26 -15 52t-9 52q-1 53 11.5 104t36.5 97q30 47 71.5 83t90.5 60q25 11 51 17.5t52 8.5v1zM336 595q-28 -6 -55 -17.5t-50 -28.5q-28 -21 -50.5 -48t-37.5 -59
q-10 -27 -14.5 -55.5t-5.5 -57.5q2 -28 9 -56t18 -55q13 -26 31.5 -48.5t41.5 -39.5q23 -18 49 -30.5t54 -20.5q14 -3 27.5 -4.5t27.5 -1.5q8 0 15 0.5t15 1.5q7 0 14.5 1.5t14.5 3.5q29 7 55 19.5t48 31.5t40 41.5t31 48.5q12 26 18 54.5t5 56.5q0 29 -6 57.5t-18 55.5
q-12 26 -29.5 49t-40.5 40q-20 20 -45 33.5t-52 19.5q-17 5 -34.5 8t-34.5 3h-10t-10 -1q-6 0 -11 -1l-10 -2v1zM296 878h76l89 -138h-43z" />
    <glyph glyph-name="Uacute" unicode="&#xda;" horiz-adv-x="551" 
d="M47 676h91l-1 -488q2 -15 8 -29t14 -26q8 -11 18 -20t23 -15q14 -7 28.5 -12t30.5 -7q15 -1 29.5 1t27.5 7q14 4 26.5 10.5t22.5 16.5q11 12 18.5 26.5t11.5 29.5q3 12 4.5 24.5t1.5 25.5v456h90v-473q-4 -41 -20.5 -79t-44.5 -69q-13 -14 -29.5 -25.5t-34.5 -19.5
q-13 -6 -27.5 -9t-28.5 -4q-5 -1 -9.5 -1.5t-9.5 -0.5q-5 -1 -9.5 -1h-9.5q-9 0 -18 0.5t-18 2.5q-17 2 -33.5 6t-31.5 11q-18 9 -33.5 21t-28.5 28q-12 12 -21.5 26.5t-17.5 29.5q-7 17 -12 35.5t-7 37.5v484zM274 872h78l-124 -137h-42z" />
    <glyph glyph-name="Ucircumflex" unicode="&#xdb;" horiz-adv-x="551" 
d="M47 676h91l-1 -488q2 -15 8 -29t14 -26q8 -11 18 -20t23 -15q14 -7 28.5 -12t30.5 -7q15 -1 29.5 1t27.5 7q14 4 26.5 10.5t22.5 16.5q11 12 18.5 26.5t11.5 29.5q3 12 4.5 24.5t1.5 25.5v456h90v-473q-4 -41 -20.5 -79t-44.5 -69q-13 -14 -29.5 -25.5t-34.5 -19.5
q-13 -6 -27.5 -9t-28.5 -4q-5 -1 -9.5 -1.5t-9.5 -0.5q-5 -1 -9.5 -1h-9.5q-9 0 -18 0.5t-18 2.5q-17 2 -33.5 6t-31.5 11q-18 9 -33.5 21t-28.5 28q-12 12 -21.5 26.5t-17.5 29.5q-7 17 -12 35.5t-7 37.5v484zM235 876h67l98 -141h-43l-88 101l-93 -101h-38z" />
    <glyph glyph-name="Ugrave" unicode="&#xd9;" horiz-adv-x="551" 
d="M47 676h91l-1 -488q2 -15 8 -29t14 -26q8 -11 18 -20t23 -15q14 -7 28.5 -12t30.5 -7q15 -1 29.5 1t27.5 7q14 4 26.5 10.5t22.5 16.5q11 12 18.5 26.5t11.5 29.5q3 12 4.5 24.5t1.5 25.5v456h90v-473q-4 -41 -20.5 -79t-44.5 -69q-13 -14 -29.5 -25.5t-34.5 -19.5
q-13 -6 -27.5 -9t-28.5 -4q-5 -1 -9.5 -1.5t-9.5 -0.5q-5 -1 -9.5 -1h-9.5q-9 0 -18 0.5t-18 2.5q-17 2 -33.5 6t-31.5 11q-18 9 -33.5 21t-28.5 28q-12 12 -21.5 26.5t-17.5 29.5q-7 17 -12 35.5t-7 37.5v484zM187 872h75l89 -137h-43z" />
    <glyph glyph-name="dotlessi" unicode="&#x131;" 
 />
    <glyph glyph-name="circumflex" unicode="&#x2dc;" horiz-adv-x="331" 
d="M126 663h68l97 -141h-43l-87 101l-93 -101h-38z" />
    <glyph glyph-name="tilde" unicode="&#x2c6;" horiz-adv-x="331" 
d="M263 649l38 -11q-3 -15 -9.5 -28.5t-16.5 -24.5q-6 -7 -14 -12.5t-16 -8.5q-8 -4 -17 -6.5t-19 -3.5q-13 0 -26.5 3t-26.5 8q-10 5 -20 8t-21 3q-4 0 -8.5 -0.5t-8.5 -1.5t-8.5 -2.5t-8.5 -3.5q-7 -7 -12.5 -15.5t-10.5 -18.5l-32 21q4 10 9.5 20.5t12.5 19.5
q7 8 14.5 14.5t17.5 10.5q8 4 17.5 5.5t19.5 0.5q14 0 27 -3.5t25 -8.5q5 -2 9.5 -4t9.5 -3q4 -1 9 -1.5t9 -0.5h7t6 1q7 0 13.5 3t11.5 7q7 6 12 14t7 18v1z" />
    <glyph glyph-name="macron" unicode="&#x2c9;" 
 />
    <glyph glyph-name="breve" unicode="&#x2d8;" 
 />
    <glyph glyph-name="dotaccent" unicode="&#x2d9;" 
 />
    <glyph glyph-name="ring" unicode="&#x2da;" 
 />
    <glyph glyph-name="cedilla" unicode="&#xb8;" 
 />
    <glyph glyph-name="hungarumlaut" unicode="&#x2ba;" 
 />
    <glyph glyph-name="ogonek" unicode="&#x2db;" 
 />
    <glyph glyph-name="caron" unicode="&#x2c7;" 
 />
    <glyph glyph-name="Lslash" unicode="&#x141;" 
 />
    <glyph glyph-name="lslash" unicode="&#x142;" 
 />
    <glyph glyph-name="Scaron" unicode="&#x160;" horiz-adv-x="496" 
d="M209 676h221v-92h-244q-10 -2 -19.5 -6t-17.5 -10q-7 -5 -13 -12t-11 -15q-4 -7 -6.5 -16t-1.5 -18t4 -17t7 -16q7 -11 16.5 -20t20.5 -15l203 -111q29 -19 51 -45.5t35 -58.5q2 -12 3.5 -24t1.5 -25v-5.5v-5.5t-0.5 -5.5t-0.5 -5.5q-3 -28 -13.5 -53.5t-27.5 -47.5
q-18 -21 -42.5 -34t-52.5 -17q-2 -1 -4.5 -1h-5.5h-2h-2h-2h-2h-281v86h270q12 1 23.5 6t21.5 12q8 5 13.5 12t9.5 15q2 5 3.5 10t1.5 10q1 5 1 10v10q-1 10 -3 19.5t-7 17.5q-7 11 -17 21t-21 17q-55 35 -112 67.5t-116 62.5q-22 20 -38 44.5t-25 52.5q-1 6 -1.5 12.5
t-0.5 13.5v7.5t1 7.5q0 3 0.5 6.5t1.5 7.5q2 14 5.5 28t9.5 27q17 26 39.5 45.5t50.5 31.5q15 6 31 9.5t32 4.5zM108 872h42l90 -101l92 101h42l-94 -137h-77z" />
    <glyph glyph-name="scaron" unicode="&#x161;" horiz-adv-x="444" 
d="M150 463h242v-77h-238q-7 -1 -14 -3.5t-13 -7.5q-4 -4 -7 -10.5t-4 -13.5q0 -1 -0.5 -2l-0.5 -1v-2v-2q0 -2 0.5 -4t0.5 -4q1 -3 2 -5l2 -4q2 -4 6.5 -8t8.5 -6l209 -77q25 -11 42.5 -31.5t23.5 -46.5q2 -9 3 -18t1 -18v-8.5t-1 -9.5q-5 -27 -20.5 -49.5t-38.5 -36.5
q-16 -9 -33.5 -13.5t-35.5 -4.5h-257v76h259q12 3 21.5 12t13.5 22q1 2 1 5v6q0 5 -1 10t-3 10q-4 8 -11.5 14t-16.5 9l-196 74q-13 4 -24 12t-20 19q-12 16 -18 35t-6 38v7.5t1 7.5q4 26 18 48t36 36q16 9 33 14.5t35 6.5v1zM87 660h42l90 -102l92 102h42l-94 -138h-77z
" />
    <glyph glyph-name="Zcaron" unicode="&#x17d;" 
 />
    <glyph glyph-name="zcaron" unicode="&#x17e;" 
 />
    <glyph glyph-name="brokenbar" unicode="&#xa6;" 
 />
    <glyph glyph-name="Eth" unicode="&#xd0;" horiz-adv-x="608" 
d="M57 676h188q29 -3 56.5 -10.5t53.5 -18.5t50 -26t46 -34q34 -34 59 -74.5t40 -86.5q8 -31 11 -63t1 -64q-2 -22 -8 -44.5t-15 -44.5q-13 -29 -29.5 -56t-37.5 -52q-16 -17 -34.5 -31.5t-38.5 -26.5q-33 -21 -70 -32.5t-77 -11.5q-16 -1 -32.5 -1t-33.5 1v87q6 -1 12 -1.5
t12 -0.5q5 0 11 0.5t12 0.5q12 0 24 1.5t24 2.5q20 5 39 13t37 18q14 9 25.5 19.5t21.5 22.5q15 16 27 33.5t22 36.5q8 20 11.5 42t3.5 44q2 20 0 39t-7 38q-6 23 -15.5 45.5t-23.5 42.5q-10 16 -23.5 29.5t-28.5 24.5q-16 12 -33.5 21t-37.5 16q-18 5 -36.5 8t-37.5 4
q-9 1 -18.5 1h-18.5h-20.5t-21.5 -2v-586h-89v676zM51 365h244v-55h-244v55z" />
    <glyph glyph-name="eth" unicode="&#xf0;" horiz-adv-x="551" 
d="M414 673h86v-452q-1 -30 -9 -57.5t-22 -53.5q-9 -20 -22.5 -37.5t-30.5 -31.5q-17 -13 -36.5 -23t-40.5 -17q-10 -1 -21.5 -3.5t-22.5 -3.5q-5 0 -10.5 -0.5t-11.5 -0.5h-5.5h-4.5t-4.5 0.5t-5.5 0.5q-22 0 -43.5 4t-41.5 12q-19 10 -36.5 23.5t-31.5 29.5
q-15 16 -27.5 34.5t-21.5 38.5q-8 20 -13 41t-6 43q-1 44 12 86t38 77q29 34 67 56t81 29q40 2 78.5 -6t73.5 -25v-83q-15 10 -31.5 18t-33.5 14q-14 5 -28.5 6.5t-28.5 0.5q-14 0 -28 -3.5t-27 -9.5q-28 -10 -49.5 -31.5t-31.5 -50.5q-6 -14 -8.5 -29t-2.5 -30t3 -29.5
t8 -28.5q9 -27 26 -50.5t40 -40.5q13 -7 26.5 -11.5t28.5 -6.5q6 -1 12 -1.5t12 -0.5q8 0 16.5 1l16.5 2q14 4 27.5 10t24.5 16q23 16 39 39.5t21 51.5v483zM242 572h244v-55h-244v55z" />
    <glyph glyph-name="Yacute" unicode="&#xdd;" horiz-adv-x="496" 
d="M23 676h95v-217q1 -14 4.5 -27.5t9.5 -25.5q5 -11 13 -20.5t18 -17.5q11 -7 23 -12.5t25 -7.5q4 -1 8 -1.5t8 -0.5q4 -1 8 -1h8h5.5h5.5t5.5 0.5t5.5 0.5q14 2 27 6.5t25 11.5q11 6 19 14.5t15 18.5q7 13 10.5 27t4.5 28v224h96v-231q-1 -17 -4.5 -32.5t-9.5 -29.5
q-4 -14 -11.5 -26.5t-18.5 -23.5q-22 -26 -52 -44.5t-64 -26.5q-1 0 -2 -0.5l-3 -1.5q-1 -1 -2 -1.5t-3 -0.5v-258h-95v259q-37 7 -69 26t-56 47q-10 13 -18.5 27t-13.5 30q-7 20 -11.5 41t-5.5 43v203zM247 872h79l-124 -137h-42z" />
    <glyph glyph-name="yacute" unicode="&#xfd;" horiz-adv-x="496" 
d="M43 463h90v-290q0 -17 5.5 -33t15.5 -30q17 -19 41.5 -29t50.5 -9q23 -1 43.5 8t35.5 26q11 14 16.5 30.5t6.5 33.5v293h89v-289q0 -6 -0.5 -10.5t-0.5 -9.5q-1 -10 -3 -19.5t-6 -18.5q-5 -15 -12.5 -29t-17.5 -26q-8 -11 -18 -20.5t-21 -17.5q-16 -10 -33.5 -16.5
t-35.5 -9.5v-201h-90v201q-22 3 -42 10.5t-37 19.5q-13 8 -24.5 18.5t-21.5 22.5q-12 15 -19.5 33t-11.5 37v325zM245 660h78l-124 -138h-42z" />
    <glyph glyph-name="Thorn" unicode="&#xde;" horiz-adv-x="551" 
d="M272 466q22 0 43.5 -2.5t42.5 -8.5q41 -15 74.5 -43.5t55.5 -66.5q9 -19 15 -39.5t8 -42.5q0 -4 0.5 -8t0.5 -8q1 -4 1 -8v-8q0 -15 -1.5 -29.5t-5.5 -28.5q-5 -22 -14 -43t-22 -40q-11 -19 -26 -34.5t-33 -28.5q-18 -12 -38.5 -19.5t-41.5 -9.5q-6 -2 -12.5 -2.5
t-13.5 -1.5t-13.5 -1h-12.5h-8.5h-8.5q-5 0 -9 0.5t-9 1.5q-23 2 -44 10t-38 23v85q16 -15 35 -24.5t40 -14.5q10 -2 19.5 -3.5t19.5 -0.5h9.5t9.5 1q4 0 9 1t9 2q17 4 31.5 11.5t27.5 17.5q28 21 43 52.5t14 65.5q2 22 -1 43t-11 41q-10 16 -21.5 31t-24.5 28
q-13 9 -27 15.5t-30 9.5q-10 2 -19.5 3.5t-19.5 1.5h-6t-5 -1q-3 0 -6 -0.5t-6 -0.5q-37 -7 -66 -30t-44 -58q-7 -22 -11 -45t-4 -47v-420h-82v458q1 21 6 42.5t14 40.5q10 20 22 37.5t28 32.5q15 15 33.5 27t38.5 20t41.5 11.5t43.5 3.5v1z" />
    <glyph glyph-name="thorn" unicode="&#xfe;" horiz-adv-x="496" 
d="M250 679q20 0 39 -2.5t38 -8.5q17 -4 32 -11t29 -17q15 -10 28 -23t24 -28q21 -28 31.5 -62.5t10.5 -70.5q0 -38 -13.5 -73.5t-39.5 -64.5q-10 -13 -22.5 -24t-26.5 -19q-18 -10 -38 -17.5t-41 -10.5l-133 1v86h127q27 7 48.5 25t34.5 43q6 10 9.5 21t4.5 23q1 4 1 7.5
v7.5q0 13 -2.5 25t-7.5 24q-4 14 -11.5 25.5t-18.5 21.5q-10 10 -21.5 17.5t-24.5 11.5q-13 5 -26.5 6.5t-27.5 0.5q-13 0 -26.5 -3t-25.5 -10q-26 -13 -43 -36t-22 -52v-492h-91v522q4 17 12 34t19 31q10 14 22 25t25 20q14 11 29 19t31 13q17 7 33.5 10t33.5 4v1z" />
    <glyph glyph-name="minus" unicode="&#x2212;" horiz-adv-x="551" 
d="M-10 245h565v-60h-565v60z" />
    <glyph glyph-name="multiply" unicode="&#xd7;" 
 />
    <glyph glyph-name="onesuperior" unicode="&#xb9;" 
 />
    <glyph glyph-name="twosuperior" unicode="&#xb2;" 
 />
    <glyph glyph-name="threesuperior" unicode="&#xb3;" 
 />
    <glyph glyph-name="onehalf" unicode="&#xbd;" horiz-adv-x="551" 
d="M836 115q3 -1 6.5 -0.5t6.5 0.5h6.5h6.5q7 0 14.5 -0.5t14.5 -1.5q7 0 14.5 -1.5t14.5 -3.5q20 -4 39.5 -13t36.5 -21q32 -28 54.5 -63t32.5 -75q2 -9 3 -18.5t1 -19.5q0 -11 -1.5 -22.5t-3.5 -22.5q-11 -44 -37 -82t-63 -65l-234 -183h335v-89h-397q-18 2 -33 12t-25 25
q-3 6 -4.5 12.5t-1.5 13.5v2t1 2v2v2q1 13 6 25t13 21l308 249q12 13 22 28t17 32q1 4 2 9t1 9q1 5 1 9.5v9.5q0 9 -1 18t-3 18q-2 13 -8 25t-15 23q-9 12 -20.5 21t-25.5 16q-16 8 -33.5 11t-35.5 2q-16 -1 -32 -5.5t-30 -12.5q-12 -6 -22 -14t-18 -18q-10 -14 -16 -30.5
t-8 -32.5l-2 -12t-1 -11q1 -8 2 -14.5l2 -13.5q5 -17 13 -32t18 -28q13 -13 28 -22.5t31 -15.5q8 -3 15.5 -5.5t14.5 -3.5l-75 -59q-20 5 -38.5 15.5t-33.5 25.5q-29 30 -47 68.5t-23 79.5q1 43 16 82t43 70q14 17 31 29.5t36 21.5q19 10 39.5 15t41.5 6v1zM519 500h42
l-224 -706h-42zM140 672h187v-672h-95v586h-120z" />
    <glyph glyph-name="onequarter" unicode="&#xbc;" horiz-adv-x="551" 
d="M993 117v-441h106v-86h-105v-156h-89v156h-260q-3 1 -5.5 2.5t-5.5 2.5q-5 2 -10 4.5t-10 5.5q-7 7 -11 17t-6 20v4v4v3.5t1 3.5q0 2 0.5 3.5t0.5 3.5l244 442h98l-237 -430h201v285zM519 500h42l-224 -706h-42zM140 672h187v-672h-95v586h-120z" />
    <glyph glyph-name="threequarters" unicode="&#xbe;" horiz-adv-x="551" 
d="M993 117v-441h106v-86h-105v-156h-89v156h-260q-3 1 -5.5 2.5t-5.5 2.5q-5 2 -10 4.5t-10 5.5q-7 7 -11 17t-6 20v4v4v3.5t1 3.5q0 2 0.5 3.5t0.5 3.5l244 442h98l-237 -430h201v285zM519 500h42l-224 -706h-42zM63 672h304q3 -1 6.5 -1t7.5 -1q10 -1 20 -4t19 -8
q8 -4 14.5 -11t10.5 -15q3 -7 4.5 -15.5t1.5 -16.5q0 -11 -3 -22t-9 -21l-77 -76l-79 -74h10h10q20 -1 39.5 -6t37.5 -13q16 -6 29.5 -14.5t25.5 -19.5q25 -24 41 -54t21 -63q0 -3 0.5 -6.5t0.5 -7.5q1 -4 1 -7.5v-6.5q0 -25 -6 -50.5t-17 -49.5q-16 -30 -40.5 -53.5
t-54.5 -39.5q-14 -7 -29.5 -11.5t-31.5 -4.5h-274v87h245q14 1 27.5 4.5t25.5 9.5q11 5 19.5 13t15.5 18q9 11 15 24t8 27q1 3 1.5 6.5t0.5 6.5q1 3 1 6.5v6.5v5.5t-1 4.5q-1 16 -7.5 31t-17.5 27q-7 11 -17.5 19t-22.5 13q-18 11 -38.5 16t-41.5 3l-109 1q-7 4 -12 11.5
t-7 15.5q-1 13 4 25t15 21l200 183h-287v87z" />
    <glyph glyph-name="franc" unicode="&#x20a3;" 
 />
    <glyph glyph-name="Gbreve" unicode="&#x11e;" 
 />
    <glyph glyph-name="gbreve" unicode="&#x11f;" 
 />
    <glyph glyph-name="Idotaccent" unicode="&#x130;" 
 />
    <glyph glyph-name="Scedilla" unicode="&#x15e;" 
 />
    <glyph glyph-name="scedilla" unicode="&#x15f;" 
 />
    <glyph glyph-name="Cacute" unicode="&#x106;" 
 />
    <glyph glyph-name="cacute" unicode="&#x107;" 
 />
    <glyph glyph-name="Ccaron" unicode="&#x10c;" 
 />
    <glyph glyph-name="ccaron" unicode="&#x10d;" 
 />
    <glyph glyph-name="dcroat" unicode="&#x111;" 
 />
    <glyph glyph-name="arrowright" unicode="&#x2192;" 
 />
    <glyph glyph-name="house" unicode="&#x2302;" 
 />
    <glyph glyph-name="endash" unicode="&#x2013;" 
 />
    <glyph glyph-name="sfthyphen" unicode="&#xad;" 
 />
    <glyph glyph-name="filledbox" unicode="&#x25a0;" 
 />
    <glyph glyph-name="bullet.001" unicode="&#x2022;" 
 />
    <glyph glyph-name="overstore" unicode="&#xaf;" 
 />
    <glyph glyph-name="degree" unicode="&#xb0;" horiz-adv-x="551" 
d="M265 702q3 0 6 -0.5t6 -0.5h3.5h2.5q11 -2 20.5 -6t18.5 -11q10 -7 18 -16.5t14 -20.5q5 -10 7 -21.5t2 -22.5q-1 -23 -12 -43t-29 -33q-9 -7 -18.5 -11t-20.5 -6q-4 -1 -8.5 -1h-9.5q-17 0 -33.5 6t-30.5 18q-10 9 -17.5 20t-12.5 24q-1 7 -2.5 14.5t-1.5 14.5
q0 5 0.5 9.5t1.5 8.5q5 23 19 41t35 28q7 3 14 5t14 3h7h7v1zM259 671q-15 -2 -28 -9.5t-21 -20.5q-4 -8 -6.5 -17t-2.5 -18v-5.5t1 -5.5q0 -6 2 -11.5l4 -10.5q10 -15 25.5 -24t32.5 -10q17 1 32 9.5t24 23.5q4 8 6 16t3 17v4.5t-1 4.5q-1 7 -3.5 13.5t-6.5 12.5
q-4 8 -11 13.5t-15 8.5q-6 3 -12.5 5t-13.5 3h-4.5h-4.5v1z" />
    <glyph glyph-name="periodcentered" unicode="&#xb7;" 
 />
    <glyph glyph-name="underscoredbl" unicode="&#x2017;" 
 />
    <glyph glyph-name="exclamdbl" unicode="&#x203c;" 
 />
    <glyph glyph-name="nsuperior" unicode="&#x207f;" 
 />
    <glyph glyph-name="peseta" unicode="&#x20a7;" 
 />
    <glyph glyph-name="Gamma" unicode="&#x393;" 
 />
    <glyph glyph-name="Theta" unicode="&#x398;" 
 />
    <glyph glyph-name="Phi" unicode="&#x3a6;" 
 />
    <glyph glyph-name="alpha" unicode="&#x3b1;" 
 />
    <glyph glyph-name="delta" unicode="&#x3b4;" 
 />
    <glyph glyph-name="epsilon" unicode="&#x3b5;" 
 />
    <glyph glyph-name="sigma" unicode="&#x3c3;" 
 />
    <glyph glyph-name="tau" unicode="&#x3c4;" 
 />
    <glyph glyph-name="phi" unicode="&#x3c6;" 
 />
    <glyph glyph-name="arrowleft" unicode="&#x2190;" 
 />
    <glyph glyph-name="arrowup" unicode="&#x2191;" 
 />
    <glyph glyph-name="arrowdown" unicode="&#x2193;" 
 />
    <glyph glyph-name="arrowboth" unicode="&#x2194;" 
 />
    <glyph glyph-name="arrowupdn" unicode="&#x2195;" 
 />
    <glyph glyph-name="arrowupdnbase" unicode="&#x21a8;" 
 />
    <glyph glyph-name="orthogonal" unicode="&#x221f;" 
 />
    <glyph glyph-name="intersection" unicode="&#x2229;" 
 />
    <glyph glyph-name="equivalence" unicode="&#x2261;" 
 />
    <glyph glyph-name="revlogicalnot" unicode="&#x2310;" 
 />
    <glyph glyph-name="integraltp" unicode="&#x2320;" 
 />
    <glyph glyph-name="integralbt" unicode="&#x2321;" 
 />
    <glyph glyph-name="filledrect" unicode="&#x25ac;" horiz-adv-x="551" 
d="M23 575h494v-490h-494v490z" />
    <glyph glyph-name="circle" unicode="&#x25cb;" 
 />
    <glyph glyph-name="triagup" unicode="&#x25b2;" 
 />
    <glyph glyph-name="triagrt" unicode="&#x25ba;" 
 />
    <glyph glyph-name="triagdn" unicode="&#x25bc;" 
 />
    <glyph glyph-name="triaglf" unicode="&#x25c4;" 
 />
    <glyph glyph-name="invbullet" unicode="&#x25d8;" 
 />
    <glyph glyph-name="invcircle" unicode="&#x25d9;" 
 />
    <glyph glyph-name="Rcaron" unicode="&#x158;" 
 />
    <glyph glyph-name="upblock" unicode="&#x2580;" 
 />
    <glyph glyph-name="dnblock" unicode="&#x2584;" 
 />
    <glyph glyph-name="block" unicode="&#x2588;" 
 />
    <glyph glyph-name="lfblock" unicode="&#x258c;" 
 />
    <glyph glyph-name="rtblock" unicode="&#x2590;" 
 />
    <glyph glyph-name="ltshade" unicode="&#x2591;" 
 />
    <glyph glyph-name="shade" unicode="&#x2592;" 
 />
    <glyph glyph-name="dkshade" unicode="&#x2593;" 
 />
    <glyph glyph-name="smileface" unicode="&#x263a;" 
 />
    <glyph glyph-name="invsmileface" unicode="&#x263b;" 
 />
    <glyph glyph-name="sun" unicode="&#x263c;" 
 />
    <glyph glyph-name="female" unicode="&#x2640;" 
 />
    <glyph glyph-name="male" unicode="&#x2642;" 
 />
    <glyph glyph-name="spade" unicode="&#x2660;" 
 />
    <glyph glyph-name="club" unicode="&#x2663;" 
 />
    <glyph glyph-name="heart" unicode="&#x2665;" 
 />
    <glyph glyph-name="diamond" unicode="&#x2666;" 
 />
    <glyph glyph-name="musicalnote" unicode="&#x266a;" 
 />
    <glyph glyph-name="musicalnotedbl" unicode="&#x266b;" 
 />
    <glyph glyph-name="Abreve" unicode="&#x102;" 
 />
    <glyph glyph-name="abreve" unicode="&#x103;" 
 />
    <glyph glyph-name="Aogonek" unicode="&#x104;" 
 />
    <glyph glyph-name="aogonek" unicode="&#x105;" 
 />
    <glyph glyph-name="Dcaron" unicode="&#x10e;" 
 />
    <glyph glyph-name="dcaron" unicode="&#x10f;" 
 />
    <glyph glyph-name="Dslash" unicode="&#x110;" 
 />
    <glyph glyph-name="Eogonek" unicode="&#x118;" 
 />
    <glyph glyph-name="eogonek" unicode="&#x119;" 
 />
    <glyph glyph-name="Ecaron" unicode="&#x11a;" 
 />
    <glyph glyph-name="ecaron" unicode="&#x11b;" 
 />
    <glyph glyph-name="Lacute" unicode="&#x139;" 
 />
    <glyph glyph-name="lacute" unicode="&#x13a;" 
 />
    <glyph glyph-name="Lcaron" unicode="&#x13d;" 
 />
    <glyph glyph-name="lcaron" unicode="&#x13e;" 
 />
    <glyph glyph-name="Nacute" unicode="&#x143;" 
 />
    <glyph glyph-name="nacute" unicode="&#x144;" 
 />
    <glyph glyph-name="Ncaron" unicode="&#x147;" 
 />
    <glyph glyph-name="ncaron" unicode="&#x148;" 
 />
    <glyph glyph-name="Odblacute" unicode="&#x150;" 
 />
    <glyph glyph-name="odblacute" unicode="&#x151;" 
 />
    <glyph glyph-name="Racute" unicode="&#x154;" 
 />
    <glyph glyph-name="racute" unicode="&#x155;" 
 />
    <glyph glyph-name="rcaron" unicode="&#x159;" 
 />
    <glyph glyph-name="Sacute" unicode="&#x15a;" 
 />
    <glyph glyph-name="sacute" unicode="&#x15b;" 
 />
    <glyph glyph-name="Tcedilla" unicode="&#x162;" 
 />
    <glyph glyph-name="tcedilla" unicode="&#x163;" 
 />
    <glyph glyph-name="Tcaron" unicode="&#x164;" 
 />
    <glyph glyph-name="tcaron" unicode="&#x165;" 
 />
    <glyph glyph-name="Uring" unicode="&#x16e;" 
 />
    <glyph glyph-name="uring" unicode="&#x16f;" 
 />
    <glyph glyph-name="Udblacute" unicode="&#x171;" 
 />
    <glyph glyph-name="udblacute" unicode="&#x170;" 
 />
    <glyph glyph-name="Zacute" unicode="&#x179;" 
 />
    <glyph glyph-name="zacute" unicode="&#x17a;" 
 />
    <glyph glyph-name="Zdot" unicode="&#x17b;" 
 />
    <glyph glyph-name="zdot" unicode="&#x17c;" 
 />
    <glyph glyph-name="Ldot" unicode="&#x13f;" 
 />
    <glyph glyph-name="ldot" unicode="&#x140;" 
 />
    <glyph glyph-name="_500" unicode="&#x2500;" 
 />
    <glyph glyph-name="_502" unicode="&#x2502;" 
 />
    <glyph glyph-name="_50c" unicode="&#x250c;" 
 />
    <glyph glyph-name="_510" unicode="&#x2510;" 
 />
    <glyph glyph-name="_514" unicode="&#x2514;" 
 />
    <glyph glyph-name="_518" unicode="&#x2518;" 
 />
    <glyph glyph-name="_51c" unicode="&#x251c;" 
 />
    <glyph glyph-name="_524" unicode="&#x2524;" 
 />
    <glyph glyph-name="_52c" unicode="&#x252c;" 
 />
    <glyph glyph-name="_534" unicode="&#x2534;" 
 />
    <glyph glyph-name="_53c" unicode="&#x253c;" 
 />
    <glyph glyph-name="_550" unicode="&#x2550;" 
 />
    <glyph glyph-name="_551" unicode="&#x2551;" 
 />
    <glyph glyph-name="_552" unicode="&#x2552;" 
 />
    <glyph glyph-name="_553" unicode="&#x2553;" 
 />
    <glyph glyph-name="_554" unicode="&#x2554;" 
 />
    <glyph glyph-name="_555" unicode="&#x2555;" 
 />
    <glyph glyph-name="_556" unicode="&#x2556;" 
 />
    <glyph glyph-name="_557" unicode="&#x2557;" 
 />
    <glyph glyph-name="_558" unicode="&#x2558;" 
 />
    <glyph glyph-name="_559" unicode="&#x2559;" 
 />
    <glyph glyph-name="_55a" unicode="&#x255a;" 
 />
    <glyph glyph-name="_55b" unicode="&#x255b;" 
 />
    <glyph glyph-name="_55c" unicode="&#x255c;" 
 />
    <glyph glyph-name="_55d" unicode="&#x255d;" 
 />
    <glyph glyph-name="_55e" unicode="&#x255e;" 
 />
    <glyph glyph-name="_55f" unicode="&#x255f;" 
 />
    <glyph glyph-name="_560" unicode="&#x2560;" 
 />
    <glyph glyph-name="_561" unicode="&#x2561;" 
 />
    <glyph glyph-name="_562" unicode="&#x2562;" 
 />
    <glyph glyph-name="_563" unicode="&#x2563;" 
 />
    <glyph glyph-name="_564" unicode="&#x2564;" 
 />
    <glyph glyph-name="_565" unicode="&#x2565;" 
 />
    <glyph glyph-name="_566" unicode="&#x2566;" 
 />
    <glyph glyph-name="_567" unicode="&#x2567;" 
 />
    <glyph glyph-name="_568" unicode="&#x2568;" 
 />
    <glyph glyph-name="_569" unicode="&#x2569;" 
 />
    <glyph glyph-name="_56a" unicode="&#x256a;" 
 />
    <glyph glyph-name="_56b" unicode="&#x256b;" 
 />
    <glyph glyph-name="_56c" unicode="&#x256c;" 
 />
  </font>
</defs>
</svg>
