<?xml version="1.0" encoding="utf-8"?>
<!-- Generator: Adobe Illustrator 16.0.0, SVG Export Plug-In . SVG Version: 6.00 Build 0)  -->
<!DOCTYPE svg PUBLIC "-//W3C//DTD SVG 1.1//EN" "http://www.w3.org/Graphics/SVG/1.1/DTD/svg11.dtd">
<svg version="1.1" id="Layer_1" xmlns="http://www.w3.org/2000/svg" xmlns:xlink="http://www.w3.org/1999/xlink" x="0px" y="0px"
	 width="268px" height="284px" viewBox="177.5 228.5 268 284" enable-background="new 177.5 228.5 268 284" xml:space="preserve">
<title>logo</title>
<path fill="#104B84" d="M410.331,369.315c-1.701-5.103-1.136-10.207,1.7-14.741c10.201-18.144,13.041-39.69,6.8-59.536l-1.129-1.703
	l-1.13-1.701c-19.848-33.453-46.499-52.73-78.819-57.266c-53.866-7.939-107.162,30.05-127.576,46.493
	c-2.832,2.269-13.039,11.342-13.607,20.98v164.43c0,9.072,7.372,16.443,15.876,16.443l0,0h1.135c9.071,0,16.442-7.371,16.442-15.877
	l0,0v-150.82c0-5.104,2.271-9.637,6.239-13.041c21.546-17.007,61.8-40.256,96.391-35.721c20.408,2.837,37.421,15.31,52.158,37.421
	c1.135,1.703,2.271,3.968,2.271,6.239c2.271,12.471-2.271,25.517-12.473,34.021l-0.563,0.565
	c-5.678,5.103-7.378,13.609-3.972,19.849v0.564c8.501,15.875,27.779,62.938,13.607,89.584c-6.8,12.473-20.978,19.844-42.521,22.684
	c-1.706,0-2.835,0-4.542,0c-11.906-1.701-35.149-8.506-43.657-24.383c-6.803-12.473-3.971-30.051,7.372-52.163v-0.571
	c2.835-5.102,2.264-10.769-0.566-15.873v-0.571c-3.404-6.239-11.909-26.65-6.806-41.958c2.271-5.669,5.671-10.209,10.772-13.609
	c6.235-3.968,9.072-11.907,6.235-19.279l-0.564-1.7c-3.401-8.503-12.472-12.474-20.979-9.639c-1.135,0.568-2.267,1.136-3.4,1.701
	c-11.339,7.374-19.278,18.145-23.814,30.62c-5.67,18.142-4.536,37.989,2.832,55.564c1.132,3.974,1.132,7.942,0,11.909
	c-10.774,26.65-11.338,50.465-0.567,69.74c20.414,36.857,72.01,41.963,74.277,42.527h1.7h1.706
	c36.285-3.406,60.666-17.014,73.706-40.828C433.009,437.922,420.537,394.266,410.331,369.315z"/>
</svg>
